# MagicaVoxel @ Ephtracy

# group
g cupboard2

# material
mtllib cupboard2.mtl
usemtl palette

# normals
vn -1 0 0
vn 1 0 0
vn 0 0 1
vn 0 0 -1
vn 0 -1 0
vn 0 1 0

# texcoords
vt 0.205078 0.5
vt 0.306641 0.5
vt 0.486328 0.5
vt 0.986328 0.5
vt 0.994141 0.5

# verts
v -30 0 28
v -30 0 20
v -30 0 -24
v -30 0 -32
v -30 8 20
v -30 8 -24
v -30 62 30
v -30 62 28
v -30 64 28
v -30 64 -32
v -30 66 32
v -30 66 30
v -30 68 32
v -30 68 -32
v -28 62 32
v -28 62 30
v -28 66 32
v -28 66 30
v -26 20 32
v -26 20 28
v -26 22 32
v -26 22 30
v -26 26 32
v -26 26 30
v -26 28 32
v -26 28 28
v -26 48 32
v -26 48 28
v -26 50 32
v -26 50 30
v -26 54 32
v -26 54 30
v -26 56 32
v -26 56 28
v -24 22 32
v -24 22 30
v -24 26 32
v -24 26 30
v -24 50 32
v -24 50 30
v -24 54 32
v -24 54 30
v -22 4 20
v -22 4 -24
v -22 8 20
v -22 8 -24
v -22 16 30
v -22 16 28
v -22 20 30
v -22 20 28
v -22 28 32
v -22 28 28
v -22 30 32
v -22 30 30
v -22 46 32
v -22 46 30
v -22 48 32
v -22 48 28
v -22 56 30
v -22 56 28
v -22 60 30
v -22 60 28
v -20 18 32
v -20 18 30
v -20 20 32
v -20 20 30
v -20 30 32
v -20 30 30
v -20 46 32
v -20 46 30
v -20 56 32
v -20 56 30
v -20 58 32
v -20 58 30
v 2 16 30
v 2 16 28
v 2 60 30
v 2 60 28
v 4 18 32
v 4 18 30
v 4 58 32
v 4 58 30
v 22 0 28
v 22 0 20
v 22 0 -24
v 22 0 -32
v 22 4 20
v 22 4 -24
v 22 8 28
v 22 8 20
v 22 8 -24
v 22 8 -32
v -22 0 28
v -22 0 20
v -22 0 -24
v -22 0 -32
v -22 4 20
v -22 4 -24
v -22 8 28
v -22 8 20
v -22 8 -24
v -22 8 -32
v -4 18 32
v -4 18 30
v -4 58 32
v -4 58 30
v -2 16 30
v -2 16 28
v -2 60 30
v -2 60 28
v 20 18 32
v 20 18 30
v 20 20 32
v 20 20 30
v 20 30 32
v 20 30 30
v 20 46 32
v 20 46 30
v 20 56 32
v 20 56 30
v 20 58 32
v 20 58 30
v 22 4 20
v 22 4 -24
v 22 8 20
v 22 8 -24
v 22 16 30
v 22 16 28
v 22 20 30
v 22 20 28
v 22 28 32
v 22 28 28
v 22 30 32
v 22 30 30
v 22 46 32
v 22 46 30
v 22 48 32
v 22 48 28
v 22 56 30
v 22 56 28
v 22 60 30
v 22 60 28
v 24 22 32
v 24 22 30
v 24 26 32
v 24 26 30
v 24 50 32
v 24 50 30
v 24 54 32
v 24 54 30
v 26 20 32
v 26 20 28
v 26 22 32
v 26 22 30
v 26 26 32
v 26 26 30
v 26 28 32
v 26 28 28
v 26 48 32
v 26 48 28
v 26 50 32
v 26 50 30
v 26 54 32
v 26 54 30
v 26 56 32
v 26 56 28
v 28 62 32
v 28 62 30
v 28 66 32
v 28 66 30
v 30 0 28
v 30 0 20
v 30 0 -24
v 30 0 -32
v 30 8 20
v 30 8 -24
v 30 62 30
v 30 62 28
v 30 64 28
v 30 64 -32
v 30 66 32
v 30 66 30
v 30 68 32
v 30 68 -32
v -30 66 32
v -30 68 32
v -28 62 32
v -28 66 32
v -26 20 32
v -26 22 32
v -26 26 32
v -26 28 32
v -26 48 32
v -26 50 32
v -26 54 32
v -26 56 32
v -24 22 32
v -24 26 32
v -24 50 32
v -24 54 32
v -22 20 32
v -22 28 32
v -22 30 32
v -22 46 32
v -22 48 32
v -22 56 32
v -20 18 32
v -20 20 32
v -20 30 32
v -20 46 32
v -20 56 32
v -20 58 32
v -10 36 32
v -10 40 32
v -6 36 32
v -6 40 32
v -4 18 32
v -4 58 32
v 4 18 32
v 4 58 32
v 6 36 32
v 6 40 32
v 10 36 32
v 10 40 32
v 20 18 32
v 20 20 32
v 20 30 32
v 20 46 32
v 20 56 32
v 20 58 32
v 22 20 32
v 22 28 32
v 22 30 32
v 22 46 32
v 22 48 32
v 22 56 32
v 24 22 32
v 24 26 32
v 24 50 32
v 24 54 32
v 26 20 32
v 26 22 32
v 26 26 32
v 26 28 32
v 26 48 32
v 26 50 32
v 26 54 32
v 26 56 32
v 28 62 32
v 28 66 32
v 30 66 32
v 30 68 32
v -30 62 30
v -30 66 30
v -28 62 30
v -28 66 30
v -26 22 30
v -26 26 30
v -26 50 30
v -26 54 30
v -24 22 30
v -24 26 30
v -24 50 30
v -24 54 30
v -22 16 30
v -22 20 30
v -22 30 30
v -22 46 30
v -22 56 30
v -22 60 30
v -20 18 30
v -20 20 30
v -20 30 30
v -20 46 30
v -20 56 30
v -20 58 30
v -4 18 30
v -4 58 30
v -2 16 30
v -2 60 30
v 2 16 30
v 2 60 30
v 4 18 30
v 4 58 30
v 20 18 30
v 20 20 30
v 20 30 30
v 20 46 30
v 20 56 30
v 20 58 30
v 22 16 30
v 22 20 30
v 22 30 30
v 22 46 30
v 22 56 30
v 22 60 30
v 24 22 30
v 24 26 30
v 24 50 30
v 24 54 30
v 26 22 30
v 26 26 30
v 26 50 30
v 26 54 30
v 28 62 30
v 28 66 30
v 30 62 30
v 30 66 30
v -30 0 28
v -30 62 28
v -26 20 28
v -26 28 28
v -26 48 28
v -26 56 28
v -22 0 28
v -22 8 28
v -22 16 28
v -22 20 28
v -22 28 28
v -22 48 28
v -22 56 28
v -22 60 28
v -2 16 28
v -2 60 28
v 2 16 28
v 2 60 28
v 22 0 28
v 22 8 28
v 22 16 28
v 22 20 28
v 22 28 28
v 22 48 28
v 22 56 28
v 22 60 28
v 26 20 28
v 26 28 28
v 26 48 28
v 26 56 28
v 30 0 28
v 30 62 28
v -22 4 20
v -22 8 20
v 22 4 20
v 22 8 20
v -30 0 -24
v -30 8 -24
v -22 0 -24
v -22 4 -24
v -22 8 -24
v 22 0 -24
v 22 4 -24
v 22 8 -24
v 30 0 -24
v 30 8 -24
v -30 0 20
v -30 8 20
v -22 0 20
v -22 4 20
v -22 8 20
v 22 0 20
v 22 4 20
v 22 8 20
v 30 0 20
v 30 8 20
v -22 4 -24
v -22 8 -24
v 22 4 -24
v 22 8 -24
v -30 0 -32
v -30 64 -32
v -30 68 -32
v -22 0 -32
v -22 8 -32
v 22 0 -32
v 22 8 -32
v 30 0 -32
v 30 64 -32
v 30 68 -32
v -30 0 28
v -22 0 28
v 22 0 28
v 30 0 28
v -30 0 20
v -22 0 20
v 22 0 20
v 30 0 20
v -30 0 -24
v -22 0 -24
v 22 0 -24
v 30 0 -24
v -30 0 -32
v -22 0 -32
v 22 0 -32
v 30 0 -32
v -22 4 20
v 22 4 20
v -22 4 -24
v 22 4 -24
v -22 8 28
v 22 8 28
v -30 8 20
v -22 8 20
v 22 8 20
v 30 8 20
v -30 8 -24
v -22 8 -24
v 22 8 -24
v 30 8 -24
v -22 8 -32
v 22 8 -32
v -22 16 30
v -2 16 30
v 2 16 30
v 22 16 30
v -22 16 28
v -2 16 28
v 2 16 28
v 22 16 28
v -20 18 32
v -4 18 32
v 4 18 32
v 20 18 32
v -20 18 30
v -4 18 30
v 4 18 30
v 20 18 30
v -26 20 32
v -22 20 32
v -20 20 32
v 20 20 32
v 22 20 32
v 26 20 32
v -22 20 30
v -20 20 30
v 20 20 30
v 22 20 30
v -26 20 28
v -22 20 28
v 22 20 28
v 26 20 28
v -26 26 32
v -24 26 32
v 24 26 32
v 26 26 32
v -26 26 30
v -24 26 30
v 24 26 30
v 26 26 30
v -22 46 32
v -20 46 32
v 20 46 32
v 22 46 32
v -22 46 30
v -20 46 30
v 20 46 30
v 22 46 30
v -26 48 32
v -22 48 32
v 22 48 32
v 26 48 32
v -26 48 28
v -22 48 28
v 22 48 28
v 26 48 28
v -26 54 32
v -24 54 32
v 24 54 32
v 26 54 32
v -26 54 30
v -24 54 30
v 24 54 30
v 26 54 30
v -28 62 32
v 28 62 32
v -30 62 30
v -28 62 30
v 28 62 30
v 30 62 30
v -30 62 28
v 30 62 28
v -30 66 32
v -28 66 32
v 28 66 32
v 30 66 32
v -30 66 30
v -28 66 30
v 28 66 30
v 30 66 30
v -26 22 32
v -24 22 32
v 24 22 32
v 26 22 32
v -26 22 30
v -24 22 30
v 24 22 30
v 26 22 30
v -26 28 32
v -22 28 32
v 22 28 32
v 26 28 32
v -26 28 28
v -22 28 28
v 22 28 28
v 26 28 28
v -22 30 32
v -20 30 32
v 20 30 32
v 22 30 32
v -22 30 30
v -20 30 30
v 20 30 30
v 22 30 30
v -26 50 32
v -24 50 32
v 24 50 32
v 26 50 32
v -26 50 30
v -24 50 30
v 24 50 30
v 26 50 30
v -26 56 32
v -22 56 32
v -20 56 32
v 20 56 32
v 22 56 32
v 26 56 32
v -22 56 30
v -20 56 30
v 20 56 30
v 22 56 30
v -26 56 28
v -22 56 28
v 22 56 28
v 26 56 28
v -20 58 32
v -4 58 32
v 4 58 32
v 20 58 32
v -20 58 30
v -4 58 30
v 4 58 30
v 20 58 30
v -22 60 30
v -2 60 30
v 2 60 30
v 22 60 30
v -22 60 28
v -2 60 28
v 2 60 28
v 22 60 28
v -30 68 32
v 30 68 32
v -30 68 -32
v 30 68 -32

# faces
f 5/1/1 2/1/1 1/1/1
f 6/1/1 4/1/1 3/1/1
f 8/1/1 5/1/1 1/1/1
f 8/1/1 6/1/1 5/1/1
f 9/1/1 6/1/1 8/1/1
f 9/3/1 8/3/1 7/3/1
f 10/1/1 4/1/1 6/1/1
f 10/1/1 6/1/1 9/1/1
f 12/3/1 9/3/1 7/3/1
f 12/3/1 10/3/1 9/3/1
f 13/3/1 12/3/1 11/3/1
f 14/3/1 10/3/1 12/3/1
f 14/3/1 12/3/1 13/3/1
f 17/3/1 16/3/1 15/3/1
f 18/3/1 16/3/1 17/3/1
f 21/4/1 20/4/1 19/4/1
f 22/4/1 20/4/1 21/4/1
f 24/4/1 20/4/1 22/4/1
f 25/4/1 24/4/1 23/4/1
f 26/4/1 20/4/1 24/4/1
f 26/4/1 24/4/1 25/4/1
f 29/4/1 28/4/1 27/4/1
f 30/4/1 28/4/1 29/4/1
f 32/4/1 28/4/1 30/4/1
f 33/4/1 32/4/1 31/4/1
f 34/4/1 28/4/1 32/4/1
f 34/4/1 32/4/1 33/4/1
f 37/4/1 36/4/1 35/4/1
f 38/4/1 36/4/1 37/4/1
f 41/4/1 40/4/1 39/4/1
f 42/4/1 40/4/1 41/4/1
f 45/1/1 44/1/1 43/1/1
f 46/1/1 44/1/1 45/1/1
f 49/1/1 48/1/1 47/1/1
f 50/1/1 48/1/1 49/1/1
f 53/1/1 52/1/1 51/1/1
f 54/1/1 52/1/1 53/1/1
f 56/1/1 52/1/1 54/1/1
f 57/1/1 56/1/1 55/1/1
f 58/1/1 52/1/1 56/1/1
f 58/1/1 56/1/1 57/1/1
f 61/1/1 60/1/1 59/1/1
f 62/1/1 60/1/1 61/1/1
f 65/1/1 64/1/1 63/1/1
f 66/1/1 64/1/1 65/1/1
f 69/1/1 68/1/1 67/1/1
f 70/1/1 68/1/1 69/1/1
f 73/1/1 72/1/1 71/1/1
f 74/1/1 72/1/1 73/1/1
f 77/1/1 76/1/1 75/1/1
f 78/1/1 76/1/1 77/1/1
f 81/1/1 80/1/1 79/1/1
f 82/1/1 80/1/1 81/1/1
f 87/1/1 84/1/1 83/1/1
f 88/1/1 86/1/1 85/1/1
f 89/1/1 87/1/1 83/1/1
f 90/1/1 87/1/1 89/1/1
f 91/1/1 86/1/1 88/1/1
f 92/1/1 86/1/1 91/1/1
f 93/1/2 94/1/2 97/1/2
f 95/1/2 96/1/2 98/1/2
f 93/1/2 97/1/2 99/1/2
f 99/1/2 97/1/2 100/1/2
f 98/1/2 96/1/2 101/1/2
f 101/1/2 96/1/2 102/1/2
f 103/1/2 104/1/2 105/1/2
f 105/1/2 104/1/2 106/1/2
f 107/1/2 108/1/2 109/1/2
f 109/1/2 108/1/2 110/1/2
f 111/1/2 112/1/2 113/1/2
f 113/1/2 112/1/2 114/1/2
f 115/1/2 116/1/2 117/1/2
f 117/1/2 116/1/2 118/1/2
f 119/1/2 120/1/2 121/1/2
f 121/1/2 120/1/2 122/1/2
f 123/1/2 124/1/2 125/1/2
f 125/1/2 124/1/2 126/1/2
f 127/1/2 128/1/2 129/1/2
f 129/1/2 128/1/2 130/1/2
f 131/1/2 132/1/2 133/1/2
f 133/1/2 132/1/2 134/1/2
f 134/1/2 132/1/2 136/1/2
f 135/1/2 136/1/2 137/1/2
f 136/1/2 132/1/2 138/1/2
f 137/1/2 136/1/2 138/1/2
f 139/1/2 140/1/2 141/1/2
f 141/1/2 140/1/2 142/1/2
f 143/4/2 144/4/2 145/4/2
f 145/4/2 144/4/2 146/4/2
f 147/4/2 148/4/2 149/4/2
f 149/4/2 148/4/2 150/4/2
f 151/4/2 152/4/2 153/4/2
f 153/4/2 152/4/2 154/4/2
f 154/4/2 152/4/2 156/4/2
f 155/4/2 156/4/2 157/4/2
f 156/4/2 152/4/2 158/4/2
f 157/4/2 156/4/2 158/4/2
f 159/4/2 160/4/2 161/4/2
f 161/4/2 160/4/2 162/4/2
f 162/4/2 160/4/2 164/4/2
f 163/4/2 164/4/2 165/4/2
f 164/4/2 160/4/2 166/4/2
f 165/4/2 164/4/2 166/4/2
f 167/3/2 168/3/2 169/3/2
f 169/3/2 168/3/2 170/3/2
f 171/1/2 172/1/2 175/1/2
f 173/1/2 174/1/2 176/1/2
f 171/1/2 175/1/2 178/1/2
f 175/1/2 176/1/2 178/1/2
f 178/1/2 176/1/2 179/1/2
f 177/3/2 178/3/2 179/3/2
f 176/1/2 174/1/2 180/1/2
f 179/1/2 176/1/2 180/1/2
f 177/3/2 179/3/2 182/3/2
f 179/3/2 180/3/2 182/3/2
f 181/3/2 182/3/2 183/3/2
f 182/3/2 180/3/2 184/3/2
f 183/3/2 182/3/2 184/3/2
f 188/3/3 186/3/3 185/3/3
f 197/4/3 190/4/3 189/4/3
f 198/4/3 192/4/3 191/4/3
f 199/4/3 194/4/3 193/4/3
f 200/4/3 196/4/3 195/4/3
f 201/4/3 197/4/3 189/4/3
f 201/4/3 198/4/3 197/4/3
f 202/4/3 192/4/3 198/4/3
f 202/4/3 198/4/3 201/4/3
f 205/4/3 199/4/3 193/4/3
f 205/4/3 200/4/3 199/4/3
f 206/4/3 196/4/3 200/4/3
f 206/4/3 200/4/3 205/4/3
f 208/1/3 203/1/3 202/1/3
f 208/1/3 202/1/3 201/1/3
f 209/1/3 203/1/3 208/1/3
f 210/1/3 206/1/3 205/1/3
f 210/1/3 205/1/3 204/1/3
f 211/1/3 206/1/3 210/1/3
f 213/1/3 211/1/3 210/1/3
f 213/1/3 212/1/3 211/1/3
f 213/1/3 210/1/3 209/1/3
f 213/1/3 209/1/3 208/1/3
f 213/1/3 208/1/3 207/1/3
f 214/1/3 212/1/3 213/1/3
f 215/1/3 213/1/3 207/1/3
f 215/5/3 214/5/3 213/5/3
f 216/1/3 212/1/3 214/1/3
f 216/5/3 214/5/3 215/5/3
f 217/1/3 215/1/3 207/1/3
f 217/1/3 216/1/3 215/1/3
f 218/1/3 212/1/3 216/1/3
f 218/1/3 216/1/3 217/1/3
f 221/1/3 220/1/3 219/1/3
f 222/1/3 220/1/3 221/1/3
f 223/1/3 221/1/3 219/1/3
f 223/5/3 222/5/3 221/5/3
f 224/1/3 220/1/3 222/1/3
f 224/5/3 222/5/3 223/5/3
f 225/1/3 223/1/3 219/1/3
f 225/1/3 224/1/3 223/1/3
f 226/1/3 224/1/3 225/1/3
f 227/1/3 224/1/3 226/1/3
f 228/1/3 220/1/3 224/1/3
f 228/1/3 224/1/3 227/1/3
f 229/1/3 220/1/3 228/1/3
f 230/1/3 220/1/3 229/1/3
f 231/1/3 227/1/3 226/1/3
f 232/1/3 227/1/3 231/1/3
f 233/1/3 227/1/3 232/1/3
f 234/1/3 229/1/3 228/1/3
f 235/1/3 229/1/3 234/1/3
f 236/1/3 229/1/3 235/1/3
f 237/4/3 232/4/3 231/4/3
f 238/4/3 232/4/3 237/4/3
f 239/4/3 236/4/3 235/4/3
f 240/4/3 236/4/3 239/4/3
f 241/4/3 237/4/3 231/4/3
f 242/4/3 237/4/3 241/4/3
f 243/4/3 232/4/3 238/4/3
f 244/4/3 232/4/3 243/4/3
f 245/4/3 239/4/3 235/4/3
f 246/4/3 239/4/3 245/4/3
f 247/4/3 236/4/3 240/4/3
f 248/4/3 236/4/3 247/4/3
f 249/3/3 188/3/3 187/3/3
f 250/3/3 186/3/3 188/3/3
f 250/3/3 188/3/3 249/3/3
f 251/3/3 186/3/3 250/3/3
f 252/3/3 186/3/3 251/3/3
f 255/3/3 254/3/3 253/3/3
f 256/3/3 254/3/3 255/3/3
f 261/4/3 258/4/3 257/4/3
f 262/4/3 258/4/3 261/4/3
f 263/4/3 260/4/3 259/4/3
f 264/4/3 260/4/3 263/4/3
f 271/1/3 266/1/3 265/1/3
f 272/1/3 266/1/3 271/1/3
f 273/1/3 268/1/3 267/1/3
f 274/1/3 268/1/3 273/1/3
f 275/1/3 270/1/3 269/1/3
f 276/1/3 270/1/3 275/1/3
f 277/1/3 271/1/3 265/1/3
f 278/1/3 270/1/3 276/1/3
f 279/1/3 277/1/3 265/1/3
f 279/1/3 278/1/3 277/1/3
f 280/1/3 270/1/3 278/1/3
f 280/1/3 278/1/3 279/1/3
f 283/1/3 282/1/3 281/1/3
f 284/1/3 282/1/3 283/1/3
f 285/1/3 283/1/3 281/1/3
f 290/1/3 282/1/3 284/1/3
f 291/1/3 285/1/3 281/1/3
f 291/1/3 286/1/3 285/1/3
f 292/1/3 286/1/3 291/1/3
f 293/1/3 288/1/3 287/1/3
f 294/1/3 288/1/3 293/1/3
f 295/1/3 290/1/3 289/1/3
f 296/1/3 282/1/3 290/1/3
f 296/1/3 290/1/3 295/1/3
f 301/4/3 298/4/3 297/4/3
f 302/4/3 298/4/3 301/4/3
f 303/4/3 300/4/3 299/4/3
f 304/4/3 300/4/3 303/4/3
f 307/3/3 306/3/3 305/3/3
f 308/3/3 306/3/3 307/3/3
f 311/1/3 310/1/3 309/1/3
f 312/1/3 310/1/3 311/1/3
f 313/1/3 310/1/3 312/1/3
f 314/1/3 310/1/3 313/1/3
f 315/1/3 311/1/3 309/1/3
f 316/1/3 311/1/3 315/1/3
f 317/1/3 311/1/3 316/1/3
f 318/1/3 311/1/3 317/1/3
f 319/1/3 313/1/3 312/1/3
f 320/1/3 313/1/3 319/1/3
f 321/1/3 310/1/3 314/1/3
f 322/1/3 310/1/3 321/1/3
f 323/1/3 317/1/3 316/1/3
f 324/1/3 310/1/3 322/1/3
f 325/1/3 323/1/3 316/1/3
f 325/1/3 324/1/3 323/1/3
f 326/1/3 310/1/3 324/1/3
f 326/1/3 324/1/3 325/1/3
f 328/1/3 325/1/3 316/1/3
f 329/1/3 325/1/3 328/1/3
f 334/1/3 310/1/3 326/1/3
f 335/1/3 328/1/3 327/1/3
f 335/1/3 329/1/3 328/1/3
f 335/1/3 330/1/3 329/1/3
f 336/1/3 332/1/3 331/1/3
f 337/1/3 332/1/3 336/1/3
f 338/1/3 334/1/3 333/1/3
f 339/1/3 335/1/3 327/1/3
f 339/1/3 338/1/3 337/1/3
f 339/1/3 337/1/3 336/1/3
f 339/1/3 336/1/3 335/1/3
f 340/1/3 334/1/3 338/1/3
f 340/1/3 338/1/3 339/1/3
f 340/1/3 310/1/3 334/1/3
f 343/1/3 342/1/3 341/1/3
f 344/1/3 342/1/3 343/1/3
f 347/1/3 346/1/3 345/1/3
f 348/1/3 346/1/3 347/1/3
f 349/1/3 346/1/3 348/1/3
f 353/1/3 351/1/3 350/1/3
f 353/1/3 352/1/3 351/1/3
f 354/1/3 352/1/3 353/1/3
f 355/1/4 356/1/4 357/1/4
f 357/1/4 356/1/4 358/1/4
f 358/1/4 356/1/4 359/1/4
f 360/1/4 361/1/4 363/1/4
f 361/1/4 362/1/4 363/1/4
f 363/1/4 362/1/4 364/1/4
f 365/1/4 366/1/4 367/1/4
f 367/1/4 366/1/4 368/1/4
f 369/1/4 370/1/4 372/1/4
f 372/1/4 370/1/4 373/1/4
f 373/1/4 370/1/4 375/1/4
f 374/1/4 375/1/4 376/1/4
f 370/3/4 371/3/4 377/3/4
f 376/1/4 375/1/4 377/1/4
f 375/1/4 370/1/4 377/1/4
f 377/3/4 371/3/4 378/3/4
f 383/1/5 380/1/5 379/1/5
f 384/1/5 380/1/5 383/1/5
f 385/1/5 382/1/5 381/1/5
f 386/1/5 382/1/5 385/1/5
f 391/1/5 388/1/5 387/1/5
f 392/1/5 388/1/5 391/1/5
f 393/1/5 390/1/5 389/1/5
f 394/1/5 390/1/5 393/1/5
f 397/1/5 396/1/5 395/1/5
f 398/1/5 396/1/5 397/1/5
f 402/1/5 400/1/5 399/1/5
f 403/1/5 400/1/5 402/1/5
f 405/1/5 402/1/5 401/1/5
f 406/1/5 402/1/5 405/1/5
f 407/1/5 404/1/5 403/1/5
f 408/1/5 404/1/5 407/1/5
f 409/1/5 407/1/5 406/1/5
f 410/1/5 407/1/5 409/1/5
f 415/1/5 412/1/5 411/1/5
f 416/1/5 412/1/5 415/1/5
f 417/1/5 414/1/5 413/1/5
f 418/1/5 414/1/5 417/1/5
f 423/1/5 420/1/5 419/1/5
f 424/1/5 420/1/5 423/1/5
f 425/1/5 422/1/5 421/1/5
f 426/1/5 422/1/5 425/1/5
f 433/4/5 428/4/5 427/4/5
f 433/1/5 429/1/5 428/1/5
f 434/1/5 429/1/5 433/1/5
f 435/1/5 431/1/5 430/1/5
f 436/4/5 432/4/5 431/4/5
f 436/1/5 431/1/5 435/1/5
f 437/4/5 433/4/5 427/4/5
f 438/4/5 433/4/5 437/4/5
f 439/4/5 432/4/5 436/4/5
f 440/4/5 432/4/5 439/4/5
f 445/4/5 442/4/5 441/4/5
f 446/4/5 442/4/5 445/4/5
f 447/4/5 444/4/5 443/4/5
f 448/4/5 444/4/5 447/4/5
f 453/1/5 450/1/5 449/1/5
f 454/1/5 450/1/5 453/1/5
f 455/1/5 452/1/5 451/1/5
f 456/1/5 452/1/5 455/1/5
f 461/4/5 458/4/5 457/4/5
f 462/4/5 458/4/5 461/4/5
f 463/4/5 460/4/5 459/4/5
f 464/4/5 460/4/5 463/4/5
f 469/4/5 466/4/5 465/4/5
f 470/4/5 466/4/5 469/4/5
f 471/4/5 468/4/5 467/4/5
f 472/4/5 468/4/5 471/4/5
f 476/3/5 474/3/5 473/3/5
f 477/3/5 474/3/5 476/3/5
f 479/3/5 476/3/5 475/3/5
f 479/3/5 478/3/5 477/3/5
f 479/3/5 477/3/5 476/3/5
f 480/3/5 478/3/5 479/3/5
f 485/3/5 482/3/5 481/3/5
f 486/3/5 482/3/5 485/3/5
f 487/3/5 484/3/5 483/3/5
f 488/3/5 484/3/5 487/3/5
f 489/4/6 490/4/6 493/4/6
f 493/4/6 490/4/6 494/4/6
f 491/4/6 492/4/6 495/4/6
f 495/4/6 492/4/6 496/4/6
f 497/4/6 498/4/6 501/4/6
f 501/4/6 498/4/6 502/4/6
f 499/4/6 500/4/6 503/4/6
f 503/4/6 500/4/6 504/4/6
f 505/1/6 506/1/6 509/1/6
f 509/1/6 506/1/6 510/1/6
f 507/1/6 508/1/6 511/1/6
f 511/1/6 508/1/6 512/1/6
f 513/4/6 514/4/6 517/4/6
f 517/4/6 514/4/6 518/4/6
f 515/4/6 516/4/6 519/4/6
f 519/4/6 516/4/6 520/4/6
f 521/4/6 522/4/6 527/4/6
f 522/1/6 523/1/6 527/1/6
f 527/1/6 523/1/6 528/1/6
f 524/1/6 525/1/6 529/1/6
f 525/4/6 526/4/6 530/4/6
f 529/1/6 525/1/6 530/1/6
f 521/4/6 527/4/6 531/4/6
f 531/4/6 527/4/6 532/4/6
f 530/4/6 526/4/6 533/4/6
f 533/4/6 526/4/6 534/4/6
f 535/1/6 536/1/6 539/1/6
f 539/1/6 536/1/6 540/1/6
f 537/1/6 538/1/6 541/1/6
f 541/1/6 538/1/6 542/1/6
f 543/1/6 544/1/6 547/1/6
f 547/1/6 544/1/6 548/1/6
f 545/1/6 546/1/6 549/1/6
f 549/1/6 546/1/6 550/1/6
f 551/3/6 552/3/6 553/3/6
f 553/3/6 552/3/6 554/3/6
