# MagicaVoxel @ Ephtracy

# group
g cupboard3

# material
mtllib cupboard3.mtl
usemtl palette

# normals
vn -1 0 0
vn 1 0 0
vn 0 0 1
vn 0 0 -1
vn 0 -1 0
vn 0 1 0

# texcoords
vt 0.177734 0.5
vt 0.181641 0.5
vt 0.486328 0.5
vt 0.677734 0.5

# verts
v -34 0 8
v -34 0 4
v -34 0 -6
v -34 0 -10
v -34 4 4
v -34 4 -6
v -34 68 8
v -34 68 -10
v -30 8 10
v -30 8 8
v -30 14 10
v -30 14 8
v -30 18 10
v -30 18 8
v -30 24 10
v -30 24 8
v 30 0 8
v 30 0 4
v 30 0 -6
v 30 0 -10
v 30 4 8
v 30 4 4
v 30 4 -6
v 30 4 -10
v 32 26 8
v 32 26 -8
v 32 38 8
v 32 38 -8
v 32 40 8
v 32 40 -8
v 32 52 8
v 32 52 -8
v 32 54 8
v 32 54 -8
v 32 66 8
v 32 66 -8
v -32 26 8
v -32 26 -8
v -32 38 8
v -32 38 -8
v -32 40 8
v -32 40 -8
v -32 52 8
v -32 52 -8
v -32 54 8
v -32 54 -8
v -32 66 8
v -32 66 -8
v -30 0 8
v -30 0 4
v -30 0 -6
v -30 0 -10
v -30 4 8
v -30 4 4
v -30 4 -6
v -30 4 -10
v 30 8 10
v 30 8 8
v 30 14 10
v 30 14 8
v 30 18 10
v 30 18 8
v 30 24 10
v 30 24 8
v 34 0 8
v 34 0 4
v 34 0 -6
v 34 0 -10
v 34 4 4
v 34 4 -6
v 34 68 8
v 34 68 -10
v -30 8 10
v -30 14 10
v -30 18 10
v -30 24 10
v -2 10 10
v -2 12 10
v -2 20 10
v -2 22 10
v 2 10 10
v 2 12 10
v 2 20 10
v 2 22 10
v 30 8 10
v 30 14 10
v 30 18 10
v 30 24 10
v -34 0 8
v -34 68 8
v -32 26 8
v -32 38 8
v -32 40 8
v -32 52 8
v -32 54 8
v -32 66 8
v -30 0 8
v -30 4 8
v -30 8 8
v -30 14 8
v -30 18 8
v -30 24 8
v 30 0 8
v 30 4 8
v 30 8 8
v 30 14 8
v 30 18 8
v 30 24 8
v 32 26 8
v 32 38 8
v 32 40 8
v 32 52 8
v 32 54 8
v 32 66 8
v 34 0 8
v 34 68 8
v -34 0 -6
v -34 4 -6
v -30 0 -6
v -30 4 -6
v 30 0 -6
v 30 4 -6
v 34 0 -6
v 34 4 -6
v -32 26 -8
v -32 38 -8
v -32 40 -8
v -32 52 -8
v -32 54 -8
v -32 66 -8
v 32 26 -8
v 32 38 -8
v 32 40 -8
v 32 52 -8
v 32 54 -8
v 32 66 -8
v -34 0 4
v -34 4 4
v -30 0 4
v -30 4 4
v 30 0 4
v 30 4 4
v 34 0 4
v 34 4 4
v -34 0 -10
v -34 68 -10
v -30 0 -10
v -30 4 -10
v 30 0 -10
v 30 4 -10
v 34 0 -10
v 34 68 -10
v -34 0 8
v -30 0 8
v 30 0 8
v 34 0 8
v -34 0 4
v -30 0 4
v 30 0 4
v 34 0 4
v -34 0 -6
v -30 0 -6
v 30 0 -6
v 34 0 -6
v -34 0 -10
v -30 0 -10
v 30 0 -10
v 34 0 -10
v -30 4 8
v 30 4 8
v -34 4 4
v -30 4 4
v 30 4 4
v 34 4 4
v -34 4 -6
v -30 4 -6
v 30 4 -6
v 34 4 -6
v -30 4 -10
v 30 4 -10
v -30 8 10
v 30 8 10
v -30 8 8
v 30 8 8
v -30 18 10
v 30 18 10
v -30 18 8
v 30 18 8
v -32 38 8
v 32 38 8
v -32 38 -8
v 32 38 -8
v -32 52 8
v 32 52 8
v -32 52 -8
v 32 52 -8
v -32 66 8
v 32 66 8
v -32 66 -8
v 32 66 -8
v -30 14 10
v 30 14 10
v -30 14 8
v 30 14 8
v -30 24 10
v 30 24 10
v -30 24 8
v 30 24 8
v -32 26 8
v 32 26 8
v -32 26 -8
v 32 26 -8
v -32 40 8
v 32 40 8
v -32 40 -8
v 32 40 -8
v -32 54 8
v 32 54 8
v -32 54 -8
v 32 54 -8
v -34 68 8
v 34 68 8
v -34 68 -10
v 34 68 -10

# faces
f 5/1/1 2/1/1 1/1/1
f 6/1/1 4/1/1 3/1/1
f 7/1/1 5/1/1 1/1/1
f 7/1/1 6/1/1 5/1/1
f 8/1/1 4/1/1 6/1/1
f 8/1/1 6/1/1 7/1/1
f 11/2/1 10/2/1 9/2/1
f 12/2/1 10/2/1 11/2/1
f 15/2/1 14/2/1 13/2/1
f 16/2/1 14/2/1 15/2/1
f 21/1/1 18/1/1 17/1/1
f 22/1/1 18/1/1 21/1/1
f 23/1/1 20/1/1 19/1/1
f 24/1/1 20/1/1 23/1/1
f 27/1/1 26/1/1 25/1/1
f 28/1/1 26/1/1 27/1/1
f 31/1/1 30/1/1 29/1/1
f 32/1/1 30/1/1 31/1/1
f 35/1/1 34/1/1 33/1/1
f 36/1/1 34/1/1 35/1/1
f 37/1/2 38/1/2 39/1/2
f 39/1/2 38/1/2 40/1/2
f 41/1/2 42/1/2 43/1/2
f 43/1/2 42/1/2 44/1/2
f 45/1/2 46/1/2 47/1/2
f 47/1/2 46/1/2 48/1/2
f 49/1/2 50/1/2 53/1/2
f 53/1/2 50/1/2 54/1/2
f 51/1/2 52/1/2 55/1/2
f 55/1/2 52/1/2 56/1/2
f 57/2/2 58/2/2 59/2/2
f 59/2/2 58/2/2 60/2/2
f 61/2/2 62/2/2 63/2/2
f 63/2/2 62/2/2 64/2/2
f 65/1/2 66/1/2 69/1/2
f 67/1/2 68/1/2 70/1/2
f 65/1/2 69/1/2 71/1/2
f 69/1/2 70/1/2 71/1/2
f 70/1/2 68/1/2 72/1/2
f 71/1/2 70/1/2 72/1/2
f 77/2/3 74/2/3 73/2/3
f 78/2/3 74/2/3 77/2/3
f 79/2/3 76/2/3 75/2/3
f 80/2/3 76/2/3 79/2/3
f 81/2/3 77/2/3 73/2/3
f 81/4/3 78/4/3 77/4/3
f 82/2/3 74/2/3 78/2/3
f 82/4/3 78/4/3 81/4/3
f 83/4/3 80/4/3 79/4/3
f 83/2/3 79/2/3 75/2/3
f 84/2/3 76/2/3 80/2/3
f 84/4/3 80/4/3 83/4/3
f 85/2/3 81/2/3 73/2/3
f 85/2/3 82/2/3 81/2/3
f 86/2/3 74/2/3 82/2/3
f 86/2/3 82/2/3 85/2/3
f 87/2/3 83/2/3 75/2/3
f 87/2/3 84/2/3 83/2/3
f 88/2/3 76/2/3 84/2/3
f 88/2/3 84/2/3 87/2/3
f 91/1/3 90/1/3 89/1/3
f 92/1/3 90/1/3 91/1/3
f 93/1/3 90/1/3 92/1/3
f 94/1/3 90/1/3 93/1/3
f 95/1/3 90/1/3 94/1/3
f 96/1/3 90/1/3 95/1/3
f 97/1/3 91/1/3 89/1/3
f 98/1/3 91/1/3 97/1/3
f 99/1/3 91/1/3 98/1/3
f 100/1/3 91/1/3 99/1/3
f 101/1/3 91/1/3 100/1/3
f 102/1/3 91/1/3 101/1/3
f 104/1/3 99/1/3 98/1/3
f 105/1/3 99/1/3 104/1/3
f 106/1/3 101/1/3 100/1/3
f 107/1/3 101/1/3 106/1/3
f 108/1/3 91/1/3 102/1/3
f 109/1/3 107/1/3 106/1/3
f 109/1/3 108/1/3 107/1/3
f 109/1/3 91/1/3 108/1/3
f 109/1/3 105/1/3 104/1/3
f 109/1/3 106/1/3 105/1/3
f 109/1/3 104/1/3 103/1/3
f 110/1/3 93/1/3 92/1/3
f 111/1/3 93/1/3 110/1/3
f 112/1/3 95/1/3 94/1/3
f 113/1/3 95/1/3 112/1/3
f 114/1/3 90/1/3 96/1/3
f 115/1/3 113/1/3 112/1/3
f 115/1/3 114/1/3 113/1/3
f 115/1/3 111/1/3 110/1/3
f 115/1/3 109/1/3 103/1/3
f 115/1/3 112/1/3 111/1/3
f 115/1/3 110/1/3 109/1/3
f 116/1/3 90/1/3 114/1/3
f 116/1/3 114/1/3 115/1/3
f 119/1/3 118/1/3 117/1/3
f 120/1/3 118/1/3 119/1/3
f 123/1/3 122/1/3 121/1/3
f 124/1/3 122/1/3 123/1/3
f 131/1/3 126/1/3 125/1/3
f 132/1/3 126/1/3 131/1/3
f 133/1/3 128/1/3 127/1/3
f 134/1/3 128/1/3 133/1/3
f 135/1/3 130/1/3 129/1/3
f 136/1/3 130/1/3 135/1/3
f 137/1/4 138/1/4 139/1/4
f 139/1/4 138/1/4 140/1/4
f 141/1/4 142/1/4 143/1/4
f 143/1/4 142/1/4 144/1/4
f 145/1/4 146/1/4 147/1/4
f 147/1/4 146/1/4 148/1/4
f 148/1/4 146/1/4 150/1/4
f 149/1/4 150/1/4 151/1/4
f 150/1/4 146/1/4 152/1/4
f 151/1/4 150/1/4 152/1/4
f 157/1/5 154/1/5 153/1/5
f 158/1/5 154/1/5 157/1/5
f 159/1/5 156/1/5 155/1/5
f 160/1/5 156/1/5 159/1/5
f 165/1/5 162/1/5 161/1/5
f 166/1/5 162/1/5 165/1/5
f 167/1/5 164/1/5 163/1/5
f 168/1/5 164/1/5 167/1/5
f 172/1/5 170/1/5 169/1/5
f 173/1/5 170/1/5 172/1/5
f 175/1/5 172/1/5 171/1/5
f 175/1/5 174/1/5 173/1/5
f 175/1/5 173/1/5 172/1/5
f 176/1/5 174/1/5 175/1/5
f 177/1/5 174/1/5 176/1/5
f 178/1/5 174/1/5 177/1/5
f 179/1/5 177/1/5 176/1/5
f 180/1/5 177/1/5 179/1/5
f 183/2/5 182/2/5 181/2/5
f 184/2/5 182/2/5 183/2/5
f 187/2/5 186/2/5 185/2/5
f 188/2/5 186/2/5 187/2/5
f 191/1/5 190/1/5 189/1/5
f 192/1/5 190/1/5 191/1/5
f 195/1/5 194/1/5 193/1/5
f 196/1/5 194/1/5 195/1/5
f 199/1/5 198/1/5 197/1/5
f 200/1/5 198/1/5 199/1/5
f 201/2/6 202/2/6 203/2/6
f 203/2/6 202/2/6 204/2/6
f 205/2/6 206/2/6 207/2/6
f 207/2/6 206/2/6 208/2/6
f 209/1/6 210/1/6 211/1/6
f 211/1/6 210/1/6 212/1/6
f 213/1/6 214/1/6 215/1/6
f 215/1/6 214/1/6 216/1/6
f 217/1/6 218/1/6 219/1/6
f 219/1/6 218/1/6 220/1/6
f 221/1/6 222/1/6 223/1/6
f 223/1/6 222/1/6 224/1/6
