# MagicaVoxel @ Ephtracy

# group
g divan

# material
mtllib divan.mtl
usemtl palette

# normals
vn -1 0 0
vn 1 0 0
vn 0 0 1
vn 0 0 -1
vn 0 -1 0
vn 0 1 0

# texcoords
vt 0.150391 0.5
vt 0.158203 0.5
vt 0.306641 0.5
vt 0.341797 0.5
vt 0.654297 0.5

# verts
v -60 6 21
v -60 6 -29
v -60 26 21
v -60 26 -29
v -58 0 21
v -58 0 15
v -58 0 -23
v -58 0 -29
v -58 4 15
v -58 4 -23
v -58 6 21
v -58 6 -29
v -48 8 25
v -48 8 23
v -48 8 21
v -48 10 23
v -48 10 21
v -48 14 23
v -48 14 21
v -48 16 25
v -48 16 21
v -48 26 -7
v -48 26 -9
v -48 26 -19
v -48 26 -21
v -48 26 -27
v -48 26 -29
v -48 42 -21
v -48 42 -27
v -48 42 -29
v -48 44 -9
v -48 44 -19
v -48 46 -7
v -48 46 -19
v -46 26 -19
v -46 26 -21
v -46 40 -19
v -46 40 -21
v -18 16 -7
v -18 16 -9
v -18 16 -11
v -18 38 -11
v -18 38 -19
v -18 40 -19
v -18 44 -9
v -18 44 -19
v -18 46 -7
v -18 46 -19
v 22 16 -7
v 22 16 -9
v 22 16 -11
v 22 38 -11
v 22 38 -19
v 22 40 -19
v 22 44 -9
v 22 44 -19
v 22 46 -7
v 22 46 -19
v 48 16 21
v 48 16 19
v 48 16 -7
v 48 26 21
v 48 26 19
v 48 26 -7
v 52 0 21
v 52 0 15
v 52 0 -23
v 52 0 -29
v 52 4 21
v 52 4 15
v 52 4 -23
v 52 4 -29
v -52 0 21
v -52 0 15
v -52 0 -23
v -52 0 -29
v -52 4 21
v -52 4 15
v -52 4 -23
v -52 4 -29
v -48 16 21
v -48 16 19
v -48 16 -7
v -48 26 21
v -48 26 19
v -48 26 -7
v -22 16 -7
v -22 16 -9
v -22 16 -11
v -22 38 -11
v -22 38 -19
v -22 40 -19
v -22 44 -9
v -22 44 -19
v -22 46 -7
v -22 46 -19
v 18 16 -7
v 18 16 -9
v 18 16 -11
v 18 38 -11
v 18 38 -19
v 18 40 -19
v 18 44 -9
v 18 44 -19
v 18 46 -7
v 18 46 -19
v 46 26 -19
v 46 26 -21
v 46 40 -19
v 46 40 -21
v 48 8 25
v 48 8 23
v 48 8 21
v 48 10 23
v 48 10 21
v 48 14 23
v 48 14 21
v 48 16 25
v 48 16 21
v 48 26 -7
v 48 26 -9
v 48 26 -19
v 48 26 -21
v 48 26 -27
v 48 26 -29
v 48 42 -21
v 48 42 -27
v 48 42 -29
v 48 44 -9
v 48 44 -19
v 48 46 -7
v 48 46 -19
v 58 0 21
v 58 0 15
v 58 0 -23
v 58 0 -29
v 58 4 15
v 58 4 -23
v 58 6 21
v 58 6 -29
v 60 6 21
v 60 6 -29
v 60 26 21
v 60 26 -29
v -48 8 25
v -48 16 25
v 48 8 25
v 48 16 25
v -60 6 21
v -60 26 21
v -58 0 21
v -58 6 21
v -52 0 21
v -52 4 21
v -48 8 21
v -48 10 21
v -48 14 21
v -48 16 21
v -48 26 21
v 48 8 21
v 48 10 21
v 48 14 21
v 48 16 21
v 48 26 21
v 52 0 21
v 52 4 21
v 58 0 21
v 58 6 21
v 60 6 21
v 60 26 21
v -48 16 -7
v -48 26 -7
v -48 46 -7
v -22 16 -7
v -22 46 -7
v -18 16 -7
v -18 46 -7
v 18 16 -7
v 18 46 -7
v 22 16 -7
v 22 46 -7
v 48 16 -7
v 48 26 -7
v 48 46 -7
v -22 16 -11
v -22 38 -11
v -18 16 -11
v -18 38 -11
v 18 16 -11
v 18 38 -11
v 22 16 -11
v 22 38 -11
v -22 38 -19
v -22 40 -19
v -18 38 -19
v -18 40 -19
v 18 38 -19
v 18 40 -19
v 22 38 -19
v 22 40 -19
v -48 26 -21
v -48 42 -21
v -46 26 -21
v -46 40 -21
v 46 26 -21
v 46 40 -21
v 48 26 -21
v 48 42 -21
v -58 0 -23
v -58 4 -23
v -52 0 -23
v -52 4 -23
v 52 0 -23
v 52 4 -23
v 58 0 -23
v 58 4 -23
v -58 0 15
v -58 4 15
v -56 2 15
v -56 4 15
v -54 2 15
v -54 4 15
v -52 0 15
v -52 4 15
v 52 0 15
v 52 4 15
v 54 2 15
v 54 4 15
v 56 2 15
v 56 4 15
v 58 0 15
v 58 4 15
v -48 26 -19
v -48 44 -19
v -48 46 -19
v -46 26 -19
v -46 40 -19
v -22 40 -19
v -22 44 -19
v -22 46 -19
v -18 40 -19
v -18 44 -19
v -18 46 -19
v 18 40 -19
v 18 44 -19
v 18 46 -19
v 22 40 -19
v 22 44 -19
v 22 46 -19
v 46 26 -19
v 46 40 -19
v 48 26 -19
v 48 44 -19
v 48 46 -19
v -60 6 -29
v -60 26 -29
v -58 0 -29
v -58 6 -29
v -52 0 -29
v -52 4 -29
v -48 26 -29
v -48 42 -29
v 48 26 -29
v 48 42 -29
v 52 0 -29
v 52 4 -29
v 58 0 -29
v 58 6 -29
v 60 6 -29
v 60 26 -29
v -58 0 21
v -52 0 21
v 52 0 21
v 58 0 21
v -58 0 15
v -52 0 15
v 52 0 15
v 58 0 15
v -58 0 -23
v -52 0 -23
v 52 0 -23
v 58 0 -23
v -58 0 -29
v -52 0 -29
v 52 0 -29
v 58 0 -29
v -52 4 21
v 52 4 21
v -58 4 15
v -56 4 15
v -54 4 15
v -52 4 15
v 52 4 15
v 54 4 15
v 56 4 15
v 58 4 15
v -58 4 -23
v -52 4 -23
v 52 4 -23
v 58 4 -23
v -52 4 -29
v 52 4 -29
v -60 6 21
v -58 6 21
v 58 6 21
v 60 6 21
v -60 6 -29
v -58 6 -29
v 58 6 -29
v 60 6 -29
v -48 8 25
v 48 8 25
v -48 8 23
v 48 8 23
v -48 8 21
v 48 8 21
v -48 16 25
v 48 16 25
v -48 16 21
v 48 16 21
v -48 16 19
v 48 16 19
v -48 16 -7
v -22 16 -7
v -18 16 -7
v 18 16 -7
v 22 16 -7
v 48 16 -7
v -22 16 -9
v -18 16 -9
v 18 16 -9
v 22 16 -9
v -22 16 -11
v -18 16 -11
v 18 16 -11
v 22 16 -11
v -60 26 21
v -48 26 21
v 48 26 21
v 60 26 21
v -58 26 19
v -48 26 19
v 48 26 19
v 58 26 19
v -48 26 -7
v 48 26 -7
v -48 26 -9
v 48 26 -9
v -48 26 -19
v -46 26 -19
v 46 26 -19
v 48 26 -19
v -48 26 -21
v -46 26 -21
v 46 26 -21
v 48 26 -21
v -58 26 -27
v -48 26 -27
v 48 26 -27
v 58 26 -27
v -60 26 -29
v -48 26 -29
v 48 26 -29
v 60 26 -29
v -22 38 -11
v -18 38 -11
v 18 38 -11
v 22 38 -11
v -22 38 -19
v -18 38 -19
v 18 38 -19
v 22 38 -19
v -46 40 -19
v -22 40 -19
v -18 40 -19
v 18 40 -19
v 22 40 -19
v 46 40 -19
v -46 40 -21
v 46 40 -21
v -48 42 -21
v 48 42 -21
v -48 42 -27
v 48 42 -27
v -48 42 -29
v 48 42 -29
v -48 46 -7
v -22 46 -7
v -18 46 -7
v 18 46 -7
v 22 46 -7
v 48 46 -7
v -48 46 -19
v -22 46 -19
v -18 46 -19
v 18 46 -19
v 22 46 -19
v 48 46 -19

# faces
f 3/4/1 2/4/1 1/4/1
f 4/4/1 2/4/1 3/4/1
f 9/4/1 6/4/1 5/4/1
f 10/4/1 8/4/1 7/4/1
f 11/4/1 9/4/1 5/4/1
f 11/4/1 10/4/1 9/4/1
f 12/4/1 8/4/1 10/4/1
f 12/4/1 10/4/1 11/4/1
f 16/1/1 14/1/1 13/1/1
f 16/4/1 15/4/1 14/4/1
f 17/4/1 15/4/1 16/4/1
f 18/1/1 16/1/1 13/1/1
f 18/2/1 17/2/1 16/2/1
f 19/2/1 17/2/1 18/2/1
f 20/1/1 18/1/1 13/1/1
f 20/1/1 19/1/1 18/1/1
f 21/1/1 19/1/1 20/1/1
f 28/5/1 26/5/1 25/5/1
f 29/4/1 27/4/1 26/4/1
f 29/5/1 26/5/1 28/5/1
f 30/4/1 27/4/1 29/4/1
f 31/5/1 23/5/1 22/5/1
f 31/1/1 24/1/1 23/1/1
f 32/1/1 24/1/1 31/1/1
f 33/5/1 31/5/1 22/5/1
f 33/5/1 32/5/1 31/5/1
f 34/5/1 32/5/1 33/5/1
f 37/5/1 36/5/1 35/5/1
f 38/5/1 36/5/1 37/5/1
f 42/1/1 41/1/1 40/1/1
f 44/1/1 43/1/1 42/1/1
f 45/5/1 40/5/1 39/5/1
f 45/1/1 42/1/1 40/1/1
f 45/1/1 44/1/1 42/1/1
f 46/1/1 44/1/1 45/1/1
f 47/5/1 45/5/1 39/5/1
f 47/5/1 46/5/1 45/5/1
f 48/5/1 46/5/1 47/5/1
f 52/1/1 51/1/1 50/1/1
f 54/1/1 53/1/1 52/1/1
f 55/5/1 50/5/1 49/5/1
f 55/1/1 52/1/1 50/1/1
f 55/1/1 54/1/1 52/1/1
f 56/1/1 54/1/1 55/1/1
f 57/5/1 55/5/1 49/5/1
f 57/5/1 56/5/1 55/5/1
f 58/5/1 56/5/1 57/5/1
f 62/4/1 60/4/1 59/4/1
f 63/1/1 61/1/1 60/1/1
f 63/4/1 60/4/1 62/4/1
f 64/1/1 61/1/1 63/1/1
f 69/4/1 66/4/1 65/4/1
f 70/4/1 66/4/1 69/4/1
f 71/4/1 68/4/1 67/4/1
f 72/4/1 68/4/1 71/4/1
f 73/4/2 74/4/2 77/4/2
f 77/4/2 74/4/2 78/4/2
f 75/4/2 76/4/2 79/4/2
f 79/4/2 76/4/2 80/4/2
f 81/4/2 82/4/2 84/4/2
f 82/1/2 83/1/2 85/1/2
f 84/4/2 82/4/2 85/4/2
f 85/1/2 83/1/2 86/1/2
f 88/1/2 89/1/2 90/1/2
f 90/1/2 91/1/2 92/1/2
f 87/5/2 88/5/2 93/5/2
f 88/1/2 90/1/2 93/1/2
f 90/1/2 92/1/2 93/1/2
f 93/1/2 92/1/2 94/1/2
f 87/5/2 93/5/2 95/5/2
f 93/5/2 94/5/2 95/5/2
f 95/5/2 94/5/2 96/5/2
f 98/1/2 99/1/2 100/1/2
f 100/1/2 101/1/2 102/1/2
f 97/5/2 98/5/2 103/5/2
f 98/1/2 100/1/2 103/1/2
f 100/1/2 102/1/2 103/1/2
f 103/1/2 102/1/2 104/1/2
f 97/5/2 103/5/2 105/5/2
f 103/5/2 104/5/2 105/5/2
f 105/5/2 104/5/2 106/5/2
f 107/5/2 108/5/2 109/5/2
f 109/5/2 108/5/2 110/5/2
f 111/1/2 112/1/2 114/1/2
f 112/4/2 113/4/2 114/4/2
f 114/4/2 113/4/2 115/4/2
f 111/1/2 114/1/2 116/1/2
f 114/2/2 115/2/2 116/2/2
f 116/2/2 115/2/2 117/2/2
f 111/1/2 116/1/2 118/1/2
f 116/1/2 117/1/2 118/1/2
f 118/1/2 117/1/2 119/1/2
f 123/5/2 124/5/2 126/5/2
f 124/4/2 125/4/2 127/4/2
f 126/5/2 124/5/2 127/5/2
f 127/4/2 125/4/2 128/4/2
f 120/5/2 121/5/2 129/5/2
f 121/1/2 122/1/2 129/1/2
f 129/1/2 122/1/2 130/1/2
f 120/5/2 129/5/2 131/5/2
f 129/5/2 130/5/2 131/5/2
f 131/5/2 130/5/2 132/5/2
f 133/4/2 134/4/2 137/4/2
f 135/4/2 136/4/2 138/4/2
f 133/4/2 137/4/2 139/4/2
f 137/4/2 138/4/2 139/4/2
f 138/4/2 136/4/2 140/4/2
f 139/4/2 138/4/2 140/4/2
f 141/4/2 142/4/2 143/4/2
f 143/4/2 142/4/2 144/4/2
f 147/1/3 146/1/3 145/1/3
f 148/1/3 146/1/3 147/1/3
f 152/4/3 150/4/3 149/4/3
f 153/4/3 152/4/3 151/4/3
f 154/4/3 152/4/3 153/4/3
f 155/4/3 150/4/3 152/4/3
f 155/4/3 152/4/3 154/4/3
f 156/4/3 150/4/3 155/4/3
f 157/4/3 150/4/3 156/4/3
f 158/4/3 150/4/3 157/4/3
f 159/4/3 150/4/3 158/4/3
f 160/4/3 155/4/3 154/4/3
f 166/4/3 160/4/3 154/4/3
f 166/4/3 164/4/3 163/4/3
f 166/4/3 163/4/3 162/4/3
f 166/4/3 162/4/3 161/4/3
f 166/4/3 161/4/3 160/4/3
f 167/4/3 166/4/3 165/4/3
f 168/4/3 164/4/3 166/4/3
f 168/4/3 166/4/3 167/4/3
f 169/4/3 164/4/3 168/4/3
f 170/4/3 164/4/3 169/4/3
f 174/5/3 172/5/3 171/5/3
f 174/5/3 173/5/3 172/5/3
f 175/5/3 173/5/3 174/5/3
f 178/5/3 177/5/3 176/5/3
f 179/5/3 177/5/3 178/5/3
f 182/5/3 181/5/3 180/5/3
f 183/5/3 181/5/3 182/5/3
f 184/5/3 181/5/3 183/5/3
f 187/1/3 186/1/3 185/1/3
f 188/1/3 186/1/3 187/1/3
f 191/1/3 190/1/3 189/1/3
f 192/1/3 190/1/3 191/1/3
f 195/5/3 194/5/3 193/5/3
f 196/5/3 194/5/3 195/5/3
f 199/5/3 198/5/3 197/5/3
f 200/5/3 198/5/3 199/5/3
f 203/5/3 202/5/3 201/5/3
f 204/5/3 202/5/3 203/5/3
f 206/5/3 202/5/3 204/5/3
f 207/5/3 206/5/3 205/5/3
f 208/5/3 202/5/3 206/5/3
f 208/5/3 206/5/3 207/5/3
f 211/4/3 210/4/3 209/4/3
f 212/4/3 210/4/3 211/4/3
f 215/4/3 214/4/3 213/4/3
f 216/4/3 214/4/3 215/4/3
f 217/4/4 218/4/4 219/4/4
f 219/4/4 218/4/4 220/4/4
f 217/4/4 219/4/4 221/4/4
f 219/3/4 220/3/4 221/3/4
f 221/3/4 220/3/4 222/3/4
f 217/4/4 221/4/4 223/4/4
f 221/4/4 222/4/4 223/4/4
f 223/4/4 222/4/4 224/4/4
f 225/4/4 226/4/4 227/4/4
f 227/4/4 226/4/4 228/4/4
f 225/4/4 227/4/4 229/4/4
f 227/3/4 228/3/4 229/3/4
f 229/3/4 228/3/4 230/3/4
f 225/4/4 229/4/4 231/4/4
f 229/4/4 230/4/4 231/4/4
f 231/4/4 230/4/4 232/4/4
f 233/1/4 234/1/4 236/1/4
f 236/1/4 234/1/4 237/1/4
f 237/1/4 234/1/4 238/1/4
f 234/5/4 235/5/4 239/5/4
f 238/1/4 234/1/4 239/1/4
f 239/5/4 235/5/4 240/5/4
f 241/1/4 242/1/4 244/1/4
f 242/5/4 243/5/4 245/5/4
f 244/1/4 242/1/4 245/1/4
f 245/5/4 243/5/4 246/5/4
f 247/1/4 248/1/4 251/1/4
f 250/1/4 251/1/4 252/1/4
f 248/5/4 249/5/4 253/5/4
f 252/1/4 251/1/4 253/1/4
f 251/1/4 248/1/4 253/1/4
f 253/5/4 249/5/4 254/5/4
f 255/4/4 256/4/4 258/4/4
f 257/4/4 258/4/4 259/4/4
f 259/4/4 258/4/4 260/4/4
f 258/4/4 256/4/4 261/4/4
f 260/4/4 258/4/4 261/4/4
f 260/4/4 261/4/4 263/4/4
f 261/4/4 262/4/4 263/4/4
f 263/4/4 262/4/4 264/4/4
f 260/4/4 263/4/4 266/4/4
f 265/4/4 266/4/4 267/4/4
f 266/4/4 263/4/4 268/4/4
f 267/4/4 266/4/4 268/4/4
f 268/4/4 263/4/4 269/4/4
f 269/4/4 263/4/4 270/4/4
f 275/4/5 272/4/5 271/4/5
f 276/4/5 272/4/5 275/4/5
f 277/4/5 274/4/5 273/4/5
f 278/4/5 274/4/5 277/4/5
f 283/4/5 280/4/5 279/4/5
f 284/4/5 280/4/5 283/4/5
f 285/4/5 282/4/5 281/4/5
f 286/4/5 282/4/5 285/4/5
f 292/4/5 288/4/5 287/4/5
f 293/4/5 288/4/5 292/4/5
f 297/4/5 291/4/5 290/4/5
f 297/4/5 296/4/5 295/4/5
f 297/4/5 295/4/5 294/4/5
f 297/4/5 294/4/5 293/4/5
f 297/4/5 293/4/5 292/4/5
f 297/4/5 292/4/5 291/4/5
f 297/4/5 290/4/5 289/4/5
f 298/4/5 296/4/5 297/4/5
f 299/4/5 296/4/5 298/4/5
f 300/4/5 296/4/5 299/4/5
f 301/4/5 299/4/5 298/4/5
f 302/4/5 299/4/5 301/4/5
f 307/4/5 304/4/5 303/4/5
f 308/4/5 304/4/5 307/4/5
f 309/4/5 306/4/5 305/4/5
f 310/4/5 306/4/5 309/4/5
f 313/1/5 312/1/5 311/1/5
f 314/1/5 312/1/5 313/1/5
f 315/4/5 314/4/5 313/4/5
f 316/4/5 314/4/5 315/4/5
f 317/1/6 318/1/6 319/1/6
f 319/1/6 318/1/6 320/1/6
f 319/1/6 320/1/6 321/1/6
f 321/1/6 320/1/6 322/1/6
f 321/1/6 322/1/6 323/1/6
f 323/1/6 322/1/6 324/1/6
f 324/1/6 322/1/6 325/1/6
f 325/1/6 322/1/6 326/1/6
f 326/1/6 322/1/6 327/1/6
f 327/1/6 322/1/6 328/1/6
f 324/1/6 325/1/6 329/1/6
f 329/1/6 325/1/6 330/1/6
f 326/1/6 327/1/6 331/1/6
f 331/1/6 327/1/6 332/1/6
f 329/1/6 330/1/6 333/1/6
f 333/1/6 330/1/6 334/1/6
f 331/1/6 332/1/6 335/1/6
f 335/1/6 332/1/6 336/1/6
f 337/4/6 338/4/6 341/4/6
f 341/4/6 338/4/6 342/4/6
f 339/4/6 340/4/6 343/4/6
f 343/4/6 340/4/6 344/4/6
f 341/1/6 342/1/6 345/1/6
f 343/1/6 344/1/6 346/1/6
f 341/1/6 345/1/6 347/1/6
f 346/1/6 344/1/6 348/1/6
f 341/1/6 347/1/6 349/1/6
f 348/1/6 344/1/6 352/1/6
f 349/1/6 350/1/6 353/1/6
f 341/1/6 349/1/6 353/1/6
f 353/1/6 350/1/6 354/1/6
f 351/1/6 352/1/6 355/1/6
f 352/1/6 344/1/6 356/1/6
f 355/1/6 352/1/6 356/1/6
f 337/4/6 341/4/6 357/4/6
f 341/1/6 353/1/6 357/1/6
f 357/1/6 353/1/6 358/1/6
f 356/1/6 344/1/6 359/1/6
f 344/4/6 340/4/6 360/4/6
f 359/1/6 344/1/6 360/1/6
f 357/4/6 358/4/6 361/4/6
f 337/4/6 357/4/6 361/4/6
f 361/4/6 358/4/6 362/4/6
f 359/4/6 360/4/6 363/4/6
f 360/4/6 340/4/6 364/4/6
f 363/4/6 360/4/6 364/4/6
f 365/1/6 366/1/6 369/1/6
f 369/1/6 366/1/6 370/1/6
f 367/1/6 368/1/6 371/1/6
f 371/1/6 368/1/6 372/1/6
f 373/5/6 374/5/6 379/5/6
f 377/5/6 378/5/6 379/5/6
f 376/5/6 377/5/6 379/5/6
f 375/5/6 376/5/6 379/5/6
f 374/5/6 375/5/6 379/5/6
f 379/5/6 378/5/6 380/5/6
f 381/5/6 382/5/6 383/5/6
f 383/5/6 382/5/6 384/5/6
f 383/4/6 384/4/6 385/4/6
f 385/4/6 384/4/6 386/4/6
f 387/5/6 388/5/6 393/5/6
f 393/5/6 388/5/6 394/5/6
f 389/5/6 390/5/6 395/5/6
f 395/5/6 390/5/6 396/5/6
f 391/5/6 392/5/6 397/5/6
f 397/5/6 392/5/6 398/5/6
