# MagicaVoxel @ Ephtracy

# material
mtllib bottle.mtl
usemtl palette

# normals
vn -1 0 0
vn 1 0 0
vn 0 0 1
vn 0 0 -1
vn 0 -1 0
vn 0 1 0

# texcoords
vt 0.306641 0.5
vt 0.587891 0.5
vt 0.658203 0.5
vt 0.994141 0.5

# verts
v -13 0 7
v -13 0 -0
v -13 40 7
v -13 40 -0
v -12 0 9
v -12 0 7
v -12 0 -0
v -12 0 -2
v -12 1 8
v -12 1 7
v -12 39 8
v -12 39 7
v -12 40 9
v -12 40 7
v -12 40 -0
v -12 40 -2
v -11 0 10
v -11 0 9
v -11 0 -2
v -11 0 -3
v -11 40 10
v -11 40 9
v -11 40 -2
v -11 40 -3
v -10 0 11
v -10 0 10
v -10 0 -3
v -10 0 -4
v -10 40 11
v -10 40 10
v -10 40 -3
v -10 40 -4
v -9 0 12
v -9 0 11
v -9 0 -4
v -9 0 -5
v -9 40 12
v -9 40 11
v -9 40 6
v -9 40 1
v -9 40 -4
v -9 40 -5
v -9 43 6
v -9 43 1
v -9 47 5
v -9 47 2
v -9 48 6
v -9 48 5
v -9 48 2
v -9 48 1
v -9 50 6
v -9 50 1
v -8 40 7
v -8 40 6
v -8 40 1
v -8 40 -0
v -8 43 7
v -8 43 6
v -8 43 1
v -8 43 -0
v -8 47 7
v -8 47 6
v -8 47 1
v -8 47 -0
v -8 48 6
v -8 48 1
v -8 50 7
v -8 50 6
v -8 50 1
v -8 50 -0
v -7 0 13
v -7 0 12
v -7 0 -5
v -7 0 -6
v -7 40 13
v -7 40 12
v -7 40 8
v -7 40 7
v -7 40 -0
v -7 40 -1
v -7 40 -5
v -7 40 -6
v -7 43 8
v -7 43 7
v -7 43 -0
v -7 43 -1
v -7 47 8
v -7 47 7
v -7 47 -0
v -7 47 -1
v -7 50 8
v -7 50 7
v -7 50 -0
v -7 50 -1
v -6 40 9
v -6 40 8
v -6 40 -1
v -6 40 -2
v -6 43 9
v -6 43 8
v -6 43 -1
v -6 43 -2
v -6 47 8
v -6 47 -1
v -6 48 9
v -6 48 8
v -6 48 -1
v -6 48 -2
v -6 50 9
v -6 50 8
v -6 50 -1
v -6 50 -2
v -1 40 9
v -1 40 8
v -1 40 -1
v -1 40 -2
v -1 43 9
v -1 43 8
v -1 43 -1
v -1 43 -2
v -1 47 8
v -1 47 -1
v -1 48 9
v -1 48 8
v -1 48 -1
v -1 48 -2
v -1 50 9
v -1 50 8
v -1 50 -1
v -1 50 -2
v 0 0 13
v 0 0 12
v 0 0 -5
v 0 0 -6
v 0 40 13
v 0 40 12
v 0 40 8
v 0 40 7
v 0 40 -0
v 0 40 -1
v 0 40 -5
v 0 40 -6
v 0 43 8
v 0 43 7
v 0 43 -0
v 0 43 -1
v 0 47 8
v 0 47 7
v 0 47 -0
v 0 47 -1
v 0 50 8
v 0 50 7
v 0 50 -0
v 0 50 -1
v 1 40 7
v 1 40 6
v 1 40 1
v 1 40 -0
v 1 43 7
v 1 43 6
v 1 43 1
v 1 43 -0
v 1 47 7
v 1 47 6
v 1 47 1
v 1 47 -0
v 1 48 6
v 1 48 1
v 1 50 7
v 1 50 6
v 1 50 1
v 1 50 -0
v 2 0 12
v 2 0 11
v 2 0 -4
v 2 0 -5
v 2 40 12
v 2 40 11
v 2 40 6
v 2 40 1
v 2 40 -4
v 2 40 -5
v 2 43 6
v 2 43 1
v 2 47 5
v 2 47 2
v 2 48 6
v 2 48 5
v 2 48 2
v 2 48 1
v 2 50 6
v 2 50 1
v 3 0 11
v 3 0 10
v 3 0 -3
v 3 0 -4
v 3 40 11
v 3 40 10
v 3 40 -3
v 3 40 -4
v 4 0 10
v 4 0 9
v 4 0 -2
v 4 0 -3
v 4 40 10
v 4 40 9
v 4 40 -2
v 4 40 -3
v 5 0 9
v 5 0 7
v 5 0 -0
v 5 0 -2
v 5 40 9
v 5 40 7
v 5 40 -0
v 5 40 -2
v 6 0 7
v 6 0 -0
v 6 40 7
v 6 40 -0
v -7 0 13
v -7 40 13
v 0 0 13
v 0 40 13
v -9 0 12
v -9 40 12
v -7 0 12
v -7 40 12
v 0 0 12
v 0 40 12
v 2 0 12
v 2 40 12
v -10 0 11
v -10 40 11
v -9 0 11
v -9 40 11
v 2 0 11
v 2 40 11
v 3 0 11
v 3 40 11
v -11 0 10
v -11 40 10
v -10 0 10
v -10 40 10
v 3 0 10
v 3 40 10
v 4 0 10
v 4 40 10
v -12 0 9
v -12 40 9
v -11 0 9
v -11 40 9
v -6 40 9
v -6 43 9
v -6 48 9
v -6 50 9
v -5 47 9
v -5 48 9
v -2 47 9
v -2 48 9
v -1 40 9
v -1 43 9
v -1 48 9
v -1 50 9
v 4 0 9
v 4 40 9
v 5 0 9
v 5 40 9
v -7 40 8
v -7 43 8
v -7 47 8
v -7 50 8
v -6 40 8
v -6 43 8
v -6 47 8
v -6 48 8
v -6 50 8
v -1 40 8
v -1 43 8
v -1 47 8
v -1 48 8
v -1 50 8
v 0 40 8
v 0 43 8
v 0 47 8
v 0 50 8
v -13 0 7
v -13 40 7
v -12 0 7
v -12 1 7
v -12 39 7
v -12 40 7
v -8 40 7
v -8 43 7
v -8 47 7
v -8 50 7
v -7 40 7
v -7 43 7
v -7 47 7
v -7 50 7
v 0 40 7
v 0 43 7
v 0 47 7
v 0 50 7
v 1 40 7
v 1 43 7
v 1 47 7
v 1 50 7
v 5 0 7
v 5 40 7
v 6 0 7
v 6 40 7
v -9 40 6
v -9 43 6
v -9 48 6
v -9 50 6
v -8 40 6
v -8 43 6
v -8 47 6
v -8 48 6
v -8 50 6
v 1 40 6
v 1 43 6
v 1 47 6
v 1 48 6
v 1 50 6
v 2 40 6
v 2 43 6
v 2 48 6
v 2 50 6
v -9 40 1
v -9 43 1
v -9 48 1
v -9 50 1
v -8 40 1
v -8 43 1
v -8 47 1
v -8 48 1
v -8 50 1
v 1 40 1
v 1 43 1
v 1 47 1
v 1 48 1
v 1 50 1
v 2 40 1
v 2 43 1
v 2 48 1
v 2 50 1
v -13 0 -0
v -13 40 -0
v -12 0 -0
v -12 40 -0
v -8 40 -0
v -8 43 -0
v -8 47 -0
v -8 50 -0
v -7 40 -0
v -7 43 -0
v -7 47 -0
v -7 50 -0
v 0 40 -0
v 0 43 -0
v 0 47 -0
v 0 50 -0
v 1 40 -0
v 1 43 -0
v 1 47 -0
v 1 50 -0
v 5 0 -0
v 5 40 -0
v 6 0 -0
v 6 40 -0
v -7 40 -1
v -7 43 -1
v -7 47 -1
v -7 50 -1
v -6 40 -1
v -6 43 -1
v -6 47 -1
v -6 48 -1
v -6 50 -1
v -1 40 -1
v -1 43 -1
v -1 47 -1
v -1 48 -1
v -1 50 -1
v 0 40 -1
v 0 43 -1
v 0 47 -1
v 0 50 -1
v -12 0 -2
v -12 40 -2
v -11 0 -2
v -11 40 -2
v -6 40 -2
v -6 43 -2
v -6 48 -2
v -6 50 -2
v -5 47 -2
v -5 48 -2
v -2 47 -2
v -2 48 -2
v -1 40 -2
v -1 43 -2
v -1 48 -2
v -1 50 -2
v 4 0 -2
v 4 40 -2
v 5 0 -2
v 5 40 -2
v -11 0 -3
v -11 40 -3
v -10 0 -3
v -10 40 -3
v 3 0 -3
v 3 40 -3
v 4 0 -3
v 4 40 -3
v -10 0 -4
v -10 40 -4
v -9 0 -4
v -9 40 -4
v 2 0 -4
v 2 40 -4
v 3 0 -4
v 3 40 -4
v -9 0 -5
v -9 40 -5
v -7 0 -5
v -7 40 -5
v 0 0 -5
v 0 40 -5
v 2 0 -5
v 2 40 -5
v -7 0 -6
v -7 40 -6
v 0 0 -6
v 0 40 -6
v -7 0 13
v 0 0 13
v -9 0 12
v -7 0 12
v 0 0 12
v 2 0 12
v -10 0 11
v -9 0 11
v 2 0 11
v 3 0 11
v -11 0 10
v -10 0 10
v 3 0 10
v 4 0 10
v -12 0 9
v -11 0 9
v 4 0 9
v 5 0 9
v -13 0 7
v -12 0 7
v 5 0 7
v 6 0 7
v -13 0 -0
v -12 0 -0
v 5 0 -0
v 6 0 -0
v -12 0 -2
v -11 0 -2
v 4 0 -2
v 5 0 -2
v -11 0 -3
v -10 0 -3
v 3 0 -3
v 4 0 -3
v -10 0 -4
v -9 0 -4
v 2 0 -4
v 3 0 -4
v -9 0 -5
v -7 0 -5
v 0 0 -5
v 2 0 -5
v -7 0 -6
v 0 0 -6
v -7 40 13
v 0 40 13
v -9 40 12
v -7 40 12
v 0 40 12
v 2 40 12
v -10 40 11
v -9 40 11
v 2 40 11
v 3 40 11
v -11 40 10
v -10 40 10
v 3 40 10
v 4 40 10
v -12 40 9
v -11 40 9
v -6 40 9
v -1 40 9
v 4 40 9
v 5 40 9
v -7 40 8
v -6 40 8
v -1 40 8
v 0 40 8
v -13 40 7
v -12 40 7
v -8 40 7
v -7 40 7
v 0 40 7
v 1 40 7
v 5 40 7
v 6 40 7
v -9 40 6
v -8 40 6
v 1 40 6
v 2 40 6
v -9 40 1
v -8 40 1
v 1 40 1
v 2 40 1
v -13 40 -0
v -12 40 -0
v -8 40 -0
v -7 40 -0
v 0 40 -0
v 1 40 -0
v 5 40 -0
v 6 40 -0
v -7 40 -1
v -6 40 -1
v -1 40 -1
v 0 40 -1
v -12 40 -2
v -11 40 -2
v -6 40 -2
v -1 40 -2
v 4 40 -2
v 5 40 -2
v -11 40 -3
v -10 40 -3
v 3 40 -3
v 4 40 -3
v -10 40 -4
v -9 40 -4
v 2 40 -4
v 3 40 -4
v -9 40 -5
v -7 40 -5
v 0 40 -5
v 2 40 -5
v -7 40 -6
v 0 40 -6
v -6 50 9
v -1 50 9
v -7 50 8
v -6 50 8
v -1 50 8
v 0 50 8
v -8 50 7
v -7 50 7
v 0 50 7
v 1 50 7
v -9 50 6
v -8 50 6
v 1 50 6
v 2 50 6
v -9 50 1
v -8 50 1
v 1 50 1
v 2 50 1
v -8 50 -0
v -7 50 -0
v 0 50 -0
v 1 50 -0
v -7 50 -1
v -6 50 -1
v -1 50 -1
v 0 50 -1
v -6 50 -2
v -1 50 -2

# faces
f 3/2/1 2/2/1 1/2/1
f 4/2/1 2/2/1 3/2/1
f 9/2/1 6/2/1 5/2/1
f 10/2/1 6/2/1 9/2/1
f 11/2/1 9/2/1 5/2/1
f 11/1/1 10/1/1 9/1/1
f 12/1/1 10/1/1 11/1/1
f 13/2/1 11/2/1 5/2/1
f 13/2/1 12/2/1 11/2/1
f 14/2/1 12/2/1 13/2/1
f 15/2/1 8/2/1 7/2/1
f 16/2/1 8/2/1 15/2/1
f 21/2/1 18/2/1 17/2/1
f 22/2/1 18/2/1 21/2/1
f 23/2/1 20/2/1 19/2/1
f 24/2/1 20/2/1 23/2/1
f 29/2/1 26/2/1 25/2/1
f 30/2/1 26/2/1 29/2/1
f 31/2/1 28/2/1 27/2/1
f 32/2/1 28/2/1 31/2/1
f 37/2/1 34/2/1 33/2/1
f 38/2/1 34/2/1 37/2/1
f 41/2/1 36/2/1 35/2/1
f 42/2/1 36/2/1 41/2/1
f 43/2/1 40/2/1 39/2/1
f 44/2/1 40/2/1 43/2/1
f 45/3/1 44/3/1 43/3/1
f 46/3/1 44/3/1 45/3/1
f 47/3/1 45/3/1 43/3/1
f 48/4/1 46/4/1 45/4/1
f 48/3/1 45/3/1 47/3/1
f 49/3/1 44/3/1 46/3/1
f 49/4/1 46/4/1 48/4/1
f 50/3/1 44/3/1 49/3/1
f 51/4/1 48/4/1 47/4/1
f 51/4/1 49/4/1 48/4/1
f 51/4/1 50/4/1 49/4/1
f 52/4/1 50/4/1 51/4/1
f 57/2/1 54/2/1 53/2/1
f 58/2/1 54/2/1 57/2/1
f 59/2/1 56/2/1 55/2/1
f 60/2/1 56/2/1 59/2/1
f 61/3/1 58/3/1 57/3/1
f 62/3/1 58/3/1 61/3/1
f 63/3/1 60/3/1 59/3/1
f 64/3/1 60/3/1 63/3/1
f 65/4/1 62/4/1 61/4/1
f 66/4/1 64/4/1 63/4/1
f 67/4/1 65/4/1 61/4/1
f 68/4/1 65/4/1 67/4/1
f 69/4/1 64/4/1 66/4/1
f 70/4/1 64/4/1 69/4/1
f 75/2/1 72/2/1 71/2/1
f 76/2/1 72/2/1 75/2/1
f 81/2/1 74/2/1 73/2/1
f 82/2/1 74/2/1 81/2/1
f 83/2/1 78/2/1 77/2/1
f 84/2/1 78/2/1 83/2/1
f 85/2/1 80/2/1 79/2/1
f 86/2/1 80/2/1 85/2/1
f 87/3/1 84/3/1 83/3/1
f 88/3/1 84/3/1 87/3/1
f 89/3/1 86/3/1 85/3/1
f 90/3/1 86/3/1 89/3/1
f 91/4/1 88/4/1 87/4/1
f 92/4/1 88/4/1 91/4/1
f 93/4/1 90/4/1 89/4/1
f 94/4/1 90/4/1 93/4/1
f 99/2/1 96/2/1 95/2/1
f 100/2/1 96/2/1 99/2/1
f 101/2/1 98/2/1 97/2/1
f 102/2/1 98/2/1 101/2/1
f 103/3/1 100/3/1 99/3/1
f 104/3/1 102/3/1 101/3/1
f 105/3/1 103/3/1 99/3/1
f 106/3/1 103/3/1 105/3/1
f 107/3/1 102/3/1 104/3/1
f 108/3/1 102/3/1 107/3/1
f 109/4/1 106/4/1 105/4/1
f 110/4/1 106/4/1 109/4/1
f 111/4/1 108/4/1 107/4/1
f 112/4/1 108/4/1 111/4/1
f 113/2/2 114/2/2 117/2/2
f 117/2/2 114/2/2 118/2/2
f 115/2/2 116/2/2 119/2/2
f 119/2/2 116/2/2 120/2/2
f 117/3/2 118/3/2 121/3/2
f 119/3/2 120/3/2 122/3/2
f 117/3/2 121/3/2 123/3/2
f 123/3/2 121/3/2 124/3/2
f 122/3/2 120/3/2 125/3/2
f 125/3/2 120/3/2 126/3/2
f 123/4/2 124/4/2 127/4/2
f 127/4/2 124/4/2 128/4/2
f 125/4/2 126/4/2 129/4/2
f 129/4/2 126/4/2 130/4/2
f 131/2/2 132/2/2 135/2/2
f 135/2/2 132/2/2 136/2/2
f 133/2/2 134/2/2 141/2/2
f 141/2/2 134/2/2 142/2/2
f 137/2/2 138/2/2 143/2/2
f 143/2/2 138/2/2 144/2/2
f 139/2/2 140/2/2 145/2/2
f 145/2/2 140/2/2 146/2/2
f 143/3/2 144/3/2 147/3/2
f 147/3/2 144/3/2 148/3/2
f 145/3/2 146/3/2 149/3/2
f 149/3/2 146/3/2 150/3/2
f 147/4/2 148/4/2 151/4/2
f 151/4/2 148/4/2 152/4/2
f 149/4/2 150/4/2 153/4/2
f 153/4/2 150/4/2 154/4/2
f 155/2/2 156/2/2 159/2/2
f 159/2/2 156/2/2 160/2/2
f 157/2/2 158/2/2 161/2/2
f 161/2/2 158/2/2 162/2/2
f 159/3/2 160/3/2 163/3/2
f 163/3/2 160/3/2 164/3/2
f 161/3/2 162/3/2 165/3/2
f 165/3/2 162/3/2 166/3/2
f 163/4/2 164/4/2 167/4/2
f 165/4/2 166/4/2 168/4/2
f 163/4/2 167/4/2 169/4/2
f 169/4/2 167/4/2 170/4/2
f 168/4/2 166/4/2 171/4/2
f 171/4/2 166/4/2 172/4/2
f 173/2/2 174/2/2 177/2/2
f 177/2/2 174/2/2 178/2/2
f 175/2/2 176/2/2 181/2/2
f 181/2/2 176/2/2 182/2/2
f 179/2/2 180/2/2 183/2/2
f 183/2/2 180/2/2 184/2/2
f 183/3/2 184/3/2 185/3/2
f 185/3/2 184/3/2 186/3/2
f 183/3/2 185/3/2 187/3/2
f 185/4/2 186/4/2 188/4/2
f 187/3/2 185/3/2 188/3/2
f 186/3/2 184/3/2 189/3/2
f 188/4/2 186/4/2 189/4/2
f 189/3/2 184/3/2 190/3/2
f 187/4/2 188/4/2 191/4/2
f 188/4/2 189/4/2 191/4/2
f 189/4/2 190/4/2 191/4/2
f 191/4/2 190/4/2 192/4/2
f 193/2/2 194/2/2 197/2/2
f 197/2/2 194/2/2 198/2/2
f 195/2/2 196/2/2 199/2/2
f 199/2/2 196/2/2 200/2/2
f 201/2/2 202/2/2 205/2/2
f 205/2/2 202/2/2 206/2/2
f 203/2/2 204/2/2 207/2/2
f 207/2/2 204/2/2 208/2/2
f 209/2/2 210/2/2 213/2/2
f 213/2/2 210/2/2 214/2/2
f 211/2/2 212/2/2 215/2/2
f 215/2/2 212/2/2 216/2/2
f 217/2/2 218/2/2 219/2/2
f 219/2/2 218/2/2 220/2/2
f 223/2/3 222/2/3 221/2/3
f 224/2/3 222/2/3 223/2/3
f 227/2/3 226/2/3 225/2/3
f 228/2/3 226/2/3 227/2/3
f 231/2/3 230/2/3 229/2/3
f 232/2/3 230/2/3 231/2/3
f 235/2/3 234/2/3 233/2/3
f 236/2/3 234/2/3 235/2/3
f 239/2/3 238/2/3 237/2/3
f 240/2/3 238/2/3 239/2/3
f 243/2/3 242/2/3 241/2/3
f 244/2/3 242/2/3 243/2/3
f 247/2/3 246/2/3 245/2/3
f 248/2/3 246/2/3 247/2/3
f 251/2/3 250/2/3 249/2/3
f 252/2/3 250/2/3 251/2/3
f 257/3/3 255/3/3 254/3/3
f 258/4/3 256/4/3 255/4/3
f 258/3/3 255/3/3 257/3/3
f 259/3/3 257/3/3 254/3/3
f 259/4/3 258/4/3 257/4/3
f 260/4/3 256/4/3 258/4/3
f 260/4/3 258/4/3 259/4/3
f 261/2/3 254/2/3 253/2/3
f 262/3/3 259/3/3 254/3/3
f 262/2/3 254/2/3 261/2/3
f 262/3/3 260/3/3 259/3/3
f 263/4/3 256/4/3 260/4/3
f 263/3/3 260/3/3 262/3/3
f 264/4/3 256/4/3 263/4/3
f 267/2/3 266/2/3 265/2/3
f 268/2/3 266/2/3 267/2/3
f 273/2/3 270/2/3 269/2/3
f 274/3/3 271/3/3 270/3/3
f 274/2/3 270/2/3 273/2/3
f 275/4/3 272/4/3 271/4/3
f 275/3/3 271/3/3 274/3/3
f 276/4/3 272/4/3 275/4/3
f 277/4/3 272/4/3 276/4/3
f 283/2/3 279/2/3 278/2/3
f 284/3/3 280/3/3 279/3/3
f 284/2/3 279/2/3 283/2/3
f 285/4/3 282/4/3 281/4/3
f 285/3/3 280/3/3 284/3/3
f 285/4/3 281/4/3 280/4/3
f 286/4/3 282/4/3 285/4/3
f 289/2/3 288/2/3 287/2/3
f 290/2/3 288/2/3 289/2/3
f 291/2/3 288/2/3 290/2/3
f 292/2/3 288/2/3 291/2/3
f 297/2/3 294/2/3 293/2/3
f 298/3/3 295/3/3 294/3/3
f 298/2/3 294/2/3 297/2/3
f 299/4/3 296/4/3 295/4/3
f 299/3/3 295/3/3 298/3/3
f 300/4/3 296/4/3 299/4/3
f 305/2/3 302/2/3 301/2/3
f 306/3/3 303/3/3 302/3/3
f 306/2/3 302/2/3 305/2/3
f 307/4/3 304/4/3 303/4/3
f 307/3/3 303/3/3 306/3/3
f 308/4/3 304/4/3 307/4/3
f 311/2/3 310/2/3 309/2/3
f 312/2/3 310/2/3 311/2/3
f 317/2/3 314/2/3 313/2/3
f 318/3/3 315/3/3 314/3/3
f 318/2/3 314/2/3 317/2/3
f 319/3/3 315/3/3 318/3/3
f 320/4/3 316/4/3 315/4/3
f 320/3/3 315/3/3 319/3/3
f 321/4/3 316/4/3 320/4/3
f 327/2/3 323/2/3 322/2/3
f 328/3/3 324/3/3 323/3/3
f 328/2/3 323/2/3 327/2/3
f 328/3/3 325/3/3 324/3/3
f 329/4/3 326/4/3 325/4/3
f 329/3/3 325/3/3 328/3/3
f 330/4/3 326/4/3 329/4/3
f 331/2/4 332/2/4 335/2/4
f 332/3/4 333/3/4 336/3/4
f 335/2/4 332/2/4 336/2/4
f 336/3/4 333/3/4 337/3/4
f 333/4/4 334/4/4 338/4/4
f 337/3/4 333/3/4 338/3/4
f 338/4/4 334/4/4 339/4/4
f 340/2/4 341/2/4 345/2/4
f 341/3/4 342/3/4 346/3/4
f 345/2/4 341/2/4 346/2/4
f 342/3/4 343/3/4 346/3/4
f 343/4/4 344/4/4 347/4/4
f 346/3/4 343/3/4 347/3/4
f 347/4/4 344/4/4 348/4/4
f 349/2/4 350/2/4 351/2/4
f 351/2/4 350/2/4 352/2/4
f 353/2/4 354/2/4 357/2/4
f 354/3/4 355/3/4 358/3/4
f 357/2/4 354/2/4 358/2/4
f 355/4/4 356/4/4 359/4/4
f 358/3/4 355/3/4 359/3/4
f 359/4/4 356/4/4 360/4/4
f 361/2/4 362/2/4 365/2/4
f 362/3/4 363/3/4 366/3/4
f 365/2/4 362/2/4 366/2/4
f 363/4/4 364/4/4 367/4/4
f 366/3/4 363/3/4 367/3/4
f 367/4/4 364/4/4 368/4/4
f 369/2/4 370/2/4 371/2/4
f 371/2/4 370/2/4 372/2/4
f 373/2/4 374/2/4 377/2/4
f 374/3/4 375/3/4 378/3/4
f 377/2/4 374/2/4 378/2/4
f 375/4/4 376/4/4 379/4/4
f 378/3/4 375/3/4 379/3/4
f 379/4/4 376/4/4 380/4/4
f 380/4/4 376/4/4 381/4/4
f 382/2/4 383/2/4 387/2/4
f 383/3/4 384/3/4 388/3/4
f 387/2/4 383/2/4 388/2/4
f 385/4/4 386/4/4 389/4/4
f 388/3/4 384/3/4 389/3/4
f 384/4/4 385/4/4 389/4/4
f 389/4/4 386/4/4 390/4/4
f 391/2/4 392/2/4 393/2/4
f 393/2/4 392/2/4 394/2/4
f 396/3/4 397/3/4 399/3/4
f 397/4/4 398/4/4 400/4/4
f 399/3/4 397/3/4 400/3/4
f 396/3/4 399/3/4 401/3/4
f 399/4/4 400/4/4 401/4/4
f 400/4/4 398/4/4 402/4/4
f 401/4/4 400/4/4 402/4/4
f 395/2/4 396/2/4 403/2/4
f 396/3/4 401/3/4 404/3/4
f 403/2/4 396/2/4 404/2/4
f 401/3/4 402/3/4 404/3/4
f 402/4/4 398/4/4 405/4/4
f 404/3/4 402/3/4 405/3/4
f 405/4/4 398/4/4 406/4/4
f 407/2/4 408/2/4 409/2/4
f 409/2/4 408/2/4 410/2/4
f 411/2/4 412/2/4 413/2/4
f 413/2/4 412/2/4 414/2/4
f 415/2/4 416/2/4 417/2/4
f 417/2/4 416/2/4 418/2/4
f 419/2/4 420/2/4 421/2/4
f 421/2/4 420/2/4 422/2/4
f 423/2/4 424/2/4 425/2/4
f 425/2/4 424/2/4 426/2/4
f 427/2/4 428/2/4 429/2/4
f 429/2/4 428/2/4 430/2/4
f 431/2/4 432/2/4 433/2/4
f 433/2/4 432/2/4 434/2/4
f 435/2/4 436/2/4 437/2/4
f 437/2/4 436/2/4 438/2/4
f 442/2/5 440/2/5 439/2/5
f 443/2/5 440/2/5 442/2/5
f 446/2/5 442/2/5 441/2/5
f 446/2/5 444/2/5 443/2/5
f 446/2/5 443/2/5 442/2/5
f 447/2/5 444/2/5 446/2/5
f 450/2/5 446/2/5 445/2/5
f 450/2/5 448/2/5 447/2/5
f 450/2/5 447/2/5 446/2/5
f 451/2/5 448/2/5 450/2/5
f 454/2/5 450/2/5 449/2/5
f 454/2/5 452/2/5 451/2/5
f 454/2/5 451/2/5 450/2/5
f 455/2/5 452/2/5 454/2/5
f 458/2/5 454/2/5 453/2/5
f 458/2/5 456/2/5 455/2/5
f 458/2/5 455/2/5 454/2/5
f 459/2/5 456/2/5 458/2/5
f 461/2/5 458/2/5 457/2/5
f 461/2/5 460/2/5 459/2/5
f 461/2/5 459/2/5 458/2/5
f 462/2/5 460/2/5 461/2/5
f 463/2/5 460/2/5 462/2/5
f 464/2/5 460/2/5 463/2/5
f 465/2/5 463/2/5 462/2/5
f 466/2/5 463/2/5 465/2/5
f 467/2/5 463/2/5 466/2/5
f 468/2/5 463/2/5 467/2/5
f 469/2/5 467/2/5 466/2/5
f 470/2/5 467/2/5 469/2/5
f 471/2/5 467/2/5 470/2/5
f 472/2/5 467/2/5 471/2/5
f 473/2/5 471/2/5 470/2/5
f 474/2/5 471/2/5 473/2/5
f 475/2/5 471/2/5 474/2/5
f 476/2/5 471/2/5 475/2/5
f 477/2/5 475/2/5 474/2/5
f 478/2/5 475/2/5 477/2/5
f 479/2/5 475/2/5 478/2/5
f 480/2/5 475/2/5 479/2/5
f 481/2/5 479/2/5 478/2/5
f 482/2/5 479/2/5 481/2/5
f 483/2/6 484/2/6 486/2/6
f 486/2/6 484/2/6 487/2/6
f 485/2/6 486/2/6 490/2/6
f 487/2/6 488/2/6 490/2/6
f 486/2/6 487/2/6 490/2/6
f 490/2/6 488/2/6 491/2/6
f 489/2/6 490/2/6 494/2/6
f 491/2/6 492/2/6 494/2/6
f 490/2/6 491/2/6 494/2/6
f 494/2/6 492/2/6 495/2/6
f 493/2/6 494/2/6 498/2/6
f 495/2/6 496/2/6 498/2/6
f 494/2/6 495/2/6 498/2/6
f 498/2/6 496/2/6 499/2/6
f 499/2/6 496/2/6 500/2/6
f 500/2/6 496/2/6 501/2/6
f 497/2/6 498/2/6 503/2/6
f 498/2/6 499/2/6 503/2/6
f 503/2/6 499/2/6 504/2/6
f 501/2/6 502/2/6 505/2/6
f 500/2/6 501/2/6 505/2/6
f 505/2/6 502/2/6 506/2/6
f 497/2/6 503/2/6 508/2/6
f 508/2/6 503/2/6 509/2/6
f 509/2/6 503/2/6 510/2/6
f 506/2/6 502/2/6 511/2/6
f 511/2/6 502/2/6 512/2/6
f 512/2/6 502/2/6 513/2/6
f 507/2/6 508/2/6 515/2/6
f 508/2/6 509/2/6 515/2/6
f 515/2/6 509/2/6 516/2/6
f 513/2/6 514/2/6 517/2/6
f 512/2/6 513/2/6 517/2/6
f 517/2/6 514/2/6 518/2/6
f 507/2/6 515/2/6 519/2/6
f 518/2/6 514/2/6 522/2/6
f 519/2/6 520/2/6 523/2/6
f 507/2/6 519/2/6 523/2/6
f 523/2/6 520/2/6 524/2/6
f 524/2/6 520/2/6 525/2/6
f 521/2/6 522/2/6 528/2/6
f 522/2/6 514/2/6 529/2/6
f 528/2/6 522/2/6 529/2/6
f 529/2/6 514/2/6 530/2/6
f 525/2/6 526/2/6 531/2/6
f 524/2/6 525/2/6 531/2/6
f 527/2/6 528/2/6 534/2/6
f 528/2/6 529/2/6 534/2/6
f 531/2/6 532/2/6 535/2/6
f 524/2/6 531/2/6 535/2/6
f 535/2/6 532/2/6 536/2/6
f 536/2/6 532/2/6 537/2/6
f 533/2/6 534/2/6 538/2/6
f 534/2/6 529/2/6 539/2/6
f 538/2/6 534/2/6 539/2/6
f 539/2/6 529/2/6 540/2/6
f 536/2/6 537/2/6 541/2/6
f 537/2/6 538/2/6 541/2/6
f 538/2/6 539/2/6 541/2/6
f 541/2/6 539/2/6 542/2/6
f 542/2/6 539/2/6 543/2/6
f 543/2/6 539/2/6 544/2/6
f 542/2/6 543/2/6 545/2/6
f 545/2/6 543/2/6 546/2/6
f 546/2/6 543/2/6 547/2/6
f 547/2/6 543/2/6 548/2/6
f 546/2/6 547/2/6 549/2/6
f 549/2/6 547/2/6 550/2/6
f 550/2/6 547/2/6 551/2/6
f 551/2/6 547/2/6 552/2/6
f 550/2/6 551/2/6 553/2/6
f 553/2/6 551/2/6 554/2/6
f 555/4/6 556/4/6 558/4/6
f 558/4/6 556/4/6 559/4/6
f 557/4/6 558/4/6 562/4/6
f 559/4/6 560/4/6 562/4/6
f 558/4/6 559/4/6 562/4/6
f 562/4/6 560/4/6 563/4/6
f 561/4/6 562/4/6 566/4/6
f 563/4/6 564/4/6 566/4/6
f 562/4/6 563/4/6 566/4/6
f 566/4/6 564/4/6 567/4/6
f 565/4/6 566/4/6 569/4/6
f 567/4/6 568/4/6 569/4/6
f 566/4/6 567/4/6 569/4/6
f 569/4/6 568/4/6 570/4/6
f 570/4/6 568/4/6 571/4/6
f 571/4/6 568/4/6 572/4/6
f 570/4/6 571/4/6 573/4/6
f 573/4/6 571/4/6 574/4/6
f 574/4/6 571/4/6 575/4/6
f 575/4/6 571/4/6 576/4/6
f 574/4/6 575/4/6 577/4/6
f 577/4/6 575/4/6 578/4/6
f 578/4/6 575/4/6 579/4/6
f 579/4/6 575/4/6 580/4/6
f 578/4/6 579/4/6 581/4/6
f 581/4/6 579/4/6 582/4/6
