# MagicaVoxel @ Ephtracy

# material
mtllib couch.mtl
usemtl palette

# normals
vn -1 0 0
vn 1 0 0
vn 0 0 1
vn 0 0 -1
vn 0 -1 0
vn 0 1 0

# texcoords
vt 0.416016 0.5
vt 0.501953 0.5
vt 0.556641 0.5
vt 0.693359 0.5

# verts
v -9 0 19
v -9 0 18
v -9 0 -16
v -9 0 -18
v -9 5 19
v -9 5 18
v -9 5 15
v -9 5 -16
v -9 5 -18
v -9 5 -19
v -9 6 20
v -9 6 15
v -9 8 20
v -9 8 19
v -9 8 -7
v -9 8 -18
v -9 8 -19
v -9 9 19
v -9 9 -7
v -8 4 20
v -8 4 19
v -8 4 18
v -8 4 -16
v -8 4 -18
v -8 4 -19
v -8 5 19
v -8 5 18
v -8 5 15
v -8 5 -16
v -8 5 -18
v -8 5 -19
v -8 6 20
v -8 6 15
v -8 8 20
v -8 8 19
v -8 8 -7
v -8 8 -18
v -8 8 -19
v -8 9 20
v -8 9 19
v -8 9 -6
v -8 9 -7
v -8 9 -19
v -8 10 20
v -8 10 -6
v -7 9 -6
v -7 9 -18
v -7 10 -6
v -7 10 -18
v -6 3 18
v -6 3 -16
v -6 4 18
v -6 4 -16
v -4 9 -18
v -4 9 -19
v -4 10 -18
v -4 10 -19
v 5 3 17
v 5 3 -16
v 5 4 17
v 5 4 -16
v 5 8 19
v 5 8 18
v 5 9 19
v 5 9 18
v 6 8 18
v 6 8 -6
v 6 9 18
v 6 9 -6
v 7 0 19
v 7 0 18
v 7 0 -16
v 7 0 -17
v 7 0 -18
v 7 3 19
v 7 3 18
v 7 3 -16
v 7 3 -17
v 7 3 -18
v 7 5 -6
v 7 5 -7
v 7 5 -13
v 7 5 -16
v 7 5 -18
v 7 6 -6
v 7 6 -7
v 7 6 -13
v 7 6 -18
v 7 7 19
v 7 7 17
v 7 7 13
v 7 7 -5
v 7 8 19
v 7 8 17
v 7 8 13
v 7 8 -5
v 7 8 -6
v 7 8 -18
v 7 9 -6
v 7 9 -18
v 8 5 19
v 8 5 18
v 8 5 -6
v 8 5 -7
v 8 5 -13
v 8 6 -6
v 8 6 -7
v 8 6 -13
v 8 6 -18
v 8 7 19
v 8 7 17
v 8 7 13
v 8 7 -5
v 8 8 17
v 8 8 13
v 8 8 -5
v 8 8 -18
v -8 0 19
v -8 0 18
v -8 0 -16
v -8 0 -18
v -8 1 19
v -8 1 18
v -8 1 -16
v -8 1 -18
v -8 6 14
v -8 6 -18
v -8 7 18
v -8 7 14
v -8 7 -6
v -8 7 -18
v -8 8 18
v -8 8 -6
v -7 1 19
v -7 1 18
v -7 1 -16
v -7 1 -18
v -7 3 19
v -7 3 18
v -7 3 -16
v -7 3 -18
v -7 5 19
v -7 5 18
v -7 5 15
v -7 5 -16
v -7 5 -18
v -7 6 19
v -7 6 15
v -7 6 14
v -7 6 -18
v -7 7 18
v -7 7 14
v -7 7 -6
v -7 7 -18
v -7 8 18
v -7 8 -5
v -7 8 -6
v -7 8 -18
v -7 9 19
v -7 9 -5
v -6 8 -5
v -6 8 -17
v -6 9 -5
v -6 9 -17
v -5 3 17
v -5 3 -16
v -5 4 17
v -5 4 -16
v -3 8 -17
v -3 8 -18
v -3 9 -17
v -3 9 -18
v 6 3 18
v 6 3 -16
v 6 4 18
v 6 4 -16
v 6 9 20
v 6 9 19
v 6 10 20
v 6 10 19
v 7 9 19
v 7 9 18
v 7 9 12
v 7 9 -4
v 7 9 -5
v 7 10 19
v 7 10 -5
v 8 4 -14
v 8 4 -16
v 8 4 -18
v 8 4 -19
v 8 5 -14
v 8 5 -16
v 8 5 -18
v 8 5 -19
v 8 8 20
v 8 8 19
v 8 8 18
v 8 8 12
v 8 8 -4
v 8 9 20
v 8 9 19
v 8 9 18
v 8 9 12
v 8 9 -4
v 8 9 -5
v 8 9 -18
v 8 9 -19
v 8 10 -5
v 8 10 -19
v 9 0 19
v 9 0 18
v 9 0 -16
v 9 0 -18
v 9 4 20
v 9 4 19
v 9 4 18
v 9 4 -14
v 9 5 -14
v 9 5 -16
v 9 5 -18
v 9 5 -19
v 9 8 20
v 9 8 18
v 9 8 12
v 9 8 -4
v 9 9 18
v 9 9 12
v 9 9 -4
v 9 9 -18
v 9 9 -19
v -9 6 20
v -9 8 20
v -8 4 20
v -8 6 20
v -8 8 20
v -8 9 20
v -8 10 20
v 6 9 20
v 6 10 20
v 8 8 20
v 8 9 20
v 9 4 20
v 9 8 20
v -9 0 19
v -9 5 19
v -9 8 19
v -9 9 19
v -8 0 19
v -8 1 19
v -8 4 19
v -8 5 19
v -8 8 19
v -8 9 19
v -7 1 19
v -7 3 19
v 6 9 19
v 6 10 19
v 7 0 19
v 7 3 19
v 7 9 19
v 7 10 19
v 9 0 19
v 9 4 19
v 8 8 18
v 8 9 18
v 9 8 18
v 9 9 18
v -9 5 15
v -9 6 15
v -8 5 15
v -8 6 15
v 7 7 13
v 7 8 13
v 8 7 13
v 8 8 13
v 8 8 -4
v 8 9 -4
v 9 8 -4
v 9 9 -4
v -7 8 -5
v -7 9 -5
v -6 8 -5
v -6 9 -5
v 7 9 -5
v 7 10 -5
v 8 9 -5
v 8 10 -5
v -8 7 -6
v -8 8 -6
v -7 7 -6
v -7 8 -6
v 7 5 -6
v 7 6 -6
v 8 5 -6
v 8 6 -6
v 7 5 -13
v 7 6 -13
v 8 5 -13
v 8 6 -13
v -9 0 -16
v -9 5 -16
v -8 0 -16
v -8 1 -16
v -8 4 -16
v -8 5 -16
v -7 1 -16
v -7 3 -16
v -7 4 -16
v -6 3 -16
v -6 4 -16
v -5 3 -16
v -5 4 -16
v 5 3 -16
v 5 4 -16
v 6 3 -16
v 6 4 -16
v 7 0 -16
v 7 3 -16
v 8 4 -16
v 8 5 -16
v 9 0 -16
v 9 5 -16
v -6 8 -17
v -6 9 -17
v -3 8 -17
v -3 9 -17
v -8 6 -18
v -8 7 -18
v -7 5 -18
v -7 6 -18
v -7 7 -18
v -7 8 -18
v -3 8 -18
v -3 9 -18
v 7 5 -18
v 7 6 -18
v 7 8 -18
v 7 9 -18
v 8 6 -18
v 8 8 -18
v -7 5 19
v -7 6 19
v -7 9 19
v 5 8 19
v 5 9 19
v 7 7 19
v 7 8 19
v 8 5 19
v 8 7 19
v -9 0 18
v -9 5 18
v -8 0 18
v -8 1 18
v -8 4 18
v -8 5 18
v -8 7 18
v -8 8 18
v -7 1 18
v -7 3 18
v -7 7 18
v -7 8 18
v -6 3 18
v -6 4 18
v 5 8 18
v 5 9 18
v 6 3 18
v 6 4 18
v 6 8 18
v 6 9 18
v 7 0 18
v 7 3 18
v 9 0 18
v 9 4 18
v -5 3 17
v -5 4 17
v 5 3 17
v 5 4 17
v 7 7 17
v 7 8 17
v 8 7 17
v 8 8 17
v -8 6 14
v -8 7 14
v -7 6 14
v -7 7 14
v 8 8 12
v 8 9 12
v 9 8 12
v 9 9 12
v 7 7 -5
v 7 8 -5
v 8 7 -5
v 8 8 -5
v -8 9 -6
v -8 10 -6
v -7 9 -6
v -7 10 -6
v 6 8 -6
v 6 9 -6
v 7 8 -6
v 7 9 -6
v -9 8 -7
v -9 9 -7
v -8 8 -7
v -8 9 -7
v 7 5 -7
v 7 6 -7
v 8 5 -7
v 8 6 -7
v 8 4 -14
v 8 5 -14
v 9 4 -14
v 9 5 -14
v -9 0 -18
v -9 5 -18
v -8 0 -18
v -8 1 -18
v -8 4 -18
v -8 5 -18
v -7 1 -18
v -7 3 -18
v -7 4 -18
v -7 9 -18
v -7 10 -18
v -4 9 -18
v -4 10 -18
v 7 0 -18
v 7 3 -18
v 7 4 -18
v 8 0 -18
v 8 4 -18
v 8 5 -18
v 9 0 -18
v 9 5 -18
v -9 5 -19
v -9 8 -19
v -8 4 -19
v -8 5 -19
v -8 8 -19
v -8 9 -19
v -4 9 -19
v -4 10 -19
v 8 4 -19
v 8 5 -19
v 8 9 -19
v 8 10 -19
v 9 5 -19
v 9 9 -19
v -9 0 19
v -8 0 19
v 7 0 19
v 9 0 19
v -9 0 18
v -8 0 18
v 7 0 18
v 9 0 18
v -9 0 -16
v -8 0 -16
v 7 0 -16
v 9 0 -16
v 7 0 -17
v 8 0 -17
v -9 0 -18
v -8 0 -18
v 7 0 -18
v 8 0 -18
v 9 0 -18
v -8 1 19
v -7 1 19
v -8 1 18
v -7 1 18
v -8 1 -16
v -7 1 -16
v -8 1 -18
v -7 1 -18
v -7 3 19
v 7 3 19
v -7 3 18
v -6 3 18
v 6 3 18
v 7 3 18
v -5 3 17
v 5 3 17
v -7 3 -16
v -6 3 -16
v -5 3 -16
v 5 3 -16
v 6 3 -16
v 7 3 -16
v 7 3 -17
v -7 3 -18
v 7 3 -18
v -8 4 20
v 9 4 20
v -8 4 19
v 9 4 19
v -8 4 18
v -6 4 18
v 6 4 18
v 9 4 18
v -5 4 17
v 5 4 17
v 8 4 -14
v 9 4 -14
v -8 4 -16
v -7 4 -16
v -6 4 -16
v -5 4 -16
v 5 4 -16
v 6 4 -16
v 8 4 -16
v -8 4 -18
v -7 4 -18
v 7 4 -18
v 8 4 -18
v -8 4 -19
v 8 4 -19
v -9 5 15
v -8 5 15
v 8 5 -14
v 9 5 -14
v -9 5 -16
v -8 5 -16
v 8 5 -16
v 9 5 -16
v -9 5 -18
v -8 5 -18
v 8 5 -18
v 9 5 -18
v -9 5 -19
v -8 5 -19
v 8 5 -19
v 9 5 -19
v -9 6 20
v -8 6 20
v -9 6 15
v -8 6 15
v 7 7 19
v 8 7 19
v 7 7 17
v 8 7 17
v 7 7 13
v 8 7 13
v 7 7 -5
v 8 7 -5
v -8 7 -6
v -7 7 -6
v -8 7 -18
v -7 7 -18
v 5 8 19
v 7 8 19
v -8 8 18
v -7 8 18
v 5 8 18
v 6 8 18
v 7 8 17
v 8 8 17
v 7 8 13
v 8 8 13
v -7 8 -5
v -6 8 -5
v 7 8 -5
v 8 8 -5
v -8 8 -6
v -7 8 -6
v 6 8 -6
v 7 8 -6
v -6 8 -17
v -3 8 -17
v -7 8 -18
v -3 8 -18
v 7 8 -18
v 8 8 -18
v -7 9 19
v 5 9 19
v 5 9 18
v 6 9 18
v -7 9 -5
v -6 9 -5
v 6 9 -6
v 7 9 -6
v -6 9 -17
v -3 9 -17
v -3 9 -18
v 7 9 -18
v -9 5 19
v -8 5 19
v -7 5 19
v 8 5 19
v -9 5 18
v -8 5 18
v -7 5 18
v -6 5 18
v 6 5 18
v 8 5 18
v -5 5 17
v 5 5 17
v -7 5 15
v 7 5 -6
v 8 5 -6
v 7 5 -7
v 8 5 -7
v 7 5 -13
v 8 5 -13
v -7 5 -16
v -6 5 -16
v -5 5 -16
v 5 5 -16
v 6 5 -16
v 7 5 -16
v -7 5 -18
v 7 5 -18
v -8 6 14
v -7 6 14
v 7 6 -6
v 8 6 -6
v 7 6 -7
v 8 6 -7
v 7 6 -13
v 8 6 -13
v -8 6 -18
v -7 6 -18
v 7 6 -18
v 8 6 -18
v -8 7 18
v -7 7 18
v -8 7 14
v -7 7 14
v -9 8 20
v -8 8 20
v 8 8 20
v 9 8 20
v -9 8 19
v -8 8 19
v 8 8 19
v 8 8 18
v 9 8 18
v 8 8 12
v 9 8 12
v 8 8 -4
v 9 8 -4
v -9 8 -7
v -8 8 -7
v -9 8 -18
v -8 8 -18
v -9 8 -19
v -8 8 -19
v 6 9 20
v 8 9 20
v -9 9 19
v -8 9 19
v 6 9 19
v 7 9 19
v 8 9 19
v 7 9 18
v 8 9 18
v 9 9 18
v 7 9 12
v 8 9 12
v 9 9 12
v 7 9 -4
v 8 9 -4
v 9 9 -4
v 7 9 -5
v 8 9 -5
v -8 9 -6
v -7 9 -6
v -9 9 -7
v -8 9 -7
v -7 9 -18
v -4 9 -18
v 8 9 -18
v 9 9 -18
v -8 9 -19
v -4 9 -19
v 8 9 -19
v 9 9 -19
v -8 10 20
v 6 10 20
v 6 10 19
v 7 10 19
v 7 10 -5
v 8 10 -5
v -8 10 -6
v -7 10 -6
v -7 10 -18
v -4 10 -18
v -4 10 -19
v 8 10 -19

# faces
f 5/2/1 2/2/1 1/2/1
f 6/2/1 2/2/1 5/2/1
f 8/2/1 4/2/1 3/2/1
f 9/2/1 4/2/1 8/2/1
f 12/2/1 8/2/1 7/2/1
f 12/2/1 9/2/1 8/2/1
f 13/2/1 12/2/1 11/2/1
f 14/2/1 12/2/1 13/2/1
f 15/2/1 9/2/1 12/2/1
f 15/2/1 12/2/1 14/2/1
f 16/1/1 10/1/1 9/1/1
f 16/2/1 9/2/1 15/2/1
f 17/1/1 10/1/1 16/1/1
f 18/1/1 15/1/1 14/1/1
f 19/1/1 15/1/1 18/1/1
f 26/2/1 21/2/1 20/2/1
f 27/2/1 23/2/1 22/2/1
f 28/2/1 23/2/1 27/2/1
f 29/2/1 23/2/1 28/2/1
f 30/1/1 25/1/1 24/1/1
f 31/1/1 25/1/1 30/1/1
f 32/2/1 26/2/1 20/2/1
f 32/2/1 27/2/1 26/2/1
f 32/2/1 28/2/1 27/2/1
f 33/2/1 28/2/1 32/2/1
f 39/2/1 35/2/1 34/2/1
f 40/2/1 35/2/1 39/2/1
f 42/1/1 38/1/1 37/1/1
f 42/1/1 37/1/1 36/1/1
f 43/1/1 38/1/1 42/1/1
f 44/1/1 41/1/1 40/1/1
f 44/1/1 40/1/1 39/1/1
f 45/1/1 41/1/1 44/1/1
f 48/1/1 47/1/1 46/1/1
f 49/1/1 47/1/1 48/1/1
f 52/2/1 51/2/1 50/2/1
f 53/2/1 51/2/1 52/2/1
f 56/1/1 55/1/1 54/1/1
f 57/1/1 55/1/1 56/1/1
f 60/2/1 59/2/1 58/2/1
f 61/2/1 59/2/1 60/2/1
f 64/3/1 63/3/1 62/3/1
f 65/3/1 63/3/1 64/3/1
f 68/3/1 67/3/1 66/3/1
f 69/3/1 67/3/1 68/3/1
f 75/2/1 71/2/1 70/2/1
f 76/2/1 71/2/1 75/2/1
f 77/2/1 73/2/1 72/2/1
f 78/4/1 74/4/1 73/4/1
f 78/2/1 73/2/1 77/2/1
f 79/4/1 74/4/1 78/4/1
f 85/3/1 81/3/1 80/3/1
f 86/3/1 81/3/1 85/3/1
f 87/3/1 84/3/1 83/3/1
f 87/3/1 83/3/1 82/3/1
f 88/3/1 84/3/1 87/3/1
f 93/3/1 90/3/1 89/3/1
f 94/3/1 90/3/1 93/3/1
f 95/3/1 92/3/1 91/3/1
f 96/3/1 92/3/1 95/3/1
f 99/3/1 98/3/1 97/3/1
f 100/3/1 98/3/1 99/3/1
f 106/2/1 102/2/1 101/2/1
f 106/2/1 103/2/1 102/2/1
f 107/2/1 105/2/1 104/2/1
f 108/2/1 105/2/1 107/2/1
f 110/2/1 106/2/1 101/2/1
f 110/2/1 109/2/1 108/2/1
f 110/2/1 108/2/1 107/2/1
f 110/2/1 107/2/1 106/2/1
f 111/2/1 109/2/1 110/2/1
f 112/2/1 109/2/1 111/2/1
f 113/2/1 109/2/1 112/2/1
f 114/2/1 112/2/1 111/2/1
f 115/2/1 112/2/1 114/2/1
f 116/2/1 109/2/1 113/2/1
f 117/2/1 109/2/1 116/2/1
f 118/2/2 119/2/2 122/2/2
f 122/2/2 119/2/2 123/2/2
f 120/2/2 121/2/2 124/2/2
f 124/2/2 121/2/2 125/2/2
f 126/2/2 127/2/2 129/2/2
f 129/2/2 127/2/2 130/2/2
f 130/2/2 127/2/2 131/2/2
f 128/2/2 129/2/2 132/2/2
f 129/2/2 130/2/2 132/2/2
f 132/2/2 130/2/2 133/2/2
f 134/2/2 135/2/2 138/2/2
f 138/2/2 135/2/2 139/2/2
f 136/4/2 137/4/2 140/4/2
f 140/4/2 137/4/2 141/4/2
f 142/2/2 143/2/2 147/2/2
f 143/2/2 144/2/2 147/2/2
f 145/4/2 146/4/2 148/4/2
f 147/2/2 144/2/2 148/2/2
f 144/4/2 145/4/2 148/4/2
f 148/4/2 146/4/2 149/4/2
f 149/4/2 146/4/2 150/4/2
f 147/4/2 148/4/2 151/4/2
f 148/4/2 149/4/2 151/4/2
f 151/4/2 149/4/2 152/4/2
f 147/4/2 151/4/2 155/4/2
f 153/4/2 154/4/2 157/4/2
f 157/4/2 154/4/2 158/4/2
f 155/4/2 156/4/2 159/4/2
f 147/4/2 155/4/2 159/4/2
f 159/4/2 156/4/2 160/4/2
f 161/3/2 162/3/2 163/3/2
f 163/3/2 162/3/2 164/3/2
f 165/2/2 166/2/2 167/2/2
f 167/2/2 166/2/2 168/2/2
f 169/3/2 170/3/2 171/3/2
f 171/3/2 170/3/2 172/3/2
f 173/2/2 174/2/2 175/2/2
f 175/2/2 174/2/2 176/2/2
f 177/1/2 178/1/2 179/1/2
f 179/1/2 178/1/2 180/1/2
f 181/1/2 182/1/2 186/1/2
f 184/1/2 185/1/2 186/1/2
f 183/1/2 184/1/2 186/1/2
f 182/1/2 183/1/2 186/1/2
f 186/1/2 185/1/2 187/1/2
f 188/2/2 189/2/2 192/2/2
f 192/2/2 189/2/2 193/2/2
f 190/1/2 191/1/2 194/1/2
f 194/1/2 191/1/2 195/1/2
f 196/2/2 197/2/2 201/2/2
f 197/1/2 198/1/2 202/1/2
f 201/2/2 197/2/2 202/2/2
f 202/1/2 198/1/2 203/1/2
f 199/1/2 200/1/2 204/1/2
f 204/1/2 200/1/2 205/1/2
f 207/1/2 208/1/2 209/1/2
f 206/1/2 207/1/2 209/1/2
f 209/1/2 208/1/2 210/1/2
f 211/2/2 212/2/2 216/2/2
f 216/2/2 212/2/2 217/2/2
f 215/2/2 216/2/2 219/2/2
f 217/2/2 218/2/2 219/2/2
f 216/2/2 217/2/2 219/2/2
f 213/2/2 214/2/2 220/2/2
f 220/2/2 214/2/2 221/2/2
f 215/2/2 219/2/2 223/2/2
f 219/2/2 220/2/2 223/2/2
f 220/2/2 221/2/2 223/2/2
f 223/2/2 221/2/2 224/2/2
f 224/2/2 221/2/2 225/2/2
f 225/2/2 221/2/2 226/2/2
f 224/2/2 225/2/2 227/2/2
f 227/2/2 225/2/2 228/2/2
f 226/2/2 221/2/2 229/2/2
f 221/1/2 222/1/2 230/1/2
f 229/2/2 221/2/2 230/2/2
f 230/1/2 222/1/2 231/1/2
f 235/2/3 233/2/3 232/2/3
f 236/2/3 233/2/3 235/2/3
f 239/2/3 235/2/3 234/2/3
f 239/1/3 238/1/3 237/1/3
f 239/2/3 237/2/3 236/2/3
f 239/2/3 236/2/3 235/2/3
f 240/1/3 238/1/3 239/1/3
f 241/2/3 239/2/3 234/2/3
f 242/2/3 239/2/3 241/2/3
f 243/2/3 241/2/3 234/2/3
f 244/2/3 241/2/3 243/2/3
f 249/2/3 246/2/3 245/2/3
f 250/2/3 246/2/3 249/2/3
f 251/2/3 246/2/3 250/2/3
f 252/2/3 246/2/3 251/2/3
f 253/1/3 248/1/3 247/1/3
f 254/1/3 248/1/3 253/1/3
f 255/2/3 251/2/3 250/2/3
f 256/2/3 251/2/3 255/2/3
f 260/2/3 251/2/3 256/2/3
f 261/1/3 258/1/3 257/1/3
f 262/1/3 258/1/3 261/1/3
f 263/2/3 260/2/3 259/2/3
f 264/2/3 251/2/3 260/2/3
f 264/2/3 260/2/3 263/2/3
f 267/2/3 266/2/3 265/2/3
f 268/2/3 266/2/3 267/2/3
f 271/2/3 270/2/3 269/2/3
f 272/2/3 270/2/3 271/2/3
f 275/3/3 274/3/3 273/3/3
f 276/3/3 274/3/3 275/3/3
f 279/2/3 278/2/3 277/2/3
f 280/2/3 278/2/3 279/2/3
f 283/3/3 282/3/3 281/3/3
f 284/3/3 282/3/3 283/3/3
f 287/1/3 286/1/3 285/1/3
f 288/1/3 286/1/3 287/1/3
f 291/4/3 290/4/3 289/4/3
f 292/4/3 290/4/3 291/4/3
f 295/3/3 294/3/3 293/3/3
f 296/3/3 294/3/3 295/3/3
f 299/3/3 298/3/3 297/3/3
f 300/3/3 298/3/3 299/3/3
f 303/2/3 302/2/3 301/2/3
f 304/2/3 302/2/3 303/2/3
f 305/2/3 302/2/3 304/2/3
f 306/2/3 302/2/3 305/2/3
f 307/4/3 305/4/3 304/4/3
f 308/4/3 305/4/3 307/4/3
f 309/4/3 305/4/3 308/4/3
f 310/2/3 309/2/3 308/2/3
f 311/2/3 309/2/3 310/2/3
f 314/2/3 313/2/3 312/2/3
f 315/2/3 313/2/3 314/2/3
f 319/2/3 317/2/3 316/2/3
f 320/2/3 317/2/3 319/2/3
f 320/2/3 319/2/3 318/2/3
f 322/2/3 320/2/3 318/2/3
f 322/2/3 321/2/3 320/2/3
f 323/2/3 321/2/3 322/2/3
f 326/3/3 325/3/3 324/3/3
f 327/3/3 325/3/3 326/3/3
f 331/1/3 329/1/3 328/1/3
f 332/1/3 329/1/3 331/1/3
f 334/1/3 331/1/3 330/1/3
f 334/1/3 333/1/3 332/1/3
f 334/1/3 332/1/3 331/1/3
f 336/1/3 334/1/3 330/1/3
f 336/1/3 335/1/3 334/1/3
f 337/1/3 335/1/3 336/1/3
f 338/1/3 335/1/3 337/1/3
f 339/1/3 335/1/3 338/1/3
f 340/1/3 338/1/3 337/1/3
f 341/1/3 338/1/3 340/1/3
f 342/2/4 343/2/4 345/2/4
f 343/2/4 344/2/4 345/2/4
f 345/2/4 344/2/4 346/2/4
f 342/2/4 345/2/4 347/2/4
f 347/2/4 345/2/4 348/2/4
f 342/2/4 347/2/4 349/2/4
f 349/2/4 347/2/4 350/2/4
f 351/2/4 352/2/4 353/2/4
f 353/2/4 352/2/4 354/2/4
f 354/2/4 352/2/4 355/2/4
f 355/2/4 352/2/4 356/2/4
f 354/2/4 355/2/4 359/2/4
f 359/2/4 355/2/4 360/2/4
f 357/4/4 358/4/4 361/4/4
f 361/4/4 358/4/4 362/4/4
f 360/2/4 355/2/4 363/2/4
f 363/2/4 355/2/4 364/2/4
f 365/3/4 366/3/4 369/3/4
f 369/3/4 366/3/4 370/3/4
f 367/2/4 368/2/4 372/2/4
f 371/2/4 372/2/4 373/2/4
f 372/2/4 368/2/4 374/2/4
f 373/2/4 372/2/4 374/2/4
f 375/2/4 376/2/4 377/2/4
f 377/2/4 376/2/4 378/2/4
f 379/3/4 380/3/4 381/3/4
f 381/3/4 380/3/4 382/3/4
f 383/4/4 384/4/4 385/4/4
f 385/4/4 384/4/4 386/4/4
f 387/2/4 388/2/4 389/2/4
f 389/2/4 388/2/4 390/2/4
f 391/3/4 392/3/4 393/3/4
f 393/3/4 392/3/4 394/3/4
f 395/1/4 396/1/4 397/1/4
f 397/1/4 396/1/4 398/1/4
f 399/3/4 400/3/4 401/3/4
f 401/3/4 400/3/4 402/3/4
f 403/1/4 404/1/4 405/1/4
f 405/1/4 404/1/4 406/1/4
f 407/3/4 408/3/4 409/3/4
f 409/3/4 408/3/4 410/3/4
f 411/2/4 412/2/4 413/2/4
f 413/2/4 412/2/4 414/2/4
f 415/2/4 416/2/4 417/2/4
f 417/2/4 416/2/4 418/2/4
f 418/2/4 416/2/4 419/2/4
f 419/2/4 416/2/4 420/2/4
f 418/4/4 419/4/4 421/4/4
f 421/4/4 419/4/4 422/4/4
f 422/4/4 419/4/4 423/4/4
f 424/1/4 425/1/4 426/1/4
f 426/1/4 425/1/4 427/1/4
f 422/2/4 423/2/4 429/2/4
f 429/2/4 423/2/4 430/2/4
f 428/4/4 429/4/4 431/4/4
f 429/4/4 430/4/4 431/4/4
f 431/4/4 430/4/4 432/4/4
f 431/2/4 432/2/4 434/2/4
f 432/2/4 433/2/4 434/2/4
f 434/2/4 433/2/4 435/2/4
f 436/1/4 437/1/4 439/1/4
f 439/1/4 437/1/4 440/1/4
f 438/1/4 439/1/4 442/1/4
f 440/1/4 441/1/4 442/1/4
f 439/1/4 440/1/4 442/1/4
f 438/1/4 442/1/4 444/1/4
f 442/1/4 443/1/4 444/1/4
f 444/1/4 443/1/4 445/1/4
f 445/1/4 443/1/4 446/1/4
f 446/1/4 443/1/4 447/1/4
f 445/1/4 446/1/4 448/1/4
f 448/1/4 446/1/4 449/1/4
f 454/2/5 451/2/5 450/2/5
f 455/2/5 451/2/5 454/2/5
f 456/2/5 453/2/5 452/2/5
f 457/2/5 453/2/5 456/2/5
f 462/2/5 461/2/5 460/2/5
f 463/2/5 461/2/5 462/2/5
f 464/2/5 459/2/5 458/2/5
f 465/2/5 459/2/5 464/2/5
f 466/4/5 463/4/5 462/4/5
f 467/2/5 461/2/5 463/2/5
f 467/4/5 463/4/5 466/4/5
f 468/2/5 461/2/5 467/2/5
f 471/2/5 470/2/5 469/2/5
f 472/2/5 470/2/5 471/2/5
f 475/4/5 474/4/5 473/4/5
f 476/4/5 474/4/5 475/4/5
f 479/2/5 478/2/5 477/2/5
f 480/2/5 478/2/5 479/2/5
f 481/2/5 478/2/5 480/2/5
f 482/2/5 478/2/5 481/2/5
f 483/2/5 481/2/5 480/2/5
f 484/2/5 481/2/5 483/2/5
f 486/2/5 483/2/5 480/2/5
f 487/2/5 483/2/5 486/2/5
f 488/2/5 481/2/5 484/2/5
f 489/2/5 481/2/5 488/2/5
f 491/2/5 487/2/5 486/2/5
f 491/2/5 490/2/5 489/2/5
f 491/2/5 489/2/5 488/2/5
f 491/2/5 488/2/5 487/2/5
f 491/2/5 486/2/5 485/2/5
f 492/2/5 491/2/5 485/2/5
f 493/2/5 491/2/5 492/2/5
f 496/2/5 495/2/5 494/2/5
f 497/2/5 495/2/5 496/2/5
f 504/2/5 501/2/5 500/2/5
f 505/2/5 501/2/5 504/2/5
f 506/2/5 499/2/5 498/2/5
f 507/2/5 499/2/5 506/2/5
f 508/2/5 499/2/5 507/2/5
f 509/2/5 503/2/5 502/2/5
f 510/2/5 503/2/5 509/2/5
f 511/2/5 504/2/5 500/2/5
f 512/2/5 504/2/5 511/2/5
f 517/1/5 514/1/5 513/1/5
f 517/1/5 516/1/5 515/1/5
f 517/1/5 515/1/5 514/1/5
f 518/1/5 516/1/5 517/1/5
f 523/2/5 520/2/5 519/2/5
f 524/2/5 520/2/5 523/2/5
f 525/2/5 522/2/5 521/2/5
f 526/2/5 522/2/5 525/2/5
f 531/1/5 528/1/5 527/1/5
f 532/1/5 528/1/5 531/1/5
f 533/1/5 530/1/5 529/1/5
f 534/1/5 530/1/5 533/1/5
f 537/2/5 536/2/5 535/2/5
f 538/2/5 536/2/5 537/2/5
f 541/3/5 540/3/5 539/3/5
f 542/3/5 540/3/5 541/3/5
f 545/3/5 544/3/5 543/3/5
f 546/3/5 544/3/5 545/3/5
f 549/4/5 548/4/5 547/4/5
f 550/4/5 548/4/5 549/4/5
f 555/3/5 552/3/5 551/3/5
f 556/3/5 552/3/5 555/3/5
f 557/3/5 552/3/5 556/3/5
f 559/3/5 557/3/5 556/3/5
f 559/2/5 558/2/5 557/2/5
f 560/2/5 558/2/5 559/2/5
f 561/4/5 554/4/5 553/4/5
f 563/3/5 559/3/5 556/3/5
f 565/4/5 561/4/5 553/4/5
f 566/3/5 562/3/5 561/3/5
f 566/4/5 561/4/5 565/4/5
f 567/3/5 564/3/5 563/3/5
f 567/3/5 563/3/5 556/3/5
f 568/3/5 564/3/5 567/3/5
f 569/3/5 562/3/5 566/3/5
f 571/3/5 569/3/5 566/3/5
f 571/3/5 570/3/5 569/3/5
f 572/3/5 570/3/5 571/3/5
f 573/3/5 564/3/5 568/3/5
f 574/3/5 564/3/5 573/3/5
f 577/1/5 576/1/5 575/1/5
f 579/1/5 577/1/5 575/1/5
f 579/1/5 578/1/5 577/1/5
f 580/1/5 578/1/5 579/1/5
f 581/1/5 578/1/5 580/1/5
f 583/1/5 581/1/5 580/1/5
f 583/1/5 582/1/5 581/1/5
f 584/1/5 582/1/5 583/1/5
f 585/1/5 582/1/5 584/1/5
f 586/1/5 582/1/5 585/1/5
f 587/2/6 588/2/6 591/2/6
f 591/2/6 588/2/6 592/2/6
f 589/3/6 590/3/6 593/3/6
f 593/3/6 590/3/6 594/3/6
f 594/3/6 590/3/6 595/3/6
f 595/3/6 590/3/6 596/3/6
f 594/3/6 595/3/6 597/3/6
f 597/3/6 595/3/6 598/3/6
f 593/2/6 594/2/6 599/2/6
f 595/2/6 596/2/6 600/2/6
f 600/2/6 596/2/6 601/2/6
f 595/2/6 600/2/6 602/2/6
f 595/2/6 602/2/6 604/2/6
f 602/2/6 603/2/6 604/2/6
f 604/2/6 603/2/6 605/2/6
f 599/2/6 594/2/6 606/2/6
f 594/3/6 597/3/6 607/3/6
f 606/2/6 594/2/6 607/2/6
f 597/2/6 598/2/6 608/2/6
f 607/3/6 597/3/6 608/3/6
f 598/3/6 595/3/6 609/3/6
f 608/2/6 598/2/6 609/2/6
f 595/2/6 604/2/6 610/2/6
f 609/3/6 595/3/6 610/3/6
f 610/2/6 604/2/6 611/2/6
f 607/3/6 608/3/6 612/3/6
f 606/3/6 607/3/6 612/3/6
f 610/3/6 611/3/6 612/3/6
f 609/3/6 610/3/6 612/3/6
f 608/3/6 609/3/6 612/3/6
f 612/3/6 611/3/6 613/3/6
f 616/3/6 617/3/6 618/3/6
f 618/3/6 617/3/6 619/3/6
f 614/4/6 615/4/6 622/4/6
f 622/4/6 615/4/6 623/4/6
f 620/3/6 621/3/6 624/3/6
f 624/3/6 621/3/6 625/3/6
f 626/4/6 627/4/6 628/4/6
f 628/4/6 627/4/6 629/4/6
f 630/2/6 631/2/6 634/2/6
f 634/2/6 631/2/6 635/2/6
f 632/2/6 633/2/6 636/2/6
f 636/2/6 633/2/6 637/2/6
f 637/2/6 633/2/6 638/2/6
f 639/2/6 640/2/6 641/2/6
f 641/2/6 640/2/6 642/2/6
f 643/2/6 644/2/6 645/2/6
f 645/2/6 644/2/6 646/2/6
f 645/1/6 646/1/6 647/1/6
f 647/1/6 646/1/6 648/1/6
f 649/2/6 650/2/6 653/2/6
f 653/2/6 650/2/6 654/2/6
f 654/2/6 650/2/6 655/2/6
f 654/1/6 655/1/6 656/1/6
f 656/1/6 655/1/6 657/1/6
f 656/2/6 657/2/6 659/2/6
f 657/2/6 658/2/6 659/2/6
f 659/2/6 658/2/6 660/2/6
f 660/2/6 658/2/6 661/2/6
f 659/1/6 660/1/6 662/1/6
f 662/1/6 660/1/6 663/1/6
f 662/2/6 663/2/6 665/2/6
f 663/2/6 664/2/6 665/2/6
f 665/2/6 664/2/6 666/2/6
f 651/1/6 652/1/6 667/1/6
f 651/1/6 667/1/6 669/1/6
f 667/1/6 668/1/6 669/1/6
f 669/1/6 668/1/6 670/1/6
f 670/1/6 668/1/6 671/1/6
f 666/2/6 664/2/6 673/2/6
f 673/2/6 664/2/6 674/2/6
f 671/1/6 672/1/6 675/1/6
f 670/1/6 671/1/6 675/1/6
f 675/1/6 672/1/6 676/1/6
f 673/1/6 674/1/6 677/1/6
f 677/1/6 674/1/6 678/1/6
f 679/1/6 680/1/6 681/1/6
f 681/1/6 682/1/6 683/1/6
f 679/1/6 681/1/6 685/1/6
f 683/1/6 684/1/6 685/1/6
f 681/1/6 683/1/6 685/1/6
f 685/1/6 684/1/6 686/1/6
f 686/1/6 684/1/6 687/1/6
f 687/1/6 684/1/6 688/1/6
f 688/1/6 684/1/6 689/1/6
f 689/1/6 684/1/6 690/1/6
