# MagicaVoxel @ Ephtracy

# group
g cupboard

# material
mtllib cupboard.mtl
usemtl palette

# normals
vn -1 0 0
vn 1 0 0
vn 0 0 1
vn 0 0 -1
vn 0 -1 0
vn 0 1 0

# texcoords
vt 0.205078 0.5
vt 0.306641 0.5
vt 0.509766 0.5
vt 0.513672 0.5
vt 0.966797 0.5
vt 0.994141 0.5

# verts
v -16 45 14
v -16 45 -15
v -16 47 18
v -16 47 14
v -16 48 12
v -16 48 -15
v -16 50 18
v -16 50 12
v -15 44 15
v -15 44 -14
v -15 45 14
v -15 45 -14
v -15 46 18
v -15 46 15
v -15 47 19
v -15 47 18
v -15 47 14
v -15 48 12
v -15 48 11
v -15 50 19
v -15 50 18
v -15 50 12
v -15 50 11
v -14 0 17
v -14 0 13
v -14 0 -9
v -14 0 -13
v -14 4 13
v -14 4 -9
v -14 44 15
v -14 44 -13
v -14 46 17
v -14 46 15
v -12 9 18
v -12 9 17
v -12 11 18
v -12 11 17
v -12 37 18
v -12 37 17
v -12 39 18
v -12 39 17
v -11 8 19
v -11 8 17
v -11 9 19
v -11 9 18
v -11 9 17
v -11 11 19
v -11 11 18
v -11 11 17
v -11 12 19
v -11 12 17
v -11 36 19
v -11 36 17
v -11 37 19
v -11 37 18
v -11 37 17
v -11 39 19
v -11 39 18
v -11 39 17
v -11 40 19
v -11 40 17
v -10 3 13
v -10 3 -9
v -10 4 13
v -10 4 -9
v -10 6 18
v -10 6 17
v -10 8 18
v -10 8 17
v -10 9 19
v -10 9 18
v -10 11 19
v -10 11 18
v -10 12 18
v -10 12 17
v -10 36 18
v -10 36 17
v -10 37 19
v -10 37 18
v -10 39 19
v -10 39 18
v -10 40 18
v -10 40 17
v -10 44 18
v -10 44 17
v -9 2 12
v -9 2 -8
v -9 3 12
v -9 3 -8
v -9 7 19
v -9 7 18
v -9 8 19
v -9 8 18
v -9 12 19
v -9 12 18
v -9 36 19
v -9 36 18
v -9 40 19
v -9 40 18
v -9 43 19
v -9 43 18
v 2 6 18
v 2 6 17
v 2 44 18
v 2 44 17
v 3 7 19
v 3 7 18
v 3 43 19
v 3 43 18
v 12 0 17
v 12 0 13
v 12 0 -9
v 12 0 -13
v 12 3 13
v 12 3 -9
v 12 4 17
v 12 4 13
v 12 4 -9
v 12 4 -13
v 16 46 17
v 16 46 -13
v 16 48 11
v 16 48 -13
v 16 50 17
v 16 50 11
v -14 46 17
v -14 46 -13
v -14 48 11
v -14 48 -13
v -14 50 17
v -14 50 11
v -10 0 17
v -10 0 13
v -10 0 -9
v -10 0 -13
v -10 3 13
v -10 3 -9
v -10 4 17
v -10 4 13
v -10 4 -9
v -10 4 -13
v -1 7 19
v -1 7 18
v -1 43 19
v -1 43 18
v 0 6 18
v 0 6 17
v 0 44 18
v 0 44 17
v 11 2 12
v 11 2 -8
v 11 3 12
v 11 3 -8
v 11 7 19
v 11 7 18
v 11 8 19
v 11 8 18
v 11 12 19
v 11 12 18
v 11 36 19
v 11 36 18
v 11 40 19
v 11 40 18
v 11 43 19
v 11 43 18
v 12 3 13
v 12 3 -9
v 12 4 13
v 12 4 -9
v 12 6 18
v 12 6 17
v 12 8 18
v 12 8 17
v 12 9 19
v 12 9 18
v 12 11 19
v 12 11 18
v 12 12 18
v 12 12 17
v 12 36 18
v 12 36 17
v 12 37 19
v 12 37 18
v 12 39 19
v 12 39 18
v 12 40 18
v 12 40 17
v 12 44 18
v 12 44 17
v 13 8 19
v 13 8 17
v 13 9 19
v 13 9 18
v 13 9 17
v 13 11 19
v 13 11 18
v 13 11 17
v 13 12 19
v 13 12 17
v 13 36 19
v 13 36 17
v 13 37 19
v 13 37 18
v 13 37 17
v 13 39 19
v 13 39 18
v 13 39 17
v 13 40 19
v 13 40 17
v 14 9 18
v 14 9 17
v 14 11 18
v 14 11 17
v 14 37 18
v 14 37 17
v 14 39 18
v 14 39 17
v 16 0 17
v 16 0 13
v 16 0 -9
v 16 0 -13
v 16 4 13
v 16 4 -9
v 16 44 15
v 16 44 -13
v 16 46 17
v 16 46 15
v 17 44 15
v 17 44 -14
v 17 45 14
v 17 45 -14
v 17 46 18
v 17 46 15
v 17 47 19
v 17 47 18
v 17 47 14
v 17 48 12
v 17 48 11
v 17 50 19
v 17 50 18
v 17 50 12
v 17 50 11
v 18 45 14
v 18 45 -15
v 18 47 18
v 18 47 14
v 18 48 12
v 18 48 -15
v 18 50 18
v 18 50 12
v -15 47 19
v -15 50 19
v -11 8 19
v -11 9 19
v -11 11 19
v -11 12 19
v -11 36 19
v -11 37 19
v -11 39 19
v -11 40 19
v -10 8 19
v -10 9 19
v -10 11 19
v -10 12 19
v -10 36 19
v -10 37 19
v -10 39 19
v -10 40 19
v -9 7 19
v -9 8 19
v -9 12 19
v -9 36 19
v -9 40 19
v -9 43 19
v -4 24 19
v -4 28 19
v -2 24 19
v -2 28 19
v -1 7 19
v -1 43 19
v 3 7 19
v 3 43 19
v 4 24 19
v 4 28 19
v 6 24 19
v 6 28 19
v 11 7 19
v 11 8 19
v 11 12 19
v 11 36 19
v 11 40 19
v 11 43 19
v 12 8 19
v 12 9 19
v 12 11 19
v 12 12 19
v 12 36 19
v 12 37 19
v 12 39 19
v 12 40 19
v 13 8 19
v 13 9 19
v 13 11 19
v 13 12 19
v 13 36 19
v 13 37 19
v 13 39 19
v 13 40 19
v 17 47 19
v 17 50 19
v -16 47 18
v -16 50 18
v -15 46 18
v -15 47 18
v -15 50 18
v -12 9 18
v -12 11 18
v -12 37 18
v -12 39 18
v -11 9 18
v -11 11 18
v -11 37 18
v -11 39 18
v -10 6 18
v -10 8 18
v -10 9 18
v -10 11 18
v -10 12 18
v -10 36 18
v -10 37 18
v -10 39 18
v -10 40 18
v -10 44 18
v -9 7 18
v -9 8 18
v -9 12 18
v -9 36 18
v -9 40 18
v -9 43 18
v -1 7 18
v -1 43 18
v 0 6 18
v 0 44 18
v 2 6 18
v 2 44 18
v 3 7 18
v 3 43 18
v 11 7 18
v 11 8 18
v 11 12 18
v 11 36 18
v 11 40 18
v 11 43 18
v 12 6 18
v 12 8 18
v 12 9 18
v 12 11 18
v 12 12 18
v 12 36 18
v 12 37 18
v 12 39 18
v 12 40 18
v 12 44 18
v 13 9 18
v 13 11 18
v 13 37 18
v 13 39 18
v 14 9 18
v 14 11 18
v 14 37 18
v 14 39 18
v 17 46 18
v 17 47 18
v 17 50 18
v 18 47 18
v 18 50 18
v -14 0 17
v -14 46 17
v -12 9 17
v -12 11 17
v -12 37 17
v -12 39 17
v -11 8 17
v -11 9 17
v -11 11 17
v -11 12 17
v -11 36 17
v -11 37 17
v -11 39 17
v -11 40 17
v -10 0 17
v -10 4 17
v -10 6 17
v -10 8 17
v -10 12 17
v -10 36 17
v -10 40 17
v -10 44 17
v 0 6 17
v 0 44 17
v 2 6 17
v 2 44 17
v 12 0 17
v 12 4 17
v 12 6 17
v 12 8 17
v 12 12 17
v 12 36 17
v 12 40 17
v 12 44 17
v 13 8 17
v 13 9 17
v 13 11 17
v 13 12 17
v 13 36 17
v 13 37 17
v 13 39 17
v 13 40 17
v 14 9 17
v 14 11 17
v 14 37 17
v 14 39 17
v 16 0 17
v 16 46 17
v -15 44 15
v -15 46 15
v -14 44 15
v -14 46 15
v 16 44 15
v 16 46 15
v 17 44 15
v 17 46 15
v -16 45 14
v -16 47 14
v -15 45 14
v -15 47 14
v 17 45 14
v 17 47 14
v 18 45 14
v 18 47 14
v -10 3 13
v -10 4 13
v 12 3 13
v 12 4 13
v -9 2 12
v -9 3 12
v 11 2 12
v 11 3 12
v -14 0 -9
v -14 4 -9
v -10 0 -9
v -10 3 -9
v -10 4 -9
v 12 0 -9
v 12 3 -9
v 12 4 -9
v 16 0 -9
v 16 4 -9
v -14 46 -13
v -14 48 -13
v 16 46 -13
v 16 48 -13
v -14 46 17
v -14 50 17
v 16 46 17
v 16 50 17
v -14 0 13
v -14 4 13
v -10 0 13
v -10 3 13
v -10 4 13
v 12 0 13
v 12 3 13
v 12 4 13
v 16 0 13
v 16 4 13
v -16 48 12
v -16 50 12
v -15 48 12
v -15 50 12
v 17 48 12
v 17 50 12
v 18 48 12
v 18 50 12
v -15 48 11
v -15 50 11
v -14 48 11
v -14 50 11
v 16 48 11
v 16 50 11
v 17 48 11
v 17 50 11
v -9 2 -8
v -9 3 -8
v 11 2 -8
v 11 3 -8
v -10 3 -9
v -10 4 -9
v 12 3 -9
v 12 4 -9
v -14 0 -13
v -14 44 -13
v -10 0 -13
v -10 4 -13
v 12 0 -13
v 12 4 -13
v 16 0 -13
v 16 44 -13
v -15 44 -14
v -15 45 -14
v 17 44 -14
v 17 45 -14
v -16 45 -15
v -16 48 -15
v 18 45 -15
v 18 48 -15
v -14 0 17
v -10 0 17
v 12 0 17
v 16 0 17
v -14 0 13
v -10 0 13
v 12 0 13
v 16 0 13
v -14 0 -9
v -10 0 -9
v 12 0 -9
v 16 0 -9
v -14 0 -13
v -10 0 -13
v 12 0 -13
v 16 0 -13
v -9 2 12
v 11 2 12
v -9 2 -8
v 11 2 -8
v -10 3 13
v 12 3 13
v -9 3 12
v 11 3 12
v -9 3 -8
v 11 3 -8
v -10 3 -9
v 12 3 -9
v -10 4 17
v 12 4 17
v -14 4 13
v -10 4 13
v 12 4 13
v 16 4 13
v -14 4 -9
v -10 4 -9
v 12 4 -9
v 16 4 -9
v -10 4 -13
v 12 4 -13
v -10 6 18
v 0 6 18
v 2 6 18
v 12 6 18
v -10 6 17
v 0 6 17
v 2 6 17
v 12 6 17
v -9 7 19
v -1 7 19
v 3 7 19
v 11 7 19
v -9 7 18
v -1 7 18
v 3 7 18
v 11 7 18
v -11 8 19
v -10 8 19
v -9 8 19
v 11 8 19
v 12 8 19
v 13 8 19
v -10 8 18
v -9 8 18
v 11 8 18
v 12 8 18
v -11 8 17
v -10 8 17
v 12 8 17
v 13 8 17
v -12 9 18
v -11 9 18
v 13 9 18
v 14 9 18
v -12 9 17
v -11 9 17
v 13 9 17
v 14 9 17
v -11 11 19
v -10 11 19
v 12 11 19
v 13 11 19
v -11 11 18
v -10 11 18
v 12 11 18
v 13 11 18
v -11 36 19
v -10 36 19
v -9 36 19
v 11 36 19
v 12 36 19
v 13 36 19
v -10 36 18
v -9 36 18
v 11 36 18
v 12 36 18
v -11 36 17
v -10 36 17
v 12 36 17
v 13 36 17
v -12 37 18
v -11 37 18
v 13 37 18
v 14 37 18
v -12 37 17
v -11 37 17
v 13 37 17
v 14 37 17
v -11 39 19
v -10 39 19
v 12 39 19
v 13 39 19
v -11 39 18
v -10 39 18
v 12 39 18
v 13 39 18
v -15 44 15
v -14 44 15
v 16 44 15
v 17 44 15
v -14 44 -13
v 16 44 -13
v -15 44 -14
v 17 44 -14
v -16 45 14
v -15 45 14
v 17 45 14
v 18 45 14
v -15 45 -14
v 17 45 -14
v -16 45 -15
v 18 45 -15
v -15 46 18
v 17 46 18
v -14 46 17
v 16 46 17
v -15 46 15
v -14 46 15
v 16 46 15
v 17 46 15
v -15 47 19
v 17 47 19
v -16 47 18
v -15 47 18
v 17 47 18
v 18 47 18
v -16 47 14
v -15 47 14
v 17 47 14
v 18 47 14
v -11 9 19
v -10 9 19
v 12 9 19
v 13 9 19
v -11 9 18
v -10 9 18
v 12 9 18
v 13 9 18
v -12 11 18
v -11 11 18
v 13 11 18
v 14 11 18
v -12 11 17
v -11 11 17
v 13 11 17
v 14 11 17
v -11 12 19
v -10 12 19
v -9 12 19
v 11 12 19
v 12 12 19
v 13 12 19
v -10 12 18
v -9 12 18
v 11 12 18
v 12 12 18
v -11 12 17
v -10 12 17
v 12 12 17
v 13 12 17
v -11 37 19
v -10 37 19
v 12 37 19
v 13 37 19
v -11 37 18
v -10 37 18
v 12 37 18
v 13 37 18
v -12 39 18
v -11 39 18
v 13 39 18
v 14 39 18
v -12 39 17
v -11 39 17
v 13 39 17
v 14 39 17
v -11 40 19
v -10 40 19
v -9 40 19
v 11 40 19
v 12 40 19
v 13 40 19
v -10 40 18
v -9 40 18
v 11 40 18
v 12 40 18
v -11 40 17
v -10 40 17
v 12 40 17
v 13 40 17
v -9 43 19
v -1 43 19
v 3 43 19
v 11 43 19
v -9 43 18
v -1 43 18
v 3 43 18
v 11 43 18
v -10 44 18
v 0 44 18
v 2 44 18
v 12 44 18
v -10 44 17
v 0 44 17
v 2 44 17
v 12 44 17
v -14 46 17
v 16 46 17
v -14 46 -13
v 16 46 -13
v -16 48 12
v -15 48 12
v 17 48 12
v 18 48 12
v -15 48 11
v -14 48 11
v 16 48 11
v 17 48 11
v -14 48 -13
v 16 48 -13
v -16 48 -15
v 18 48 -15
v -15 50 19
v 17 50 19
v -16 50 18
v -15 50 18
v 17 50 18
v 18 50 18
v -14 50 17
v 16 50 17
v -16 50 12
v -15 50 12
v 17 50 12
v 18 50 12
v -15 50 11
v -14 50 11
v 16 50 11
v 17 50 11

# faces
f 4/1/1 2/1/1 1/1/1
f 5/1/1 2/1/1 4/1/1
f 5/1/1 4/1/1 3/1/1
f 6/1/1 2/1/1 5/1/1
f 7/1/1 5/1/1 3/1/1
f 8/1/1 5/1/1 7/1/1
f 11/1/1 10/1/1 9/1/1
f 12/1/1 10/1/1 11/1/1
f 14/1/1 11/1/1 9/1/1
f 16/1/1 14/1/1 13/1/1
f 17/1/1 11/1/1 14/1/1
f 17/1/1 14/1/1 16/1/1
f 20/1/1 16/1/1 15/1/1
f 21/1/1 16/1/1 20/1/1
f 22/1/1 19/1/1 18/1/1
f 23/1/1 19/1/1 22/1/1
f 28/1/1 25/1/1 24/1/1
f 29/1/1 27/1/1 26/1/1
f 30/1/1 28/1/1 24/1/1
f 30/1/1 29/1/1 28/1/1
f 31/1/1 27/1/1 29/1/1
f 31/1/1 29/1/1 30/1/1
f 32/1/1 30/1/1 24/1/1
f 33/1/1 30/1/1 32/1/1
f 36/5/1 35/5/1 34/5/1
f 37/5/1 35/5/1 36/5/1
f 40/5/1 39/5/1 38/5/1
f 41/5/1 39/5/1 40/5/1
f 44/5/1 43/5/1 42/5/1
f 45/5/1 43/5/1 44/5/1
f 46/5/1 43/5/1 45/5/1
f 50/5/1 48/5/1 47/5/1
f 50/5/1 49/5/1 48/5/1
f 51/5/1 49/5/1 50/5/1
f 54/5/1 53/5/1 52/5/1
f 55/5/1 53/5/1 54/5/1
f 56/5/1 53/5/1 55/5/1
f 60/5/1 58/5/1 57/5/1
f 60/5/1 59/5/1 58/5/1
f 61/5/1 59/5/1 60/5/1
f 64/1/1 63/1/1 62/1/1
f 65/1/1 63/1/1 64/1/1
f 68/3/1 67/3/1 66/3/1
f 69/3/1 67/3/1 68/3/1
f 72/3/1 71/3/1 70/3/1
f 73/3/1 71/3/1 72/3/1
f 76/3/1 75/3/1 74/3/1
f 77/3/1 75/3/1 76/3/1
f 80/3/1 79/3/1 78/3/1
f 81/3/1 79/3/1 80/3/1
f 84/3/1 83/3/1 82/3/1
f 85/3/1 83/3/1 84/3/1
f 88/1/1 87/1/1 86/1/1
f 89/1/1 87/1/1 88/1/1
f 92/3/1 91/3/1 90/3/1
f 93/3/1 91/3/1 92/3/1
f 96/3/1 95/3/1 94/3/1
f 97/3/1 95/3/1 96/3/1
f 100/3/1 99/3/1 98/3/1
f 101/3/1 99/3/1 100/3/1
f 104/3/1 103/3/1 102/3/1
f 105/3/1 103/3/1 104/3/1
f 108/3/1 107/3/1 106/3/1
f 109/3/1 107/3/1 108/3/1
f 114/1/1 111/1/1 110/1/1
f 115/1/1 113/1/1 112/1/1
f 116/1/1 114/1/1 110/1/1
f 117/1/1 114/1/1 116/1/1
f 118/1/1 113/1/1 115/1/1
f 119/1/1 113/1/1 118/1/1
f 122/1/1 121/1/1 120/1/1
f 123/1/1 121/1/1 122/1/1
f 124/1/1 122/1/1 120/1/1
f 125/1/1 122/1/1 124/1/1
f 126/1/2 127/1/2 128/1/2
f 128/1/2 127/1/2 129/1/2
f 126/1/2 128/1/2 130/1/2
f 130/1/2 128/1/2 131/1/2
f 132/1/2 133/1/2 136/1/2
f 134/1/2 135/1/2 137/1/2
f 132/1/2 136/1/2 138/1/2
f 138/1/2 136/1/2 139/1/2
f 137/1/2 135/1/2 140/1/2
f 140/1/2 135/1/2 141/1/2
f 142/3/2 143/3/2 144/3/2
f 144/3/2 143/3/2 145/3/2
f 146/3/2 147/3/2 148/3/2
f 148/3/2 147/3/2 149/3/2
f 150/1/2 151/1/2 152/1/2
f 152/1/2 151/1/2 153/1/2
f 154/3/2 155/3/2 156/3/2
f 156/3/2 155/3/2 157/3/2
f 158/3/2 159/3/2 160/3/2
f 160/3/2 159/3/2 161/3/2
f 162/3/2 163/3/2 164/3/2
f 164/3/2 163/3/2 165/3/2
f 166/1/2 167/1/2 168/1/2
f 168/1/2 167/1/2 169/1/2
f 170/3/2 171/3/2 172/3/2
f 172/3/2 171/3/2 173/3/2
f 174/3/2 175/3/2 176/3/2
f 176/3/2 175/3/2 177/3/2
f 178/3/2 179/3/2 180/3/2
f 180/3/2 179/3/2 181/3/2
f 182/3/2 183/3/2 184/3/2
f 184/3/2 183/3/2 185/3/2
f 186/3/2 187/3/2 188/3/2
f 188/3/2 187/3/2 189/3/2
f 190/5/2 191/5/2 192/5/2
f 192/5/2 191/5/2 193/5/2
f 193/5/2 191/5/2 194/5/2
f 195/5/2 196/5/2 198/5/2
f 196/5/2 197/5/2 198/5/2
f 198/5/2 197/5/2 199/5/2
f 200/5/2 201/5/2 202/5/2
f 202/5/2 201/5/2 203/5/2
f 203/5/2 201/5/2 204/5/2
f 205/5/2 206/5/2 208/5/2
f 206/5/2 207/5/2 208/5/2
f 208/5/2 207/5/2 209/5/2
f 210/5/2 211/5/2 212/5/2
f 212/5/2 211/5/2 213/5/2
f 214/5/2 215/5/2 216/5/2
f 216/5/2 215/5/2 217/5/2
f 218/1/2 219/1/2 222/1/2
f 220/1/2 221/1/2 223/1/2
f 218/1/2 222/1/2 224/1/2
f 222/1/2 223/1/2 224/1/2
f 223/1/2 221/1/2 225/1/2
f 224/1/2 223/1/2 225/1/2
f 218/1/2 224/1/2 226/1/2
f 226/1/2 224/1/2 227/1/2
f 228/1/2 229/1/2 230/1/2
f 230/1/2 229/1/2 231/1/2
f 228/1/2 230/1/2 233/1/2
f 232/1/2 233/1/2 235/1/2
f 233/1/2 230/1/2 236/1/2
f 235/1/2 233/1/2 236/1/2
f 234/1/2 235/1/2 239/1/2
f 239/1/2 235/1/2 240/1/2
f 237/1/2 238/1/2 241/1/2
f 241/1/2 238/1/2 242/1/2
f 243/1/2 244/1/2 246/1/2
f 246/1/2 244/1/2 247/1/2
f 245/1/2 246/1/2 247/1/2
f 247/1/2 244/1/2 248/1/2
f 245/1/2 247/1/2 249/1/2
f 249/1/2 247/1/2 250/1/2
f 261/5/3 254/5/3 253/5/3
f 262/5/3 254/5/3 261/5/3
f 263/5/3 256/5/3 255/5/3
f 264/5/3 256/5/3 263/5/3
f 265/5/3 258/5/3 257/5/3
f 266/5/3 258/5/3 265/5/3
f 267/5/3 260/5/3 259/5/3
f 268/5/3 260/5/3 267/5/3
f 270/3/3 262/3/3 261/3/3
f 270/3/3 264/3/3 263/3/3
f 270/3/3 263/3/3 262/3/3
f 271/3/3 264/3/3 270/3/3
f 272/3/3 266/3/3 265/3/3
f 272/3/3 268/3/3 267/3/3
f 272/3/3 267/3/3 266/3/3
f 273/3/3 268/3/3 272/3/3
f 275/3/3 271/3/3 270/3/3
f 275/3/3 274/3/3 273/3/3
f 275/3/3 272/3/3 271/3/3
f 275/3/3 273/3/3 272/3/3
f 275/3/3 270/3/3 269/3/3
f 276/3/3 274/3/3 275/3/3
f 277/3/3 275/3/3 269/3/3
f 277/6/3 276/6/3 275/6/3
f 278/3/3 274/3/3 276/3/3
f 278/6/3 276/6/3 277/6/3
f 279/3/3 277/3/3 269/3/3
f 279/3/3 278/3/3 277/3/3
f 280/3/3 274/3/3 278/3/3
f 280/3/3 278/3/3 279/3/3
f 283/3/3 282/3/3 281/3/3
f 284/3/3 282/3/3 283/3/3
f 285/3/3 283/3/3 281/3/3
f 285/6/3 284/6/3 283/6/3
f 286/3/3 282/3/3 284/3/3
f 286/6/3 284/6/3 285/6/3
f 287/3/3 285/3/3 281/3/3
f 287/3/3 286/3/3 285/3/3
f 288/3/3 286/3/3 287/3/3
f 289/3/3 286/3/3 288/3/3
f 290/3/3 282/3/3 286/3/3
f 290/3/3 286/3/3 289/3/3
f 291/3/3 282/3/3 290/3/3
f 292/3/3 282/3/3 291/3/3
f 293/3/3 289/3/3 288/3/3
f 294/3/3 289/3/3 293/3/3
f 295/3/3 289/3/3 294/3/3
f 296/3/3 289/3/3 295/3/3
f 297/3/3 291/3/3 290/3/3
f 298/3/3 291/3/3 297/3/3
f 299/3/3 291/3/3 298/3/3
f 300/3/3 291/3/3 299/3/3
f 301/5/3 294/5/3 293/5/3
f 302/5/3 294/5/3 301/5/3
f 303/5/3 296/5/3 295/5/3
f 304/5/3 296/5/3 303/5/3
f 305/5/3 298/5/3 297/5/3
f 306/5/3 298/5/3 305/5/3
f 307/5/3 300/5/3 299/5/3
f 308/5/3 300/5/3 307/5/3
f 309/1/3 252/1/3 251/1/3
f 310/1/3 252/1/3 309/1/3
f 314/1/3 312/1/3 311/1/3
f 315/1/3 312/1/3 314/1/3
f 320/5/3 317/5/3 316/5/3
f 321/5/3 317/5/3 320/5/3
f 322/5/3 319/5/3 318/5/3
f 323/5/3 319/5/3 322/5/3
f 326/5/3 321/5/3 320/5/3
f 327/5/3 321/5/3 326/5/3
f 330/5/3 323/5/3 322/5/3
f 331/5/3 323/5/3 330/5/3
f 334/3/3 325/3/3 324/3/3
f 335/3/3 325/3/3 334/3/3
f 336/3/3 329/3/3 328/3/3
f 337/3/3 329/3/3 336/3/3
f 338/3/3 333/3/3 332/3/3
f 339/3/3 333/3/3 338/3/3
f 340/3/3 334/3/3 324/3/3
f 341/3/3 333/3/3 339/3/3
f 342/3/3 340/3/3 324/3/3
f 342/3/3 341/3/3 340/3/3
f 343/3/3 333/3/3 341/3/3
f 343/3/3 341/3/3 342/3/3
f 346/3/3 345/3/3 344/3/3
f 347/3/3 345/3/3 346/3/3
f 348/3/3 346/3/3 344/3/3
f 353/3/3 345/3/3 347/3/3
f 354/3/3 348/3/3 344/3/3
f 354/3/3 349/3/3 348/3/3
f 355/3/3 349/3/3 354/3/3
f 358/3/3 351/3/3 350/3/3
f 359/3/3 351/3/3 358/3/3
f 362/3/3 353/3/3 352/3/3
f 363/3/3 345/3/3 353/3/3
f 363/3/3 353/3/3 362/3/3
f 364/5/3 357/5/3 356/5/3
f 365/5/3 357/5/3 364/5/3
f 366/5/3 361/5/3 360/5/3
f 367/5/3 361/5/3 366/5/3
f 368/5/3 365/5/3 364/5/3
f 369/5/3 365/5/3 368/5/3
f 370/5/3 367/5/3 366/5/3
f 371/5/3 367/5/3 370/5/3
f 372/1/3 314/1/3 313/1/3
f 373/1/3 314/1/3 372/1/3
f 375/1/3 374/1/3 373/1/3
f 376/1/3 374/1/3 375/1/3
f 379/1/3 378/1/3 377/1/3
f 380/1/3 378/1/3 379/1/3
f 381/1/3 378/1/3 380/1/3
f 382/1/3 378/1/3 381/1/3
f 383/1/3 379/1/3 377/1/3
f 384/1/3 379/1/3 383/1/3
f 385/1/3 381/1/3 380/1/3
f 386/1/3 381/1/3 385/1/3
f 387/1/3 381/1/3 386/1/3
f 388/1/3 381/1/3 387/1/3
f 389/1/3 378/1/3 382/1/3
f 390/1/3 378/1/3 389/1/3
f 391/1/3 383/1/3 377/1/3
f 392/1/3 383/1/3 391/1/3
f 393/1/3 383/1/3 392/1/3
f 394/1/3 383/1/3 393/1/3
f 395/1/3 387/1/3 386/1/3
f 396/1/3 387/1/3 395/1/3
f 397/1/3 378/1/3 390/1/3
f 398/1/3 378/1/3 397/1/3
f 399/1/3 393/1/3 392/1/3
f 400/1/3 378/1/3 398/1/3
f 401/1/3 399/1/3 392/1/3
f 401/1/3 400/1/3 399/1/3
f 402/1/3 378/1/3 400/1/3
f 402/1/3 400/1/3 401/1/3
f 404/1/3 401/1/3 392/1/3
f 405/1/3 401/1/3 404/1/3
f 410/1/3 378/1/3 402/1/3
f 411/1/3 404/1/3 403/1/3
f 411/1/3 405/1/3 404/1/3
f 411/1/3 406/1/3 405/1/3
f 414/1/3 408/1/3 407/1/3
f 415/1/3 408/1/3 414/1/3
f 418/1/3 410/1/3 409/1/3
f 419/1/3 412/1/3 411/1/3
f 420/1/3 416/1/3 415/1/3
f 420/1/3 414/1/3 413/1/3
f 420/1/3 415/1/3 414/1/3
f 421/1/3 416/1/3 420/1/3
f 422/1/3 418/1/3 417/1/3
f 423/1/3 421/1/3 420/1/3
f 423/1/3 422/1/3 421/1/3
f 423/1/3 419/1/3 411/1/3
f 423/1/3 411/1/3 403/1/3
f 423/1/3 420/1/3 419/1/3
f 424/1/3 418/1/3 422/1/3
f 424/1/3 422/1/3 423/1/3
f 424/1/3 378/1/3 410/1/3
f 424/1/3 410/1/3 418/1/3
f 427/1/3 426/1/3 425/1/3
f 428/1/3 426/1/3 427/1/3
f 431/1/3 430/1/3 429/1/3
f 432/1/3 430/1/3 431/1/3
f 435/1/3 434/1/3 433/1/3
f 436/1/3 434/1/3 435/1/3
f 439/1/3 438/1/3 437/1/3
f 440/1/3 438/1/3 439/1/3
f 443/1/3 442/1/3 441/1/3
f 444/1/3 442/1/3 443/1/3
f 447/1/3 446/1/3 445/1/3
f 448/1/3 446/1/3 447/1/3
f 451/1/3 450/1/3 449/1/3
f 452/1/3 450/1/3 451/1/3
f 453/1/3 450/1/3 452/1/3
f 457/1/3 455/1/3 454/1/3
f 457/1/3 456/1/3 455/1/3
f 458/1/3 456/1/3 457/1/3
f 461/1/3 460/1/3 459/1/3
f 462/1/3 460/1/3 461/1/3
f 463/1/4 464/1/4 465/1/4
f 465/1/4 464/1/4 466/1/4
f 467/1/4 468/1/4 469/1/4
f 469/1/4 468/1/4 470/1/4
f 470/1/4 468/1/4 471/1/4
f 472/1/4 473/1/4 475/1/4
f 473/1/4 474/1/4 475/1/4
f 475/1/4 474/1/4 476/1/4
f 477/1/4 478/1/4 479/1/4
f 479/1/4 478/1/4 480/1/4
f 481/1/4 482/1/4 483/1/4
f 483/1/4 482/1/4 484/1/4
f 485/1/4 486/1/4 487/1/4
f 487/1/4 486/1/4 488/1/4
f 489/1/4 490/1/4 491/1/4
f 491/1/4 490/1/4 492/1/4
f 493/1/4 494/1/4 495/1/4
f 495/1/4 494/1/4 496/1/4
f 497/1/4 498/1/4 499/1/4
f 499/1/4 498/1/4 500/1/4
f 501/1/4 502/1/4 503/1/4
f 503/1/4 502/1/4 504/1/4
f 504/1/4 502/1/4 506/1/4
f 505/1/4 506/1/4 507/1/4
f 506/1/4 502/1/4 508/1/4
f 507/1/4 506/1/4 508/1/4
f 509/1/4 510/1/4 511/1/4
f 511/1/4 510/1/4 512/1/4
f 513/1/4 514/1/4 515/1/4
f 515/1/4 514/1/4 516/1/4
f 521/1/5 518/1/5 517/1/5
f 522/1/5 518/1/5 521/1/5
f 523/1/5 520/1/5 519/1/5
f 524/1/5 520/1/5 523/1/5
f 529/1/5 526/1/5 525/1/5
f 530/1/5 526/1/5 529/1/5
f 531/1/5 528/1/5 527/1/5
f 532/1/5 528/1/5 531/1/5
f 535/1/5 534/1/5 533/1/5
f 536/1/5 534/1/5 535/1/5
f 539/1/5 538/1/5 537/1/5
f 540/1/5 538/1/5 539/1/5
f 541/1/5 539/1/5 537/1/5
f 542/1/5 538/1/5 540/1/5
f 543/1/5 541/1/5 537/1/5
f 543/1/5 542/1/5 541/1/5
f 544/1/5 538/1/5 542/1/5
f 544/1/5 542/1/5 543/1/5
f 548/1/5 546/1/5 545/1/5
f 549/1/5 546/1/5 548/1/5
f 551/1/5 548/1/5 547/1/5
f 552/1/5 548/1/5 551/1/5
f 553/1/5 550/1/5 549/1/5
f 554/1/5 550/1/5 553/1/5
f 555/1/5 553/1/5 552/1/5
f 556/1/5 553/1/5 555/1/5
f 561/3/5 558/3/5 557/3/5
f 562/3/5 558/3/5 561/3/5
f 563/3/5 560/3/5 559/3/5
f 564/3/5 560/3/5 563/3/5
f 569/3/5 566/3/5 565/3/5
f 570/3/5 566/3/5 569/3/5
f 571/3/5 568/3/5 567/3/5
f 572/3/5 568/3/5 571/3/5
f 579/5/5 574/5/5 573/5/5
f 579/3/5 575/3/5 574/3/5
f 580/3/5 575/3/5 579/3/5
f 581/3/5 577/3/5 576/3/5
f 582/5/5 578/5/5 577/5/5
f 582/3/5 577/3/5 581/3/5
f 583/5/5 579/5/5 573/5/5
f 584/5/5 579/5/5 583/5/5
f 585/5/5 578/5/5 582/5/5
f 586/5/5 578/5/5 585/5/5
f 591/5/5 588/5/5 587/5/5
f 592/5/5 588/5/5 591/5/5
f 593/5/5 590/5/5 589/5/5
f 594/5/5 590/5/5 593/5/5
f 599/5/5 596/5/5 595/5/5
f 600/5/5 596/5/5 599/5/5
f 601/5/5 598/5/5 597/5/5
f 602/5/5 598/5/5 601/5/5
f 609/5/5 604/5/5 603/5/5
f 609/3/5 605/3/5 604/3/5
f 610/3/5 605/3/5 609/3/5
f 611/3/5 607/3/5 606/3/5
f 612/5/5 608/5/5 607/5/5
f 612/3/5 607/3/5 611/3/5
f 613/5/5 609/5/5 603/5/5
f 614/5/5 609/5/5 613/5/5
f 615/5/5 608/5/5 612/5/5
f 616/5/5 608/5/5 615/5/5
f 621/5/5 618/5/5 617/5/5
f 622/5/5 618/5/5 621/5/5
f 623/5/5 620/5/5 619/5/5
f 624/5/5 620/5/5 623/5/5
f 629/5/5 626/5/5 625/5/5
f 630/5/5 626/5/5 629/5/5
f 631/5/5 628/5/5 627/5/5
f 632/5/5 628/5/5 631/5/5
f 637/1/5 634/1/5 633/1/5
f 638/1/5 636/1/5 635/1/5
f 639/1/5 637/1/5 633/1/5
f 639/1/5 638/1/5 637/1/5
f 640/1/5 636/1/5 638/1/5
f 640/1/5 638/1/5 639/1/5
f 645/1/5 642/1/5 641/1/5
f 646/1/5 644/1/5 643/1/5
f 647/1/5 645/1/5 641/1/5
f 647/1/5 646/1/5 645/1/5
f 648/1/5 644/1/5 646/1/5
f 648/1/5 646/1/5 647/1/5
f 651/1/5 650/1/5 649/1/5
f 652/1/5 650/1/5 651/1/5
f 653/1/5 651/1/5 649/1/5
f 654/1/5 651/1/5 653/1/5
f 655/1/5 650/1/5 652/1/5
f 656/1/5 650/1/5 655/1/5
f 660/1/5 658/1/5 657/1/5
f 661/1/5 658/1/5 660/1/5
f 663/1/5 660/1/5 659/1/5
f 664/1/5 660/1/5 663/1/5
f 665/1/5 662/1/5 661/1/5
f 666/1/5 662/1/5 665/1/5
f 667/5/6 668/5/6 671/5/6
f 671/5/6 668/5/6 672/5/6
f 669/5/6 670/5/6 673/5/6
f 673/5/6 670/5/6 674/5/6
f 675/5/6 676/5/6 679/5/6
f 679/5/6 676/5/6 680/5/6
f 677/5/6 678/5/6 681/5/6
f 681/5/6 678/5/6 682/5/6
f 683/5/6 684/5/6 689/5/6
f 684/3/6 685/3/6 689/3/6
f 689/3/6 685/3/6 690/3/6
f 686/3/6 687/3/6 691/3/6
f 687/5/6 688/5/6 692/5/6
f 691/3/6 687/3/6 692/3/6
f 683/5/6 689/5/6 693/5/6
f 693/5/6 689/5/6 694/5/6
f 692/5/6 688/5/6 695/5/6
f 695/5/6 688/5/6 696/5/6
f 697/5/6 698/5/6 701/5/6
f 701/5/6 698/5/6 702/5/6
f 699/5/6 700/5/6 703/5/6
f 703/5/6 700/5/6 704/5/6
f 705/5/6 706/5/6 709/5/6
f 709/5/6 706/5/6 710/5/6
f 707/5/6 708/5/6 711/5/6
f 711/5/6 708/5/6 712/5/6
f 713/5/6 714/5/6 719/5/6
f 714/3/6 715/3/6 719/3/6
f 719/3/6 715/3/6 720/3/6
f 716/3/6 717/3/6 721/3/6
f 717/5/6 718/5/6 722/5/6
f 721/3/6 717/3/6 722/3/6
f 713/5/6 719/5/6 723/5/6
f 723/5/6 719/5/6 724/5/6
f 722/5/6 718/5/6 725/5/6
f 725/5/6 718/5/6 726/5/6
f 727/3/6 728/3/6 731/3/6
f 731/3/6 728/3/6 732/3/6
f 729/3/6 730/3/6 733/3/6
f 733/3/6 730/3/6 734/3/6
f 735/3/6 736/3/6 739/3/6
f 739/3/6 736/3/6 740/3/6
f 737/3/6 738/3/6 741/3/6
f 741/3/6 738/3/6 742/3/6
f 743/1/6 744/1/6 745/1/6
f 745/1/6 744/1/6 746/1/6
f 747/1/6 748/1/6 751/1/6
f 749/1/6 750/1/6 754/1/6
f 751/1/6 752/1/6 755/1/6
f 753/1/6 754/1/6 756/1/6
f 751/1/6 755/1/6 757/1/6
f 755/1/6 756/1/6 757/1/6
f 747/1/6 751/1/6 757/1/6
f 756/1/6 754/1/6 758/1/6
f 757/1/6 756/1/6 758/1/6
f 754/1/6 750/1/6 758/1/6
f 759/1/6 760/1/6 762/1/6
f 762/1/6 760/1/6 763/1/6
f 761/1/6 762/1/6 765/1/6
f 763/1/6 764/1/6 765/1/6
f 762/1/6 763/1/6 765/1/6
f 765/1/6 764/1/6 766/1/6
f 761/1/6 765/1/6 767/1/6
f 767/1/6 765/1/6 768/1/6
f 766/1/6 764/1/6 769/1/6
f 769/1/6 764/1/6 770/1/6
f 768/1/6 765/1/6 771/1/6
f 771/1/6 765/1/6 772/1/6
f 766/1/6 769/1/6 773/1/6
f 773/1/6 769/1/6 774/1/6
