# MagicaVoxel @ Ephtracy

# group
g cupboard4

# material
mtllib cupboard4.mtl
usemtl palette

# normals
vn -1 0 0
vn 1 0 0
vn 0 0 1
vn 0 0 -1
vn 0 -1 0
vn 0 1 0

# texcoords
vt 0.177734 0.5
vt 0.181641 0.5
vt 0.486328 0.5
vt 0.677734 0.5

# verts
v -34 0 8
v -34 0 4
v -34 0 -6
v -34 0 -10
v -34 4 4
v -34 4 -6
v -34 54 8
v -34 54 -10
v -30 8 10
v -30 8 8
v -30 14 10
v -30 14 8
v -30 18 10
v -30 18 8
v -30 24 10
v -30 24 8
v 30 0 8
v 30 0 4
v 30 0 -6
v 30 0 -10
v 30 4 8
v 30 4 4
v 30 4 -6
v 30 4 -10
v 32 26 8
v 32 26 -8
v 32 38 8
v 32 38 -8
v 32 40 8
v 32 40 -8
v 32 52 8
v 32 52 -8
v -32 26 8
v -32 26 -8
v -32 38 8
v -32 38 -8
v -32 40 8
v -32 40 -8
v -32 52 8
v -32 52 -8
v -30 0 8
v -30 0 4
v -30 0 -6
v -30 0 -10
v -30 4 8
v -30 4 4
v -30 4 -6
v -30 4 -10
v 30 8 10
v 30 8 8
v 30 14 10
v 30 14 8
v 30 18 10
v 30 18 8
v 30 24 10
v 30 24 8
v 34 0 8
v 34 0 4
v 34 0 -6
v 34 0 -10
v 34 4 4
v 34 4 -6
v 34 54 8
v 34 54 -10
v -30 8 10
v -30 14 10
v -30 18 10
v -30 24 10
v -2 10 10
v -2 12 10
v -2 20 10
v -2 22 10
v 2 10 10
v 2 12 10
v 2 20 10
v 2 22 10
v 30 8 10
v 30 14 10
v 30 18 10
v 30 24 10
v -34 0 8
v -34 54 8
v -32 26 8
v -32 38 8
v -32 40 8
v -32 52 8
v -30 0 8
v -30 4 8
v -30 8 8
v -30 14 8
v -30 18 8
v -30 24 8
v 30 0 8
v 30 4 8
v 30 8 8
v 30 14 8
v 30 18 8
v 30 24 8
v 32 26 8
v 32 38 8
v 32 40 8
v 32 52 8
v 34 0 8
v 34 54 8
v -34 0 -6
v -34 4 -6
v -30 0 -6
v -30 4 -6
v 30 0 -6
v 30 4 -6
v 34 0 -6
v 34 4 -6
v -32 26 -8
v -32 38 -8
v -32 40 -8
v -32 52 -8
v 32 26 -8
v 32 38 -8
v 32 40 -8
v 32 52 -8
v -34 0 4
v -34 4 4
v -30 0 4
v -30 4 4
v 30 0 4
v 30 4 4
v 34 0 4
v 34 4 4
v -34 0 -10
v -34 54 -10
v -30 0 -10
v -30 4 -10
v 30 0 -10
v 30 4 -10
v 34 0 -10
v 34 54 -10
v -34 0 8
v -30 0 8
v 30 0 8
v 34 0 8
v -34 0 4
v -30 0 4
v 30 0 4
v 34 0 4
v -34 0 -6
v -30 0 -6
v 30 0 -6
v 34 0 -6
v -34 0 -10
v -30 0 -10
v 30 0 -10
v 34 0 -10
v -30 4 8
v 30 4 8
v -34 4 4
v -30 4 4
v 30 4 4
v 34 4 4
v -34 4 -6
v -30 4 -6
v 30 4 -6
v 34 4 -6
v -30 4 -10
v 30 4 -10
v -30 8 10
v 30 8 10
v -30 8 8
v 30 8 8
v -30 18 10
v 30 18 10
v -30 18 8
v 30 18 8
v -32 38 8
v 32 38 8
v -32 38 -8
v 32 38 -8
v -32 52 8
v 32 52 8
v -32 52 -8
v 32 52 -8
v -30 14 10
v 30 14 10
v -30 14 8
v 30 14 8
v -30 24 10
v 30 24 10
v -30 24 8
v 30 24 8
v -32 26 8
v 32 26 8
v -32 26 -8
v 32 26 -8
v -32 40 8
v 32 40 8
v -32 40 -8
v 32 40 -8
v -34 54 8
v 34 54 8
v -34 54 -10
v 34 54 -10

# faces
f 5/1/1 2/1/1 1/1/1
f 6/1/1 4/1/1 3/1/1
f 7/1/1 5/1/1 1/1/1
f 7/1/1 6/1/1 5/1/1
f 8/1/1 4/1/1 6/1/1
f 8/1/1 6/1/1 7/1/1
f 11/2/1 10/2/1 9/2/1
f 12/2/1 10/2/1 11/2/1
f 15/2/1 14/2/1 13/2/1
f 16/2/1 14/2/1 15/2/1
f 21/1/1 18/1/1 17/1/1
f 22/1/1 18/1/1 21/1/1
f 23/1/1 20/1/1 19/1/1
f 24/1/1 20/1/1 23/1/1
f 27/1/1 26/1/1 25/1/1
f 28/1/1 26/1/1 27/1/1
f 31/1/1 30/1/1 29/1/1
f 32/1/1 30/1/1 31/1/1
f 33/1/2 34/1/2 35/1/2
f 35/1/2 34/1/2 36/1/2
f 37/1/2 38/1/2 39/1/2
f 39/1/2 38/1/2 40/1/2
f 41/1/2 42/1/2 45/1/2
f 45/1/2 42/1/2 46/1/2
f 43/1/2 44/1/2 47/1/2
f 47/1/2 44/1/2 48/1/2
f 49/2/2 50/2/2 51/2/2
f 51/2/2 50/2/2 52/2/2
f 53/2/2 54/2/2 55/2/2
f 55/2/2 54/2/2 56/2/2
f 57/1/2 58/1/2 61/1/2
f 59/1/2 60/1/2 62/1/2
f 57/1/2 61/1/2 63/1/2
f 61/1/2 62/1/2 63/1/2
f 62/1/2 60/1/2 64/1/2
f 63/1/2 62/1/2 64/1/2
f 69/2/3 66/2/3 65/2/3
f 70/2/3 66/2/3 69/2/3
f 71/2/3 68/2/3 67/2/3
f 72/2/3 68/2/3 71/2/3
f 73/2/3 69/2/3 65/2/3
f 73/4/3 70/4/3 69/4/3
f 74/2/3 66/2/3 70/2/3
f 74/4/3 70/4/3 73/4/3
f 75/4/3 72/4/3 71/4/3
f 75/2/3 71/2/3 67/2/3
f 76/2/3 68/2/3 72/2/3
f 76/4/3 72/4/3 75/4/3
f 77/2/3 73/2/3 65/2/3
f 77/2/3 74/2/3 73/2/3
f 78/2/3 66/2/3 74/2/3
f 78/2/3 74/2/3 77/2/3
f 79/2/3 75/2/3 67/2/3
f 79/2/3 76/2/3 75/2/3
f 80/2/3 68/2/3 76/2/3
f 80/2/3 76/2/3 79/2/3
f 83/1/3 82/1/3 81/1/3
f 84/1/3 82/1/3 83/1/3
f 85/1/3 82/1/3 84/1/3
f 86/1/3 82/1/3 85/1/3
f 87/1/3 83/1/3 81/1/3
f 88/1/3 83/1/3 87/1/3
f 89/1/3 83/1/3 88/1/3
f 90/1/3 83/1/3 89/1/3
f 91/1/3 83/1/3 90/1/3
f 92/1/3 83/1/3 91/1/3
f 94/1/3 89/1/3 88/1/3
f 95/1/3 89/1/3 94/1/3
f 96/1/3 91/1/3 90/1/3
f 97/1/3 91/1/3 96/1/3
f 98/1/3 83/1/3 92/1/3
f 99/1/3 97/1/3 96/1/3
f 99/1/3 98/1/3 97/1/3
f 99/1/3 83/1/3 98/1/3
f 99/1/3 95/1/3 94/1/3
f 99/1/3 96/1/3 95/1/3
f 99/1/3 94/1/3 93/1/3
f 100/1/3 85/1/3 84/1/3
f 101/1/3 85/1/3 100/1/3
f 102/1/3 82/1/3 86/1/3
f 103/1/3 101/1/3 100/1/3
f 103/1/3 102/1/3 101/1/3
f 103/1/3 99/1/3 93/1/3
f 103/1/3 100/1/3 99/1/3
f 104/1/3 82/1/3 102/1/3
f 104/1/3 102/1/3 103/1/3
f 107/1/3 106/1/3 105/1/3
f 108/1/3 106/1/3 107/1/3
f 111/1/3 110/1/3 109/1/3
f 112/1/3 110/1/3 111/1/3
f 117/1/3 114/1/3 113/1/3
f 118/1/3 114/1/3 117/1/3
f 119/1/3 116/1/3 115/1/3
f 120/1/3 116/1/3 119/1/3
f 121/1/4 122/1/4 123/1/4
f 123/1/4 122/1/4 124/1/4
f 125/1/4 126/1/4 127/1/4
f 127/1/4 126/1/4 128/1/4
f 129/1/4 130/1/4 131/1/4
f 131/1/4 130/1/4 132/1/4
f 132/1/4 130/1/4 134/1/4
f 133/1/4 134/1/4 135/1/4
f 134/1/4 130/1/4 136/1/4
f 135/1/4 134/1/4 136/1/4
f 141/1/5 138/1/5 137/1/5
f 142/1/5 138/1/5 141/1/5
f 143/1/5 140/1/5 139/1/5
f 144/1/5 140/1/5 143/1/5
f 149/1/5 146/1/5 145/1/5
f 150/1/5 146/1/5 149/1/5
f 151/1/5 148/1/5 147/1/5
f 152/1/5 148/1/5 151/1/5
f 156/1/5 154/1/5 153/1/5
f 157/1/5 154/1/5 156/1/5
f 159/1/5 156/1/5 155/1/5
f 159/1/5 158/1/5 157/1/5
f 159/1/5 157/1/5 156/1/5
f 160/1/5 158/1/5 159/1/5
f 161/1/5 158/1/5 160/1/5
f 162/1/5 158/1/5 161/1/5
f 163/1/5 161/1/5 160/1/5
f 164/1/5 161/1/5 163/1/5
f 167/2/5 166/2/5 165/2/5
f 168/2/5 166/2/5 167/2/5
f 171/2/5 170/2/5 169/2/5
f 172/2/5 170/2/5 171/2/5
f 175/1/5 174/1/5 173/1/5
f 176/1/5 174/1/5 175/1/5
f 179/1/5 178/1/5 177/1/5
f 180/1/5 178/1/5 179/1/5
f 181/2/6 182/2/6 183/2/6
f 183/2/6 182/2/6 184/2/6
f 185/2/6 186/2/6 187/2/6
f 187/2/6 186/2/6 188/2/6
f 189/1/6 190/1/6 191/1/6
f 191/1/6 190/1/6 192/1/6
f 193/1/6 194/1/6 195/1/6
f 195/1/6 194/1/6 196/1/6
f 197/1/6 198/1/6 199/1/6
f 199/1/6 198/1/6 200/1/6
