# MagicaVoxel @ Ephtracy

# material
mtllib deer head-00.mtl
usemtl palette

# normals
vn -1 0 0
vn 1 0 0
vn 0 0 1
vn 0 0 -1
vn 0 -1 0
vn 0 1 0

# texcoords
vt 0.103516 0.5
vt 0.169922 0.5
vt 0.318359 0.5
vt 0.326172 0.5
vt 0.357422 0.5
vt 0.365234 0.5
vt 0.376953 0.5
vt 0.380859 0.5
vt 0.416016 0.5
vt 0.419922 0.5
vt 0.427734 0.5
vt 0.443359 0.5
vt 0.560547 0.5
vt 0.705078 0.5
vt 0.736328 0.5
vt 0.896484 0.5
vt 0.904297 0.5
vt 0.947266 0.5
vt 0.955078 0.5
vt 0.990234 0.5

# verts
v -5 14 0.5
v -5 14 -0.5
v -5 15 0.5
v -5 15 -0.5
v -5 16 0.5
v -5 16 -0.5
v -5 20 3.5
v -5 20 2.5
v -5 20 -2.5
v -5 20 -3.5
v -5 21 3.5
v -5 21 2.5
v -5 21 1.5
v -5 21 -1.5
v -5 21 -2.5
v -5 21 -3.5
v -5 22 2.5
v -5 22 1.5
v -5 22 -1.5
v -5 22 -2.5
v -4 19 3.5
v -4 19 2.5
v -4 19 -2.5
v -4 19 -3.5
v -4 20 3.5
v -4 20 2.5
v -4 20 -2.5
v -4 20 -3.5
v -3 16 0.5
v -3 16 -0.5
v -3 17 0.5
v -3 17 -0.5
v -3 18 3.5
v -3 18 2.5
v -3 18 -2.5
v -3 18 -3.5
v -3 19 3.5
v -3 19 2.5
v -3 19 -2.5
v -3 19 -3.5
v -2 13 0.5
v -2 13 -0.5
v -2 14 1.5
v -2 14 0.5
v -2 14 -0.5
v -2 14 -1.5
v -2 15 1.5
v -2 15 0.5
v -2 15 -0.5
v -2 15 -1.5
v -2 16 1.5
v -2 16 0.5
v -2 16 -0.5
v -2 16 -1.5
v -2 17 1.5
v -2 17 0.5
v -2 17 -0.5
v -2 17 -1.5
v -2 19 4.5
v -2 19 3.5
v -2 19 -3.5
v -2 19 -4.5
v -2 20 4.5
v -2 20 3.5
v -2 20 -3.5
v -2 20 -4.5
v -2 21 4.5
v -2 21 3.5
v -2 21 2.5
v -2 21 -2.5
v -2 21 -3.5
v -2 21 -4.5
v -2 22 3.5
v -2 22 2.5
v -2 22 -2.5
v -2 22 -3.5
v -1 13 1.5
v -1 13 0.5
v -1 13 -0.5
v -1 13 -1.5
v -1 14 1.5
v -1 14 0.5
v -1 14 -0.5
v -1 14 -1.5
v -1 16 2.5
v -1 16 1.5
v -1 16 -1.5
v -1 16 -2.5
v -1 17 2.5
v -1 17 1.5
v -1 17 0.5
v -1 17 -0.5
v -1 17 -1.5
v -1 17 -2.5
v -1 18 2.5
v -1 18 1.5
v -1 18 0.5
v -1 18 -0.5
v -1 18 -1.5
v -1 18 -2.5
v -1 19 2.5
v -1 19 1.5
v -1 19 0.5
v -1 19 -0.5
v -1 19 -1.5
v -1 19 -2.5
v 0 16 3.5
v 0 16 2.5
v 0 16 -2.5
v 0 16 -3.5
v 0 17 3.5
v 0 17 2.5
v 0 17 -2.5
v 0 17 -3.5
v 0 18 3.5
v 0 18 2.5
v 0 18 -2.5
v 0 18 -3.5
v 0 19 2.5
v 0 19 1.5
v 0 19 -1.5
v 0 19 -2.5
v 0 20 2.5
v 0 20 1.5
v 0 20 -1.5
v 0 20 -2.5
v 0 21 2.5
v 0 21 1.5
v 0 21 -1.5
v 0 21 -2.5
v -4 20 3.5
v -4 20 2.5
v -4 20 -2.5
v -4 20 -3.5
v -4 21 3.5
v -4 21 2.5
v -4 21 1.5
v -4 21 -1.5
v -4 21 -2.5
v -4 21 -3.5
v -4 22 2.5
v -4 22 1.5
v -4 22 -1.5
v -4 22 -2.5
v -2 19 3.5
v -2 19 2.5
v -2 19 -2.5
v -2 19 -3.5
v -2 20 3.5
v -2 20 2.5
v -2 20 -2.5
v -2 20 -3.5
v -1 18 3.5
v -1 18 2.5
v -1 18 -2.5
v -1 18 -3.5
v -1 19 4.5
v -1 19 3.5
v -1 19 2.5
v -1 19 -2.5
v -1 19 -3.5
v -1 19 -4.5
v -1 20 4.5
v -1 20 3.5
v -1 20 -3.5
v -1 20 -4.5
v -1 21 4.5
v -1 21 3.5
v -1 21 2.5
v -1 21 -2.5
v -1 21 -3.5
v -1 21 -4.5
v -1 22 3.5
v -1 22 2.5
v -1 22 -2.5
v -1 22 -3.5
v 0 16 2.5
v 0 16 1.5
v 0 16 -1.5
v 0 16 -2.5
v 0 17 2.5
v 0 17 1.5
v 0 17 0.5
v 0 17 -0.5
v 0 17 -1.5
v 0 17 -2.5
v 0 18 2.5
v 0 18 1.5
v 0 18 0.5
v 0 18 -0.5
v 0 18 -1.5
v 0 18 -2.5
v 0 19 2.5
v 0 19 1.5
v 0 19 0.5
v 0 19 -0.5
v 0 19 -1.5
v 0 19 -2.5
v 1 13 1.5
v 1 13 0.5
v 1 13 -0.5
v 1 13 -1.5
v 1 14 1.5
v 1 14 0.5
v 1 14 -0.5
v 1 14 -1.5
v 1 15 1.5
v 1 15 0.5
v 1 15 -0.5
v 1 15 -1.5
v 1 16 3.5
v 1 16 2.5
v 1 16 0.5
v 1 16 -0.5
v 1 16 -2.5
v 1 16 -3.5
v 1 17 3.5
v 1 17 2.5
v 1 17 1.5
v 1 17 0.5
v 1 17 -0.5
v 1 17 -1.5
v 1 17 -2.5
v 1 17 -3.5
v 1 18 3.5
v 1 18 2.5
v 1 18 -2.5
v 1 18 -3.5
v 1 19 2.5
v 1 19 1.5
v 1 19 -1.5
v 1 19 -2.5
v 1 20 2.5
v 1 20 1.5
v 1 20 -1.5
v 1 20 -2.5
v 1 21 2.5
v 1 21 1.5
v 1 21 -1.5
v 1 21 -2.5
v -2 19 4.5
v -2 20 4.5
v -2 21 4.5
v -1 19 4.5
v -1 20 4.5
v -1 21 4.5
v -5 20 3.5
v -5 21 3.5
v -4 19 3.5
v -4 20 3.5
v -4 21 3.5
v -3 18 3.5
v -3 19 3.5
v -3 20 3.5
v -2 18 3.5
v -2 19 3.5
v -2 20 3.5
v -2 21 3.5
v -2 22 3.5
v -1 18 3.5
v -1 19 3.5
v -1 21 3.5
v -1 22 3.5
v 0 16 3.5
v 0 17 3.5
v 0 18 3.5
v 1 16 3.5
v 1 17 3.5
v 1 18 3.5
v -5 21 2.5
v -5 22 2.5
v -4 21 2.5
v -4 22 2.5
v -1 16 2.5
v -1 17 2.5
v -1 18 2.5
v -1 19 2.5
v 0 16 2.5
v 0 17 2.5
v 0 18 2.5
v 0 19 2.5
v 0 20 2.5
v 0 21 2.5
v 1 19 2.5
v 1 20 2.5
v 1 21 2.5
v -2 14 1.5
v -2 15 1.5
v -2 16 1.5
v -2 17 1.5
v -1 13 1.5
v -1 14 1.5
v -1 15 1.5
v -1 16 1.5
v -1 17 1.5
v -1 18 1.5
v 0 14 1.5
v 0 15 1.5
v 0 16 1.5
v 0 17 1.5
v 0 18 1.5
v 1 13 1.5
v 1 14 1.5
v 1 15 1.5
v 1 17 1.5
v -5 14 0.5
v -5 15 0.5
v -5 16 0.5
v -4 14 0.5
v -4 15 0.5
v -4 16 0.5
v -3 14 0.5
v -3 15 0.5
v -3 16 0.5
v -3 17 0.5
v -2 13 0.5
v -2 14 0.5
v -2 15 0.5
v -2 16 0.5
v -2 17 0.5
v -1 13 0.5
v -1 14 0.5
v -1 17 -0.5
v -1 18 -0.5
v -1 19 -0.5
v 0 17 -0.5
v 0 18 -0.5
v 0 19 -0.5
v -5 21 -1.5
v -5 22 -1.5
v -4 21 -1.5
v -4 22 -1.5
v 0 19 -1.5
v 0 20 -1.5
v 0 21 -1.5
v 1 19 -1.5
v 1 20 -1.5
v 1 21 -1.5
v -5 20 -2.5
v -5 21 -2.5
v -4 19 -2.5
v -4 20 -2.5
v -4 21 -2.5
v -3 18 -2.5
v -3 19 -2.5
v -3 20 -2.5
v -2 18 -2.5
v -2 19 -2.5
v -2 20 -2.5
v -2 21 -2.5
v -2 22 -2.5
v -1 18 -2.5
v -1 19 -2.5
v -1 21 -2.5
v -1 22 -2.5
v 0 16 -2.5
v 0 17 -2.5
v 0 18 -2.5
v 1 16 -2.5
v 1 17 -2.5
v 1 18 -2.5
v -2 19 -3.5
v -2 20 -3.5
v -2 21 -3.5
v -1 19 -3.5
v -1 20 -3.5
v -1 21 -3.5
v -2 19 3.5
v -2 20 3.5
v -2 21 3.5
v -1 19 3.5
v -1 20 3.5
v -1 21 3.5
v -5 20 2.5
v -5 21 2.5
v -4 19 2.5
v -4 20 2.5
v -4 21 2.5
v -3 18 2.5
v -3 19 2.5
v -3 20 2.5
v -2 18 2.5
v -2 19 2.5
v -2 20 2.5
v -2 21 2.5
v -2 22 2.5
v -1 18 2.5
v -1 19 2.5
v -1 21 2.5
v -1 22 2.5
v 0 16 2.5
v 0 17 2.5
v 0 18 2.5
v 1 16 2.5
v 1 17 2.5
v 1 18 2.5
v -5 21 1.5
v -5 22 1.5
v -4 21 1.5
v -4 22 1.5
v 0 19 1.5
v 0 20 1.5
v 0 21 1.5
v 1 19 1.5
v 1 20 1.5
v 1 21 1.5
v -1 17 0.5
v -1 18 0.5
v -1 19 0.5
v 0 17 0.5
v 0 18 0.5
v 0 19 0.5
v -5 14 -0.5
v -5 15 -0.5
v -5 16 -0.5
v -4 14 -0.5
v -4 15 -0.5
v -4 16 -0.5
v -3 14 -0.5
v -3 15 -0.5
v -3 16 -0.5
v -3 17 -0.5
v -2 13 -0.5
v -2 14 -0.5
v -2 15 -0.5
v -2 16 -0.5
v -2 17 -0.5
v -1 13 -0.5
v -1 14 -0.5
v -2 14 -1.5
v -2 15 -1.5
v -2 16 -1.5
v -2 17 -1.5
v -1 13 -1.5
v -1 14 -1.5
v -1 15 -1.5
v -1 16 -1.5
v -1 17 -1.5
v -1 18 -1.5
v 0 14 -1.5
v 0 15 -1.5
v 0 16 -1.5
v 0 17 -1.5
v 0 18 -1.5
v 1 13 -1.5
v 1 14 -1.5
v 1 15 -1.5
v 1 17 -1.5
v -5 21 -2.5
v -5 22 -2.5
v -4 21 -2.5
v -4 22 -2.5
v -1 16 -2.5
v -1 17 -2.5
v -1 18 -2.5
v -1 19 -2.5
v 0 16 -2.5
v 0 17 -2.5
v 0 18 -2.5
v 0 19 -2.5
v 0 20 -2.5
v 0 21 -2.5
v 1 19 -2.5
v 1 20 -2.5
v 1 21 -2.5
v -5 20 -3.5
v -5 21 -3.5
v -4 19 -3.5
v -4 20 -3.5
v -4 21 -3.5
v -3 18 -3.5
v -3 19 -3.5
v -3 20 -3.5
v -2 18 -3.5
v -2 19 -3.5
v -2 20 -3.5
v -2 21 -3.5
v -2 22 -3.5
v -1 18 -3.5
v -1 19 -3.5
v -1 21 -3.5
v -1 22 -3.5
v 0 16 -3.5
v 0 17 -3.5
v 0 18 -3.5
v 1 16 -3.5
v 1 17 -3.5
v 1 18 -3.5
v -2 19 -4.5
v -2 20 -4.5
v -2 21 -4.5
v -1 19 -4.5
v -1 20 -4.5
v -1 21 -4.5
v -1 13 1.5
v 1 13 1.5
v -2 13 0.5
v -1 13 0.5
v 0 13 0.5
v 1 13 0.5
v -2 13 -0.5
v -1 13 -0.5
v 0 13 -0.5
v 1 13 -0.5
v -1 13 -1.5
v 1 13 -1.5
v -2 14 1.5
v -1 14 1.5
v -5 14 0.5
v -4 14 0.5
v -3 14 0.5
v -2 14 0.5
v -1 14 0.5
v -5 14 -0.5
v -4 14 -0.5
v -3 14 -0.5
v -2 14 -0.5
v -1 14 -0.5
v -2 14 -1.5
v -1 14 -1.5
v 0 16 3.5
v 1 16 3.5
v -1 16 2.5
v 0 16 2.5
v 1 16 2.5
v -1 16 1.5
v 0 16 1.5
v -1 16 -1.5
v 0 16 -1.5
v -1 16 -2.5
v 0 16 -2.5
v 1 16 -2.5
v 0 16 -3.5
v 1 16 -3.5
v -3 18 3.5
v -2 18 3.5
v -1 18 3.5
v -3 18 2.5
v -2 18 2.5
v -1 18 2.5
v 0 18 2.5
v -1 18 1.5
v 0 18 1.5
v -1 18 -1.5
v 0 18 -1.5
v -3 18 -2.5
v -2 18 -2.5
v -1 18 -2.5
v 0 18 -2.5
v -3 18 -3.5
v -2 18 -3.5
v -1 18 -3.5
v -2 19 4.5
v -1 19 4.5
v -4 19 3.5
v -3 19 3.5
v -2 19 3.5
v -1 19 3.5
v -4 19 2.5
v -3 19 2.5
v 0 19 2.5
v 1 19 2.5
v 0 19 1.5
v 1 19 1.5
v 0 19 -1.5
v 1 19 -1.5
v -4 19 -2.5
v -3 19 -2.5
v 0 19 -2.5
v 1 19 -2.5
v -4 19 -3.5
v -3 19 -3.5
v -2 19 -3.5
v -1 19 -3.5
v -2 19 -4.5
v -1 19 -4.5
v -5 20 3.5
v -4 20 3.5
v -5 20 2.5
v -4 20 2.5
v -5 20 -2.5
v -4 20 -2.5
v -5 20 -3.5
v -4 20 -3.5
v -2 21 3.5
v -1 21 3.5
v -5 21 2.5
v -4 21 2.5
v -2 21 2.5
v -1 21 2.5
v -5 21 1.5
v -4 21 1.5
v -5 21 -1.5
v -4 21 -1.5
v -5 21 -2.5
v -4 21 -2.5
v -2 21 -2.5
v -1 21 -2.5
v -2 21 -3.5
v -1 21 -3.5
v -5 16 0.5
v -4 16 0.5
v -3 16 0.5
v -5 16 -0.5
v -4 16 -0.5
v -3 16 -0.5
v -1 17 2.5
v 0 17 2.5
v -2 17 1.5
v -1 17 1.5
v 0 17 1.5
v 1 17 1.5
v -3 17 0.5
v -2 17 0.5
v -1 17 0.5
v 0 17 0.5
v 1 17 0.5
v -3 17 -0.5
v -2 17 -0.5
v -1 17 -0.5
v 0 17 -0.5
v 1 17 -0.5
v -2 17 -1.5
v -1 17 -1.5
v 0 17 -1.5
v 1 17 -1.5
v -1 17 -2.5
v 0 17 -2.5
v 0 18 3.5
v 1 18 3.5
v 0 18 2.5
v 1 18 2.5
v 0 18 -2.5
v 1 18 -2.5
v 0 18 -3.5
v 1 18 -3.5
v -2 19 3.5
v -1 19 3.5
v -2 19 2.5
v -1 19 2.5
v 0 19 2.5
v -1 19 1.5
v 0 19 1.5
v -1 19 0.5
v 0 19 0.5
v -1 19 -0.5
v 0 19 -0.5
v -1 19 -1.5
v 0 19 -1.5
v -2 19 -2.5
v -1 19 -2.5
v 0 19 -2.5
v -2 19 -3.5
v -1 19 -3.5
v -4 20 3.5
v -3 20 3.5
v -2 20 3.5
v -4 20 2.5
v -3 20 2.5
v -2 20 2.5
v -4 20 -2.5
v -3 20 -2.5
v -2 20 -2.5
v -4 20 -3.5
v -3 20 -3.5
v -2 20 -3.5
v -2 21 4.5
v -1 21 4.5
v -5 21 3.5
v -4 21 3.5
v -2 21 3.5
v -1 21 3.5
v -5 21 2.5
v -4 21 2.5
v 0 21 2.5
v 1 21 2.5
v 0 21 1.5
v 1 21 1.5
v 0 21 -1.5
v 1 21 -1.5
v -5 21 -2.5
v -4 21 -2.5
v 0 21 -2.5
v 1 21 -2.5
v -5 21 -3.5
v -4 21 -3.5
v -2 21 -3.5
v -1 21 -3.5
v -2 21 -4.5
v -1 21 -4.5
v -2 22 3.5
v -1 22 3.5
v -5 22 2.5
v -4 22 2.5
v -2 22 2.5
v -1 22 2.5
v -5 22 1.5
v -4 22 1.5
v -5 22 -1.5
v -4 22 -1.5
v -5 22 -2.5
v -4 22 -2.5
v -2 22 -2.5
v -1 22 -2.5
v -2 22 -3.5
v -1 22 -3.5

# faces
f 3/19/1 2/19/1 1/19/1
f 4/19/1 2/19/1 3/19/1
f 5/18/1 4/18/1 3/18/1
f 6/18/1 4/18/1 5/18/1
f 11/17/1 8/17/1 7/17/1
f 12/17/1 8/17/1 11/17/1
f 15/17/1 10/17/1 9/17/1
f 16/17/1 10/17/1 15/17/1
f 17/10/1 13/10/1 12/10/1
f 18/10/1 13/10/1 17/10/1
f 19/10/1 15/10/1 14/10/1
f 20/10/1 15/10/1 19/10/1
f 25/16/1 22/16/1 21/16/1
f 26/16/1 22/16/1 25/16/1
f 27/16/1 24/16/1 23/16/1
f 28/16/1 24/16/1 27/16/1
f 31/3/1 30/3/1 29/3/1
f 32/3/1 30/3/1 31/3/1
f 37/16/1 34/16/1 33/16/1
f 38/16/1 34/16/1 37/16/1
f 39/16/1 36/16/1 35/16/1
f 40/16/1 36/16/1 39/16/1
f 44/10/1 42/10/1 41/10/1
f 45/10/1 42/10/1 44/10/1
f 47/4/1 44/4/1 43/4/1
f 48/4/1 44/4/1 47/4/1
f 49/4/1 46/4/1 45/4/1
f 50/4/1 46/4/1 49/4/1
f 51/20/1 48/20/1 47/20/1
f 52/20/1 48/20/1 51/20/1
f 53/20/1 50/20/1 49/20/1
f 54/20/1 50/20/1 53/20/1
f 55/3/1 52/3/1 51/3/1
f 56/3/1 52/3/1 55/3/1
f 57/3/1 54/3/1 53/3/1
f 58/3/1 54/3/1 57/3/1
f 63/9/1 60/9/1 59/9/1
f 64/9/1 60/9/1 63/9/1
f 65/9/1 62/9/1 61/9/1
f 66/9/1 62/9/1 65/9/1
f 67/17/1 64/17/1 63/17/1
f 68/17/1 64/17/1 67/17/1
f 71/17/1 66/17/1 65/17/1
f 72/17/1 66/17/1 71/17/1
f 73/10/1 69/10/1 68/10/1
f 74/10/1 69/10/1 73/10/1
f 75/10/1 71/10/1 70/10/1
f 76/10/1 71/10/1 75/10/1
f 81/3/1 78/3/1 77/3/1
f 82/3/1 78/3/1 81/3/1
f 83/3/1 80/3/1 79/3/1
f 84/3/1 80/3/1 83/3/1
f 89/3/1 86/3/1 85/3/1
f 90/3/1 86/3/1 89/3/1
f 93/3/1 88/3/1 87/3/1
f 94/3/1 88/3/1 93/3/1
f 96/12/1 91/12/1 90/12/1
f 97/12/1 91/12/1 96/12/1
f 98/12/1 93/12/1 92/12/1
f 99/12/1 93/12/1 98/12/1
f 101/8/1 96/8/1 95/8/1
f 102/7/1 97/7/1 96/7/1
f 102/8/1 96/8/1 101/8/1
f 103/7/1 97/7/1 102/7/1
f 104/7/1 99/7/1 98/7/1
f 105/8/1 100/8/1 99/8/1
f 105/7/1 99/7/1 104/7/1
f 106/8/1 100/8/1 105/8/1
f 111/2/1 108/2/1 107/2/1
f 112/2/1 108/2/1 111/2/1
f 113/2/1 110/2/1 109/2/1
f 114/2/1 110/2/1 113/2/1
f 115/11/1 112/11/1 111/11/1
f 116/11/1 112/11/1 115/11/1
f 117/11/1 114/11/1 113/11/1
f 118/11/1 114/11/1 117/11/1
f 123/9/1 120/9/1 119/9/1
f 124/9/1 120/9/1 123/9/1
f 125/9/1 122/9/1 121/9/1
f 126/9/1 122/9/1 125/9/1
f 127/17/1 124/17/1 123/17/1
f 128/17/1 124/17/1 127/17/1
f 129/17/1 126/17/1 125/17/1
f 130/17/1 126/17/1 129/17/1
f 131/17/2 132/17/2 135/17/2
f 135/17/2 132/17/2 136/17/2
f 133/17/2 134/17/2 139/17/2
f 139/17/2 134/17/2 140/17/2
f 136/10/2 137/10/2 141/10/2
f 141/10/2 137/10/2 142/10/2
f 138/10/2 139/10/2 143/10/2
f 143/10/2 139/10/2 144/10/2
f 145/9/2 146/9/2 149/9/2
f 149/9/2 146/9/2 150/9/2
f 147/9/2 148/9/2 151/9/2
f 151/9/2 148/9/2 152/9/2
f 153/9/2 154/9/2 158/9/2
f 158/9/2 154/9/2 159/9/2
f 155/9/2 156/9/2 160/9/2
f 160/9/2 156/9/2 161/9/2
f 157/9/2 158/9/2 163/9/2
f 163/9/2 158/9/2 164/9/2
f 161/9/2 162/9/2 165/9/2
f 165/9/2 162/9/2 166/9/2
f 163/17/2 164/17/2 167/17/2
f 167/17/2 164/17/2 168/17/2
f 165/17/2 166/17/2 171/17/2
f 171/17/2 166/17/2 172/17/2
f 168/10/2 169/10/2 173/10/2
f 173/10/2 169/10/2 174/10/2
f 170/10/2 171/10/2 175/10/2
f 175/10/2 171/10/2 176/10/2
f 177/3/2 178/3/2 181/3/2
f 181/3/2 178/3/2 182/3/2
f 179/3/2 180/3/2 185/3/2
f 185/3/2 180/3/2 186/3/2
f 182/12/2 183/12/2 188/12/2
f 188/12/2 183/12/2 189/12/2
f 184/12/2 185/12/2 190/12/2
f 190/12/2 185/12/2 191/12/2
f 187/8/2 188/8/2 193/8/2
f 188/7/2 189/7/2 194/7/2
f 193/8/2 188/8/2 194/8/2
f 194/7/2 189/7/2 195/7/2
f 190/7/2 191/7/2 196/7/2
f 191/8/2 192/8/2 197/8/2
f 196/7/2 191/7/2 197/7/2
f 197/8/2 192/8/2 198/8/2
f 199/3/2 200/3/2 203/3/2
f 200/14/2 201/14/2 204/14/2
f 203/3/2 200/3/2 204/3/2
f 201/3/2 202/3/2 205/3/2
f 204/14/2 201/14/2 205/14/2
f 205/3/2 202/3/2 206/3/2
f 203/13/2 204/13/2 207/13/2
f 204/3/2 205/3/2 208/3/2
f 207/13/2 204/13/2 208/13/2
f 205/13/2 206/13/2 209/13/2
f 208/3/2 205/3/2 209/3/2
f 209/13/2 206/13/2 210/13/2
f 207/3/2 208/3/2 213/3/2
f 208/3/2 209/3/2 213/3/2
f 209/3/2 210/3/2 213/3/2
f 213/3/2 210/3/2 214/3/2
f 211/2/2 212/2/2 217/2/2
f 217/2/2 212/2/2 218/2/2
f 207/3/2 213/3/2 219/3/2
f 213/13/2 214/13/2 220/13/2
f 219/3/2 213/3/2 220/3/2
f 214/3/2 210/3/2 221/3/2
f 220/13/2 214/13/2 221/13/2
f 221/3/2 210/3/2 222/3/2
f 215/2/2 216/2/2 223/2/2
f 223/2/2 216/2/2 224/2/2
f 217/11/2 218/11/2 225/11/2
f 225/11/2 218/11/2 226/11/2
f 223/11/2 224/11/2 227/11/2
f 227/11/2 224/11/2 228/11/2
f 229/9/2 230/9/2 233/9/2
f 233/9/2 230/9/2 234/9/2
f 231/9/2 232/9/2 235/9/2
f 235/9/2 232/9/2 236/9/2
f 233/17/2 234/17/2 237/17/2
f 237/17/2 234/17/2 238/17/2
f 235/17/2 236/17/2 239/17/2
f 239/17/2 236/17/2 240/17/2
f 244/9/3 242/9/3 241/9/3
f 245/17/3 243/17/3 242/17/3
f 245/9/3 242/9/3 244/9/3
f 246/17/3 243/17/3 245/17/3
f 250/17/3 248/17/3 247/17/3
f 251/17/3 248/17/3 250/17/3
f 253/16/3 250/16/3 249/16/3
f 254/16/3 250/16/3 253/16/3
f 255/16/3 253/16/3 252/16/3
f 256/9/3 254/9/3 253/9/3
f 256/16/3 253/16/3 255/16/3
f 257/9/3 254/9/3 256/9/3
f 260/9/3 256/9/3 255/9/3
f 261/9/3 256/9/3 260/9/3
f 262/10/3 259/10/3 258/10/3
f 263/10/3 259/10/3 262/10/3
f 267/2/3 265/2/3 264/2/3
f 268/11/3 266/11/3 265/11/3
f 268/2/3 265/2/3 267/2/3
f 269/11/3 266/11/3 268/11/3
f 272/10/3 271/10/3 270/10/3
f 273/10/3 271/10/3 272/10/3
f 278/3/3 275/3/3 274/3/3
f 279/3/3 275/3/3 278/3/3
f 280/8/3 277/8/3 276/8/3
f 281/8/3 277/8/3 280/8/3
f 284/9/3 282/9/3 281/9/3
f 285/17/3 283/17/3 282/17/3
f 285/9/3 282/9/3 284/9/3
f 286/17/3 283/17/3 285/17/3
f 292/4/3 288/4/3 287/4/3
f 293/20/3 289/20/3 288/20/3
f 293/4/3 288/4/3 292/4/3
f 294/3/3 290/3/3 289/3/3
f 294/20/3 289/20/3 293/20/3
f 295/3/3 290/3/3 294/3/3
f 297/3/3 293/3/3 292/3/3
f 297/3/3 292/3/3 291/3/3
f 297/3/3 294/3/3 293/3/3
f 298/3/3 294/3/3 297/3/3
f 299/3/3 294/3/3 298/3/3
f 300/12/3 296/12/3 295/12/3
f 301/12/3 296/12/3 300/12/3
f 302/3/3 297/3/3 291/3/3
f 303/13/3 298/13/3 297/13/3
f 303/3/3 297/3/3 302/3/3
f 304/3/3 299/3/3 298/3/3
f 304/13/3 298/13/3 303/13/3
f 304/3/3 300/3/3 299/3/3
f 305/3/3 300/3/3 304/3/3
f 309/19/3 307/19/3 306/19/3
f 310/18/3 308/18/3 307/18/3
f 310/19/3 307/19/3 309/19/3
f 311/18/3 308/18/3 310/18/3
f 312/1/3 310/1/3 309/1/3
f 313/15/3 311/15/3 310/15/3
f 313/1/3 310/1/3 312/1/3
f 314/15/3 311/15/3 313/15/3
f 317/4/3 313/4/3 312/4/3
f 318/5/3 314/5/3 313/5/3
f 318/4/3 313/4/3 317/4/3
f 319/3/3 315/3/3 314/3/3
f 319/5/3 314/5/3 318/5/3
f 320/3/3 315/3/3 319/3/3
f 321/10/3 317/10/3 316/10/3
f 322/10/3 317/10/3 321/10/3
f 326/12/3 324/12/3 323/12/3
f 327/7/3 325/7/3 324/7/3
f 327/12/3 324/12/3 326/12/3
f 328/7/3 325/7/3 327/7/3
f 331/10/3 330/10/3 329/10/3
f 332/10/3 330/10/3 331/10/3
f 336/9/3 334/9/3 333/9/3
f 337/17/3 335/17/3 334/17/3
f 337/9/3 334/9/3 336/9/3
f 338/17/3 335/17/3 337/17/3
f 342/17/3 340/17/3 339/17/3
f 343/17/3 340/17/3 342/17/3
f 345/16/3 342/16/3 341/16/3
f 346/16/3 342/16/3 345/16/3
f 347/16/3 345/16/3 344/16/3
f 348/9/3 346/9/3 345/9/3
f 348/16/3 345/16/3 347/16/3
f 349/9/3 346/9/3 348/9/3
f 352/9/3 348/9/3 347/9/3
f 353/9/3 348/9/3 352/9/3
f 354/10/3 351/10/3 350/10/3
f 355/10/3 351/10/3 354/10/3
f 359/2/3 357/2/3 356/2/3
f 360/11/3 358/11/3 357/11/3
f 360/2/3 357/2/3 359/2/3
f 361/11/3 358/11/3 360/11/3
f 365/9/3 363/9/3 362/9/3
f 366/17/3 364/17/3 363/17/3
f 366/9/3 363/9/3 365/9/3
f 367/17/3 364/17/3 366/17/3
f 368/9/4 369/9/4 371/9/4
f 369/17/4 370/17/4 372/17/4
f 371/9/4 369/9/4 372/9/4
f 372/17/4 370/17/4 373/17/4
f 374/17/4 375/17/4 377/17/4
f 377/17/4 375/17/4 378/17/4
f 376/16/4 377/16/4 380/16/4
f 380/16/4 377/16/4 381/16/4
f 379/16/4 380/16/4 382/16/4
f 380/9/4 381/9/4 383/9/4
f 382/16/4 380/16/4 383/16/4
f 383/9/4 381/9/4 384/9/4
f 382/9/4 383/9/4 387/9/4
f 387/9/4 383/9/4 388/9/4
f 385/10/4 386/10/4 389/10/4
f 389/10/4 386/10/4 390/10/4
f 391/2/4 392/2/4 394/2/4
f 392/11/4 393/11/4 395/11/4
f 394/2/4 392/2/4 395/2/4
f 395/11/4 393/11/4 396/11/4
f 397/10/4 398/10/4 399/10/4
f 399/10/4 398/10/4 400/10/4
f 401/9/4 402/9/4 404/9/4
f 402/17/4 403/17/4 405/17/4
f 404/9/4 402/9/4 405/9/4
f 405/17/4 403/17/4 406/17/4
f 407/12/4 408/12/4 410/12/4
f 408/7/4 409/7/4 411/7/4
f 410/12/4 408/12/4 411/12/4
f 411/7/4 409/7/4 412/7/4
f 413/19/4 414/19/4 416/19/4
f 414/18/4 415/18/4 417/18/4
f 416/19/4 414/19/4 417/19/4
f 417/18/4 415/18/4 418/18/4
f 416/1/4 417/1/4 419/1/4
f 417/15/4 418/15/4 420/15/4
f 419/1/4 417/1/4 420/1/4
f 420/15/4 418/15/4 421/15/4
f 419/4/4 420/4/4 424/4/4
f 420/5/4 421/5/4 425/5/4
f 424/4/4 420/4/4 425/4/4
f 421/3/4 422/3/4 426/3/4
f 425/5/4 421/5/4 426/5/4
f 426/3/4 422/3/4 427/3/4
f 423/10/4 424/10/4 428/10/4
f 428/10/4 424/10/4 429/10/4
f 430/4/4 431/4/4 435/4/4
f 431/20/4 432/20/4 436/20/4
f 435/4/4 431/4/4 436/4/4
f 432/3/4 433/3/4 437/3/4
f 436/20/4 432/20/4 437/20/4
f 437/3/4 433/3/4 438/3/4
f 435/3/4 436/3/4 440/3/4
f 434/3/4 435/3/4 440/3/4
f 436/3/4 437/3/4 440/3/4
f 440/3/4 437/3/4 441/3/4
f 441/3/4 437/3/4 442/3/4
f 438/12/4 439/12/4 443/12/4
f 443/12/4 439/12/4 444/12/4
f 434/3/4 440/3/4 445/3/4
f 440/13/4 441/13/4 446/13/4
f 445/3/4 440/3/4 446/3/4
f 441/3/4 442/3/4 447/3/4
f 446/13/4 441/13/4 447/13/4
f 442/3/4 443/3/4 447/3/4
f 447/3/4 443/3/4 448/3/4
f 449/10/4 450/10/4 451/10/4
f 451/10/4 450/10/4 452/10/4
f 453/3/4 454/3/4 457/3/4
f 457/3/4 454/3/4 458/3/4
f 455/8/4 456/8/4 459/8/4
f 459/8/4 456/8/4 460/8/4
f 460/9/4 461/9/4 463/9/4
f 461/17/4 462/17/4 464/17/4
f 463/9/4 461/9/4 464/9/4
f 464/17/4 462/17/4 465/17/4
f 466/17/4 467/17/4 469/17/4
f 469/17/4 467/17/4 470/17/4
f 468/16/4 469/16/4 472/16/4
f 472/16/4 469/16/4 473/16/4
f 471/16/4 472/16/4 474/16/4
f 472/9/4 473/9/4 475/9/4
f 474/16/4 472/16/4 475/16/4
f 475/9/4 473/9/4 476/9/4
f 474/9/4 475/9/4 479/9/4
f 479/9/4 475/9/4 480/9/4
f 477/10/4 478/10/4 481/10/4
f 481/10/4 478/10/4 482/10/4
f 483/2/4 484/2/4 486/2/4
f 484/11/4 485/11/4 487/11/4
f 486/2/4 484/2/4 487/2/4
f 487/11/4 485/11/4 488/11/4
f 489/9/4 490/9/4 492/9/4
f 490/17/4 491/17/4 493/17/4
f 492/9/4 490/9/4 493/9/4
f 493/17/4 491/17/4 494/17/4
f 498/3/5 496/3/5 495/3/5
f 499/3/5 496/3/5 498/3/5
f 500/3/5 496/3/5 499/3/5
f 501/10/5 498/10/5 497/10/5
f 502/6/5 499/6/5 498/6/5
f 502/10/5 498/10/5 501/10/5
f 503/14/5 500/14/5 499/14/5
f 503/6/5 499/6/5 502/6/5
f 504/14/5 500/14/5 503/14/5
f 505/3/5 503/3/5 502/3/5
f 505/3/5 504/3/5 503/3/5
f 506/3/5 504/3/5 505/3/5
f 512/4/5 508/4/5 507/4/5
f 513/4/5 508/4/5 512/4/5
f 514/19/5 510/19/5 509/19/5
f 515/1/5 511/1/5 510/1/5
f 515/19/5 510/19/5 514/19/5
f 516/4/5 512/4/5 511/4/5
f 516/1/5 511/1/5 515/1/5
f 517/4/5 512/4/5 516/4/5
f 519/4/5 518/4/5 517/4/5
f 520/4/5 518/4/5 519/4/5
f 524/2/5 522/2/5 521/2/5
f 525/2/5 522/2/5 524/2/5
f 526/3/5 524/3/5 523/3/5
f 527/3/5 524/3/5 526/3/5
f 530/3/5 529/3/5 528/3/5
f 531/3/5 529/3/5 530/3/5
f 533/2/5 532/2/5 531/2/5
f 534/2/5 532/2/5 533/2/5
f 538/16/5 536/16/5 535/16/5
f 539/9/5 537/9/5 536/9/5
f 539/16/5 536/16/5 538/16/5
f 540/9/5 537/9/5 539/9/5
f 542/8/5 541/8/5 540/8/5
f 543/8/5 541/8/5 542/8/5
f 548/8/5 545/8/5 544/8/5
f 549/8/5 545/8/5 548/8/5
f 550/16/5 547/16/5 546/16/5
f 551/9/5 548/9/5 547/9/5
f 551/16/5 547/16/5 550/16/5
f 552/9/5 548/9/5 551/9/5
f 557/9/5 554/9/5 553/9/5
f 558/9/5 554/9/5 557/9/5
f 559/16/5 556/16/5 555/16/5
f 560/16/5 556/16/5 559/16/5
f 563/9/5 562/9/5 561/9/5
f 564/9/5 562/9/5 563/9/5
f 569/9/5 566/9/5 565/9/5
f 570/9/5 566/9/5 569/9/5
f 571/16/5 568/16/5 567/16/5
f 572/16/5 568/16/5 571/16/5
f 575/9/5 574/9/5 573/9/5
f 576/9/5 574/9/5 575/9/5
f 579/17/5 578/17/5 577/17/5
f 580/17/5 578/17/5 579/17/5
f 583/17/5 582/17/5 581/17/5
f 584/17/5 582/17/5 583/17/5
f 589/10/5 586/10/5 585/10/5
f 590/10/5 586/10/5 589/10/5
f 591/10/5 588/10/5 587/10/5
f 592/10/5 588/10/5 591/10/5
f 595/10/5 594/10/5 593/10/5
f 596/10/5 594/10/5 595/10/5
f 599/10/5 598/10/5 597/10/5
f 600/10/5 598/10/5 599/10/5
f 601/18/6 602/18/6 604/18/6
f 602/15/6 603/15/6 605/15/6
f 604/18/6 602/18/6 605/18/6
f 605/15/6 603/15/6 606/15/6
f 607/3/6 608/3/6 610/3/6
f 610/3/6 608/3/6 611/3/6
f 609/3/6 610/3/6 614/3/6
f 614/3/6 610/3/6 615/3/6
f 611/3/6 612/3/6 616/3/6
f 616/3/6 612/3/6 617/3/6
f 614/3/6 615/3/6 618/3/6
f 613/3/6 614/3/6 618/3/6
f 615/3/6 616/3/6 618/3/6
f 618/3/6 616/3/6 619/3/6
f 619/3/6 616/3/6 620/3/6
f 616/13/6 617/13/6 621/13/6
f 620/3/6 616/3/6 621/3/6
f 621/13/6 617/13/6 622/13/6
f 619/3/6 620/3/6 623/3/6
f 623/3/6 620/3/6 624/3/6
f 621/3/6 622/3/6 625/3/6
f 625/3/6 622/3/6 626/3/6
f 624/3/6 625/3/6 627/3/6
f 627/3/6 625/3/6 628/3/6
f 629/11/6 630/11/6 631/11/6
f 631/11/6 630/11/6 632/11/6
f 633/11/6 634/11/6 635/11/6
f 635/11/6 634/11/6 636/11/6
f 637/9/6 638/9/6 639/9/6
f 639/9/6 638/9/6 640/9/6
f 640/8/6 641/8/6 642/8/6
f 642/8/6 641/8/6 643/8/6
f 642/7/6 643/7/6 644/7/6
f 644/7/6 643/7/6 645/7/6
f 646/7/6 647/7/6 648/7/6
f 648/7/6 647/7/6 649/7/6
f 648/8/6 649/8/6 651/8/6
f 651/8/6 649/8/6 652/8/6
f 650/9/6 651/9/6 653/9/6
f 653/9/6 651/9/6 654/9/6
f 655/16/6 656/16/6 658/16/6
f 656/9/6 657/9/6 659/9/6
f 658/16/6 656/16/6 659/16/6
f 659/9/6 657/9/6 660/9/6
f 661/16/6 662/16/6 664/16/6
f 662/9/6 663/9/6 665/9/6
f 664/16/6 662/16/6 665/16/6
f 665/9/6 663/9/6 666/9/6
f 667/17/6 668/17/6 671/17/6
f 671/17/6 668/17/6 672/17/6
f 669/17/6 670/17/6 673/17/6
f 673/17/6 670/17/6 674/17/6
f 675/17/6 676/17/6 677/17/6
f 677/17/6 676/17/6 678/17/6
f 679/17/6 680/17/6 683/17/6
f 683/17/6 680/17/6 684/17/6
f 681/17/6 682/17/6 685/17/6
f 685/17/6 682/17/6 686/17/6
f 687/17/6 688/17/6 689/17/6
f 689/17/6 688/17/6 690/17/6
f 691/10/6 692/10/6 695/10/6
f 695/10/6 692/10/6 696/10/6
f 693/10/6 694/10/6 697/10/6
f 697/10/6 694/10/6 698/10/6
f 699/10/6 700/10/6 701/10/6
f 701/10/6 700/10/6 702/10/6
f 703/10/6 704/10/6 705/10/6
f 705/10/6 704/10/6 706/10/6
